{
classes = (
{
automatic = 1;
code = "A Aacute Abreve Acircumflex Adieresis Agrave Amacron Aogonek Aring Aringacute Atilde AE AEacute B C Cacute Ccaron Ccedilla Ccircumflex Cdotaccent D DZ DZcaron Eth Dcaron Dcroat Ddotbelow E Eacute Ebreve Ecaron Ecircumflex Edieresis Edotaccent Edotbelow Egrave Emacron Eogonek Etilde F G Gbreve Gcircumflex Gcommaaccent Gdotaccent H Hbar Hcircumflex Hdotbelow I IJ Iacute Ibreve Icircumflex Idieresis Idotaccent Idotbelow Igrave Imacron Iogonek Itilde J Jcircumflex K Kcommaaccent L LJ Lacute Lcaron Lcommaaccent Ldot Lslash M N NJ Nacute Ncaron Ncommaaccent Ndotaccent Eng Ntilde O Oacute Obreve Ocircumflex Odieresis Odotbelow Ograve Ohungarumlaut Omacron Oogonek Oslash Oslashacute Otilde OE P Thorn Q R Racute Rcaron Rcommaaccent Rdotbelow S Sacute Scaron Scedilla Scircumflex Scommaaccent Sdotbelow Germandbls Schwa T Tbar Tcaron Tcedilla Tcommaaccent Tdotbelow U Uacute Ubreve Ucircumflex Udieresis Udotbelow Ugrave Uhungarumlaut Umacron Uogonek Uring Utilde V W Wacute Wcircumflex Wdieresis Wgrave X Y Yacute Ycircumflex Ydieresis Ygrave Ytilde Z Zacute Zcaron Zdotaccent Zdotbelow Y.loclGUA Yacute.loclGUA Ycircumflex.loclGUA Ydieresis.loclGUA Ygrave.loclGUA Ytilde.loclGUA Cacute.loclPLK Nacute.loclPLK Oacute.loclPLK Sacute.loclPLK Zacute.loclPLK Delta Omega";
name = Uppercase;
},
{
code = "A Aacute Abreve Acircumflex Adieresis Agrave Amacron Aogonek Aring Aringacute Atilde AE AEacute E Eacute Ebreve Ecaron Ecircumflex Edieresis Edotaccent Edotbelow Egrave Emacron Eogonek Etilde I IJ Iacute Ibreve Icircumflex Idieresis Idotaccent Idotbelow Igrave Imacron Iogonek Itilde O Oacute Obreve Ocircumflex Odieresis Odotbelow Ograve Ohungarumlaut Omacron Oogonek Oslash Oslashacute Otilde OE U Uacute Ubreve Ucircumflex Udieresis Udotbelow Ugrave Uhungarumlaut Umacron Uogonek Uring Utilde";
name = Voc0;
},
{

glyphs = (
{
color = 0;
glyphname = A;
lastChange = "2013-12-03 23:06:54 -0500";
layers = (
{
anchors = (
{
name = ogonek;
position = "{456, 10}";
},
{
name = top;
position = "{254, 710}";
}
);
layerId = UUID0;
name = Regular;
paths = (
{
closed = 1;
nodes = (
"488 27 OFFCURVE",
"461 91 OFFCURVE",
"453 123 CURVE SMOOTH",
"445 154 OFFCURVE",
"420 227 OFFCURVE",
"412 251 CURVE",
"401 276 OFFCURVE",
"366 374 OFFCURVE",
"358 394 CURVE",
"353 412 OFFCURVE",
"309 529 OFFCURVE",
"306 547 CURVE",
"301 563 OFFCURVE",
"281 644 OFFCURVE",
"270 670 CURVE SMOOTH",
"259 698 OFFCURVE",
"252 720 OFFCURVE",
"243 720 CURVE SMOOTH",
"224 720 OFFCURVE",
"216 700 OFFCURVE",
"208 672 CURVE",
"203 645 OFFCURVE",
"182 589 OFFCURVE",
"177 574 CURVE",
"170 559 OFFCURVE",
"163 533 OFFCURVE",
"154 504 CURVE",
"146 474 OFFCURVE",
"132 425 OFFCURVE",
"127 401 CURVE SMOOTH",
"122 378 OFFCURVE",
"108 337 OFFCURVE",
"101 306 CURVE",
"96 277 OFFCURVE",
"77 219 OFFCURVE",
"69 191 CURVE SMOOTH",
"61 164 OFFCURVE",
"53 134 OFFCURVE",
"50 118 CURVE SMOOTH",
"47 99 OFFCURVE",
"39 80 OFFCURVE",
"36 69 CURVE SMOOTH",
"27 32 LINE",
"24 25 OFFCURVE",
"24 21 OFFCURVE",
"23 18 CURVE SMOOTH",
"22 16 OFFCURVE",
"22 14 OFFCURVE",
"22 13 CURVE SMOOTH",
"19 4 OFFCURVE",
"20 0 OFFCURVE",
"27 0 CURVE SMOOTH",
"47 0 LINE SMOOTH",
"56 0 OFFCURVE",
"55 1 OFFCURVE",
"58 9 CURVE",
"60 18 OFFCURVE",
"62 27 OFFCURVE",
"65 35 CURVE SMOOTH",
"69 48 OFFCURVE",
"72 63 OFFCURVE",
"75 67 CURVE SMOOTH",
"79 75 OFFCURVE",
"83 92 OFFCURVE",
"84 100 CURVE",
"87 108 OFFCURVE",
"102 186 OFFCURVE",
"107 202 CURVE",
"111 221 LINE",
"113 231 LINE SMOOTH",
"115 240 OFFCURVE",
"119 243 OFFCURVE",
"124 242 CURVE",
"185 242 LINE SMOOTH",
"217 242 OFFCURVE",
"251 242 OFFCURVE",
"259 243 CURVE SMOOTH",
"266 243 OFFCURVE",
"285 244 OFFCURVE",
"302 245 CURVE SMOOTH",
"312 246 OFFCURVE",
"322 246 OFFCURVE",
"333 246 CURVE SMOOTH",
"340 246 OFFCURVE",
"342 246 OFFCURVE",
"349 230 CURVE",
"358 201 LINE SMOOTH",
"363 185 OFFCURVE",
"370 167 OFFCURVE",
"374 158 CURVE SMOOTH",
"382 142 OFFCURVE",
"392 105 OFFCURVE",
"395 90 CURVE SMOOTH",
"396 83 OFFCURVE",
"400 64 OFFCURVE",
"407 45 CURVE",
"410 34 OFFCURVE",
"413 22 OFFCURVE",
"418 9 CURVE SMOOTH",
"421 1 OFFCURVE",
"424 0 OFFCURVE",
"429 0 CURVE SMOOTH",
"485 0 LINE SMOOTH",
"500 0 OFFCURVE",
"497 3 OFFCURVE",
"493 14 CURVE SMOOTH"
);
},
{
closed = 1;
nodes = (
"286 311 OFFCURVE",
"231 313 OFFCURVE",
"218 310 CURVE",
"205 310 OFFCURVE",
"170 308 OFFCURVE",
"160 308 CURVE SMOOTH",
"150 308 OFFCURVE",
"126 304 OFFCURVE",
"134 325 CURVE SMOOTH",
"142 346 OFFCURVE",
"162 421 OFFCURVE",
"167 445 CURVE",
"175 469 OFFCURVE",
"200 559 OFFCURVE",
"205 581 CURVE",
"212 604 OFFCURVE",
"217 630 OFFCURVE",
"221 630 CURVE SMOOTH",
"226 630 OFFCURVE",
"236 595 OFFCURVE",
"241 577 CURVE",
"244 560 OFFCURVE",
"266 483 OFFCURVE",
"276 453 CURVE SMOOTH",
"287 423 OFFCURVE",
"304 358 OFFCURVE",
"312 340 CURVE",
"319 319 OFFCURVE",
"325 311 OFFCURVE",
"306 311 CURVE SMOOTH"
);
}
);
width = 507;
}
);
unicode = 0041;
},
{
color = 0;
glyphname = Aacute;
lastChange = "2013-12-03 23:06:54 -0500";
layers = (
{
layerId = UUID0;
name = Regular;
paths = (
{
closed = 1;
nodes = (
"488 27 OFFCURVE",
"461 91 OFFCURVE",
"453 123 CURVE SMOOTH",
"445 154 OFFCURVE",
"420 227 OFFCURVE",
"412 251 CURVE",
"401 276 OFFCURVE",
"366 374 OFFCURVE",
"358 394 CURVE",
"353 412 OFFCURVE",
"309 529 OFFCURVE",
"306 547 CURVE",
"301 563 OFFCURVE",
"281 644 OFFCURVE",
"270 670 CURVE SMOOTH",
"259 698 OFFCURVE",
"252 720 OFFCURVE",
"243 720 CURVE SMOOTH",
"224 720 OFFCURVE",
"216 700 OFFCURVE",
"208 672 CURVE",
"203 645 OFFCURVE",
"182 589 OFFCURVE",
"177 574 CURVE",
"170 559 OFFCURVE",
"163 533 OFFCURVE",
"154 504 CURVE",
"146 474 OFFCURVE",
"132 425 OFFCURVE",
"127 401 CURVE SMOOTH",
"122 378 OFFCURVE",
"108 337 OFFCURVE",
"101 306 CURVE",
"96 277 OFFCURVE",
"77 219 OFFCURVE",
"69 191 CURVE SMOOTH",
"61 164 OFFCURVE",
"53 134 OFFCURVE",
"50 118 CURVE SMOOTH",
"47 99 OFFCURVE",
"39 80 OFFCURVE",
"36 69 CURVE SMOOTH",
"27 32 LINE",
"24 25 OFFCURVE",
"24 21 OFFCURVE",
"23 18 CURVE SMOOTH",
"22 16 OFFCURVE",
"22 14 OFFCURVE",
"22 13 CURVE SMOOTH",
"19 4 OFFCURVE",
"20 0 OFFCURVE",
"27 0 CURVE SMOOTH",
"47 0 LINE SMOOTH",
"56 0 OFFCURVE",
"55 1 OFFCURVE",
"58 9 CURVE",
"60 18 OFFCURVE",
"62 27 OFFCURVE",
"65 35 CURVE SMOOTH",
"69 48 OFFCURVE",
"72 63 OFFCURVE",
"75 67 CURVE SMOOTH",
"79 75 OFFCURVE",
"83 92 OFFCURVE",
"84 100 CURVE",
"87 108 OFFCURVE",
"102 186 OFFCURVE",
"107 202 CURVE",
"111 221 LINE",
"113 231 LINE SMOOTH",
"115 240 OFFCURVE",
"119 243 OFFCURVE",
"124 242 CURVE",
"185 242 LINE SMOOTH",
"217 242 OFFCURVE",
"251 242 OFFCURVE",
"259 243 CURVE SMOOTH",
"266 243 OFFCURVE",
"285 244 OFFCURVE",
"302 245 CURVE SMOOTH",
"312 246 OFFCURVE",
"322 246 OFFCURVE",
"333 246 CURVE SMOOTH",
"340 246 OFFCURVE",
"342 246 OFFCURVE",
"349 230 CURVE",
"358 201 LINE SMOOTH",
"363 185 OFFCURVE",
"370 167 OFFCURVE",
"374 158 CURVE SMOOTH",
"382 142 OFFCURVE",
"392 105 OFFCURVE",
"395 90 CURVE SMOOTH",
"396 83 OFFCURVE",
"400 64 OFFCURVE",
"407 45 CURVE",
"410 34 OFFCURVE",
"413 22 OFFCURVE",
"418 9 CURVE SMOOTH",
"421 1 OFFCURVE",
"424 0 OFFCURVE",
"429 0 CURVE SMOOTH",
"485 0 LINE SMOOTH",
"500 0 OFFCURVE",
"497 3 OFFCURVE",
"493 14 CURVE SMOOTH"
);
},
{
closed = 1;
nodes = (
"286 311 OFFCURVE",
"231 313 OFFCURVE",
"218 310 CURVE",
"205 310 OFFCURVE",
"170 308 OFFCURVE",
"160 308 CURVE SMOOTH",
"150 308 OFFCURVE",
"126 304 OFFCURVE",
"134 325 CURVE SMOOTH",
"142 346 OFFCURVE",
"162 421 OFFCURVE",
"167 445 CURVE",
"175 469 OFFCURVE",
"200 559 OFFCURVE",
"205 581 CURVE",
"212 604 OFFCURVE",
"217 630 OFFCURVE",
"221 630 CURVE SMOOTH",
"226 630 OFFCURVE",
"236 595 OFFCURVE",
"241 577 CURVE",
"244 560 OFFCURVE",
"266 483 OFFCURVE",
"276 453 CURVE SMOOTH",
"287 423 OFFCURVE",
"304 358 OFFCURVE",
"312 340 CURVE",
"319 319 OFFCURVE",
"325 311 OFFCURVE",
"306 311 CURVE SMOOTH"
);
},
{
closed = 1;
nodes = (
"376 837 OFFCURVE",
"362 836 OFFCURVE",
"334 832 CURVE",
"326 832 OFFCURVE",
"311 829 OFFCURVE",
"299 825 CURVE SMOOTH",
"277 817 LINE",
"236 799 OFFCURVE",
"230 802 OFFCURVE",
"216 794 CURVE",
"206 791 OFFCURVE",
"168 776 OFFCURVE",
"166 769 CURVE SMOOTH",
"159 750 OFFCURVE",
"173 741 OFFCURVE",
"184 737 CURVE",
"204 725 OFFCURVE",
"213 731 OFFCURVE",
"237 739 CURVE",
"271 755 OFFCURVE",
"288 761 OFFCURVE",
"322 772 CURVE SMOOTH",
"333 775 OFFCURVE",
"366 789 OFFCURVE",
"371 806 CURVE"
);
}
);
width = 506;
}
);
unicode = 00C1;
},
{
color = 0;
glyphname = Abreve;
lastChange = "2013-12-03 23:06:54 -0500";
layers = (
{
layerId = UUID0;
name = Regular;
paths = (
{
closed = 1;
nodes = (
"488 27 OFFCURVE",
"461 91 OFFCURVE",
"453 123 CURVE SMOOTH",
"445 154 OFFCURVE",
"420 227 OFFCURVE",
"412 251 CURVE",
"401 276 OFFCURVE",
"366 374 OFFCURVE",
"358 394 CURVE",
"353 412 OFFCURVE",
"309 529 OFFCURVE",
"306 547 CURVE",
"301 563 OFFCURVE",
"281 644 OFFCURVE",
"270 670 CURVE SMOOTH",
"259 698 OFFCURVE",
"252 720 OFFCURVE",
"243 720 CURVE SMOOTH",
"224 720 OFFCURVE",
"216 700 OFFCURVE",
"208 672 CURVE",
"203 645 OFFCURVE",
"182 589 OFFCURVE",
"177 574 CURVE",
"170 559 OFFCURVE",
"163 533 OFFCURVE",
"154 504 CURVE",
"146 474 OFFCURVE",
"132 425 OFFCURVE",
"127 401 CURVE SMOOTH",
"122 378 OFFCURVE",
"108 337 OFFCURVE",
"101 306 CURVE",
"96 277 OFFCURVE",
"77 219 OFFCURVE",
"69 191 CURVE SMOOTH",
"61 164 OFFCURVE",
"53 134 OFFCURVE",
"50 118 CURVE SMOOTH",
"47 99 OFFCURVE",
"39 80 OFFCURVE",
"36 69 CURVE SMOOTH",
"27 32 LINE",
"24 25 OFFCURVE",
"24 21 OFFCURVE",
"23 18 CURVE SMOOTH",
"22 16 OFFCURVE",
"22 14 OFFCURVE",
"22 13 CURVE SMOOTH",
"19 4 OFFCURVE",
"20 0 OFFCURVE",
"27 0 CURVE SMOOTH",
"47 0 LINE SMOOTH",
"56 0 OFFCURVE",
"55 1 OFFCURVE",
"58 9 CURVE",
"60 18 OFFCURVE",
"62 27 OFFCURVE",
"65 35 CURVE SMOOTH",
"69 48 OFFCURVE",
"72 63 OFFCURVE",
"75 67 CURVE SMOOTH",
"79 75 OFFCURVE",
"83 92 OFFCURVE",
"84 100 CURVE",
"87 108 OFFCURVE",
"102 186 OFFCURVE",
"107 202 CURVE",
"111 221 LINE",
"113 231 LINE SMOOTH",
"115 240 OFFCURVE",
"119 243 OFFCURVE",
"124 242 CURVE",
"185 242 LINE SMOOTH",
"217 242 OFFCURVE",
"251 242 OFFCURVE",
"259 243 CURVE SMOOTH",
"266 243 OFFCURVE",
"285 244 OFFCURVE",
"302 245 CURVE SMOOTH",
"312 246 OFFCURVE",
"322 246 OFFCURVE",
"333 246 CURVE SMOOTH",
"340 246 OFFCURVE",
"342 246 OFFCURVE",
"349 230 CURVE",
"358 201 LINE SMOOTH",
"363 185 OFFCURVE",
"370 167 OFFCURVE",
"374 158 CURVE SMOOTH",
"382 142 OFFCURVE",
"392 105 OFFCURVE",
"395 90 CURVE SMOOTH",
"396 83 OFFCURVE",
"400 64 OFFCURVE",
"407 45 CURVE",
"410 34 OFFCURVE",
"413 22 OFFCURVE",
"418 9 CURVE SMOOTH",
"421 1 OFFCURVE",
"424 0 OFFCURVE",
"429 0 CURVE SMOOTH",
"485 0 LINE SMOOTH",
"500 0 OFFCURVE",
"497 3 OFFCURVE",
"493 14 CURVE SMOOTH"
);
},
{
closed = 1;
nodes = (
"286 311 OFFCURVE",
"231 313 OFFCURVE",
"218 310 CURVE",
"205 310 OFFCURVE",
"170 308 OFFCURVE",
"160 308 CURVE SMOOTH",
"150 308 OFFCURVE",
"126 304 OFFCURVE",
"134 325 CURVE SMOOTH",
"142 346 OFFCURVE",
"162 421 OFFCURVE",
"167 445 CURVE",
"175 469 OFFCURVE",
"200 559 OFFCURVE",
"205 581 CURVE",
"212 604 OFFCURVE",
"217 630 OFFCURVE",
"221 630 CURVE SMOOTH",
"226 630 OFFCURVE",
"236 595 OFFCURVE",
"241 577 CURVE",
"244 560 OFFCURVE",
"266 483 OFFCURVE",
"276 453 CURVE SMOOTH",
"287 423 OFFCURVE",
"304 358 OFFCURVE",
"312 340 CURVE",
"319 319 OFFCURVE",
"325 311 OFFCURVE",
"306 311 CURVE SMOOTH"
);
},
{
closed = 1;
nodes = (
"390 835 OFFCURVE",
"379 837 OFFCURVE",
"357 838 CURVE",
"341 837 OFFCURVE",
"332 834 OFFCURVE",
"330 831 CURVE",
"329 818 OFFCURVE",
"317 808 OFFCURVE",
"293 801 CURVE SMOOTH",
"270 795 OFFCURVE",
"249 792 OFFCURVE",
"232 792 CURVE",
"196 794 OFFCURVE",
"174 797 OFFCURVE",
"166 802 CURVE SMOOTH",
"159 807 OFFCURVE",
"153 816 OFFCURVE",
"150 829 CURVE",
"150 838 OFFCURVE",
"150 839 OFFCURVE",
"121 839 CURVE SMOOTH",
"93 839 OFFCURVE",
"92 839 OFFCURVE",
"92 836 CURVE SMOOTH",
"93 819 OFFCURVE",
"98 801 OFFCURVE",
"107 780 CURVE SMOOTH",
"112 769 OFFCURVE",
"121 760 OFFCURVE",
"134 753 CURVE SMOOTH",
"147 746 OFFCURVE",
"181 741 OFFCURVE",
"234 738 CURVE",
"281 738 OFFCURVE",
"313 742 OFFCURVE",
"330 751 CURVE SMOOTH",
"347 760 OFFCURVE",
"360 768 OFFCURVE",
"369 775 CURVE SMOOTH",
"389 790 OFFCURVE",
"390 824 OFFCURVE",
"390 832 CURVE SMOOTH"
);
}
);
width = 507;
}
);
unicode = 0102;
},
{
color = 0;
glyphname = Acircumflex;
lastChange = "2013-12-03 23:06:54 -0500";
layers = (
{
layerId = UUID0;
name = Regular;
paths = (
{
closed = 1;
nodes = (
"488 27 OFFCURVE",
"461 91 OFFCURVE",
"453 123 CURVE SMOOTH",
"445 154 OFFCURVE",
"420 227 OFFCURVE",
"412 251 CURVE",
"401 276 OFFCURVE",
"366 374 OFFCURVE",
"358 394 CURVE",
"353 412 OFFCURVE",
"309 529 OFFCURVE",
"306 547 CURVE",
"301 563 OFFCURVE",
"281 644 OFFCURVE",
"270 670 CURVE SMOOTH",
"259 698 OFFCURVE",
"252 720 OFFCURVE",
"243 720 CURVE SMOOTH",
"224 720 OFFCURVE",
"216 700 OFFCURVE",
"208 672 CURVE",
"203 645 OFFCURVE",
"182 589 OFFCURVE",
"177 574 CURVE",
"170 559 OFFCURVE",
"163 533 OFFCURVE",
"154 504 CURVE",
"146 474 OFFCURVE",
"132 425 OFFCURVE",
"127 401 CURVE SMOOTH",
"122 378 OFFCURVE",
"108 337 OFFCURVE",
"101 306 CURVE",
"96 277 OFFCURVE",
"77 219 OFFCURVE",
"69 191 CURVE SMOOTH",
"61 164 OFFCURVE",
"53 134 OFFCURVE",
"50 118 CURVE SMOOTH",
"47 99 OFFCURVE",
"39 80 OFFCURVE",
"36 69 CURVE SMOOTH",
"27 32 LINE",
"24 25 OFFCURVE",
"24 21 OFFCURVE",
"23 18 CURVE SMOOTH",
"22 16 OFFCURVE",
"22 14 OFFCURVE",
"22 13 CURVE SMOOTH",
"19 4 OFFCURVE",
"20 0 OFFCURVE",
"27 0 CURVE SMOOTH",
"47 0 LINE SMOOTH",
"56 0 OFFCURVE",
"55 1 OFFCURVE",
"58 9 CURVE",
"60 18 OFFCURVE",
"62 27 OFFCURVE",
"65 35 CURVE SMOOTH",
"69 48 OFFCURVE",
"72 63 OFFCURVE",
"75 67 CURVE SMOOTH",
"79 75 OFFCURVE",
"83 92 OFFCURVE",
"84 100 CURVE",
"87 108 OFFCURVE",
"102 186 OFFCURVE",
"107 202 CURVE",
"111 221 LINE",
"113 231 LINE SMOOTH",
"115 240 OFFCURVE",
"119 243 OFFCURVE",
"124 242 CURVE",
"185 242 LINE SMOOTH",
"217 242 OFFCURVE",
"251 242 OFFCURVE",
"259 243 CURVE SMOOTH",
"266 243 OFFCURVE",
"285 244 OFFCURVE",
"302 245 CURVE SMOOTH",
"312 246 OFFCURVE",
"322 246 OFFCURVE",
"333 246 CURVE SMOOTH",
"340 246 OFFCURVE",
"342 246 OFFCURVE",
"349 230 CURVE",
"358 201 LINE SMOOTH",
"363 185 OFFCURVE",
"370 167 OFFCURVE",
"374 158 CURVE SMOOTH",
"382 142 OFFCURVE",
"392 105 OFFCURVE",
"395 90 CURVE SMOOTH",
"396 83 OFFCURVE",
"400 64 OFFCURVE",
"407 45 CURVE",
"410 34 OFFCURVE",
"413 22 OFFCURVE",
"418 9 CURVE SMOOTH",
"421 1 OFFCURVE",
"424 0 OFFCURVE",
"429 0 CURVE SMOOTH",
"485 0 LINE SMOOTH",
"500 0 OFFCURVE",
"497 3 OFFCURVE",
"493 14 CURVE SMOOTH"
);
},
{
closed = 1;
nodes = (
"286 311 OFFCURVE",
"231 313 OFFCURVE",
"218 310 CURVE",
"205 310 OFFCURVE",
"170 308 OFFCURVE",
"160 308 CURVE SMOOTH",
"150 308 OFFCURVE",
"126 304 OFFCURVE",
"134 325 CURVE SMOOTH",
"142 346 OFFCURVE",
"162 421 OFFCURVE",
"167 445 CURVE",
"175 469 OFFCURVE",
"200 559 OFFCURVE",
"205 581 CURVE",
"212 604 OFFCURVE",
"217 630 OFFCURVE",
"221 630 CURVE SMOOTH",
"226 630 OFFCURVE",
"236 595 OFFCURVE",
"241 577 CURVE",
"244 560 OFFCURVE",
"266 483 OFFCURVE",
"276 453 CURVE SMOOTH",
"287 423 OFFCURVE",
"304 358 OFFCURVE",
"312 340 CURVE",
"319 319 OFFCURVE",
"325 311 OFFCURVE",
"306 311 CURVE SMOOTH"
);
},
{
closed = 1;
nodes = (
"387 759 OFFCURVE",
"358 775 OFFCURVE",
"350 780 CURVE SMOOTH",
"323 797 OFFCURVE",
"310 804 OFFCURVE",
"283 823 CURVE",
"263 834 OFFCURVE",
"257 840 OFFCURVE",
"234 837 CURVE SMOOTH",
"229 837 OFFCURVE",
"223 836 OFFCURVE",
"216 833 CURVE",
"205 830 OFFCURVE",
"187 820 OFFCURVE",
"164 807 CURVE",
"134 784 OFFCURVE",
"126 783 OFFCURVE",
"116 778 CURVE",
"89 761 LINE SMOOTH",
"76 752 OFFCURVE",
"81 733 OFFCURVE",
"106 733 CURVE SMOOTH",
"119 733 OFFCURVE",
"131 734 OFFCURVE",
"144 736 CURVE",
"172 744 OFFCURVE",
"186 749 OFFCURVE",
"201 757 CURVE",
"247 778 LINE",
"279 763 LINE",
"290 756 OFFCURVE",
"301 750 OFFCURVE",
"314 745 CURVE",
"341 738 LINE",
"365 729 OFFCURVE",
"379 725 OFFCURVE",
"384 746 CURVE SMOOTH"
);
}
);
width = 506;
}
);
unicode = 00C2;
},
{
color = 0;
glyphname = Adieresis;
lastChange = "2013-12-03 23:06:54 -0500";
layers = (
{
layerId = UUID0;
name = Regular;
paths = (
{
closed = 1;
nodes = (
"488 27 OFFCURVE",
"461 91 OFFCURVE",
"453 123 CURVE SMOOTH",
"445 154 OFFCURVE",
"420 227 OFFCURVE",
"412 251 CURVE",
"401 276 OFFCURVE",
"366 374 OFFCURVE",
"358 394 CURVE",
"353 412 OFFCURVE",
"309 529 OFFCURVE",
"306 547 CURVE",
"301 563 OFFCURVE",
"281 644 OFFCURVE",
"270 670 CURVE SMOOTH",
"259 698 OFFCURVE",
"252 720 OFFCURVE",
"243 720 CURVE SMOOTH",
"224 720 OFFCURVE",
"216 700 OFFCURVE",
"208 672 CURVE",
"203 645 OFFCURVE",
"182 589 OFFCURVE",
"177 574 CURVE",
"170 559 OFFCURVE",
"163 533 OFFCURVE",
"154 504 CURVE",
"146 474 OFFCURVE",
"132 425 OFFCURVE",
"127 401 CURVE SMOOTH",
"122 378 OFFCURVE",
"108 337 OFFCURVE",
"101 306 CURVE",
"96 277 OFFCURVE",
"77 219 OFFCURVE",
"69 191 CURVE SMOOTH",
"61 164 OFFCURVE",
"53 134 OFFCURVE",
"50 118 CURVE SMOOTH",
"47 99 OFFCURVE",
"39 80 OFFCURVE",
"36 69 CURVE SMOOTH",
"27 32 LINE",
"24 25 OFFCURVE",
"24 21 OFFCURVE",
"23 18 CURVE SMOOTH",
"22 16 OFFCURVE",
"22 14 OFFCURVE",
"22 13 CURVE SMOOTH",
"19 4 OFFCURVE",
"20 0 OFFCURVE",
"27 0 CURVE SMOOTH",
"47 0 LINE SMOOTH",
"56 0 OFFCURVE",
"55 1 OFFCURVE",
"58 9 CURVE",
"60 18 OFFCURVE",
"62 27 OFFCURVE",
"65 35 CURVE SMOOTH",
"69 48 OFFCURVE",
"72 63 OFFCURVE",
"75 67 CURVE SMOOTH",
"79 75 OFFCURVE",
"83 92 OFFCURVE",
"84 100 CURVE",
"87 108 OFFCURVE",
"102 186 OFFCURVE",
"107 202 CURVE",
"111 221 LINE",
"113 231 LINE SMOOTH",
"115 240 OFFCURVE",
"119 243 OFFCURVE",
"124 242 CURVE",
"185 242 LINE SMOOTH",
"217 242 OFFCURVE",
"251 242 OFFCURVE",
"259 243 CURVE SMOOTH",
"266 243 OFFCURVE",
"285 244 OFFCURVE",
"302 245 CURVE SMOOTH",
"312 246 OFFCURVE",
"322 246 OFFCURVE",
"333 246 CURVE SMOOTH",
"340 246 OFFCURVE",
"342 246 OFFCURVE",
"349 230 CURVE",
"358 201 LINE SMOOTH",
"363 185 OFFCURVE",
"370 167 OFFCURVE",
"374 158 CURVE SMOOTH",
"382 142 OFFCURVE",
"392 105 OFFCURVE",
"395 90 CURVE SMOOTH",
"396 83 OFFCURVE",
"400 64 OFFCURVE",
"407 45 CURVE",
"410 34 OFFCURVE",
"413 22 OFFCURVE",
"418 9 CURVE SMOOTH",
"421 1 OFFCURVE",
"424 0 OFFCURVE",
"429 0 CURVE SMOOTH",
"485 0 LINE SMOOTH",
"500 0 OFFCURVE",
"497 3 OFFCURVE",
"493 14 CURVE SMOOTH"
);
},
{
closed = 1;
nodes = (
"286 311 OFFCURVE",
"231 313 OFFCURVE",
"218 310 CURVE",
"205 310 OFFCURVE",
"170 308 OFFCURVE",
"160 308 CURVE SMOOTH",
"150 308 OFFCURVE",
"126 304 OFFCURVE",
"134 325 CURVE SMOOTH",
"142 346 OFFCURVE",
"162 421 OFFCURVE",
"167 445 CURVE",
"175 469 OFFCURVE",
"200 559 OFFCURVE",
"205 581 CURVE",
"212 604 OFFCURVE",
"217 630 OFFCURVE",
"221 630 CURVE SMOOTH",
"226 630 OFFCURVE",
"236 595 OFFCURVE",
"241 577 CURVE",
"244 560 OFFCURVE",
"266 483 OFFCURVE",
"276 453 CURVE SMOOTH",
"287 423 OFFCURVE",
"304 358 OFFCURVE",
"312 340 CURVE",
"319 319 OFFCURVE",
"325 311 OFFCURVE",
"306 311 CURVE SMOOTH"
);
},
{
closed = 1;
nodes = (
"197 817 OFFCURVE",
"162 833 OFFCURVE",
"131 833 CURVE SMOOTH",
"100 833 OFFCURVE",
"77 805 OFFCURVE",
"77 778 CURVE SMOOTH",
"77 742 OFFCURVE",
"108 720 OFFCURVE",
"135 720 CURVE SMOOTH",
"159 720 OFFCURVE",
"197 742 OFFCURVE",
"197 782 CURVE SMOOTH"
);
},
{
closed = 1;
nodes = (
"306 754 OFFCURVE",
"317 724 OFFCURVE",
"360 724 CURVE SMOOTH",
"403 724 OFFCURVE",
"423 751 OFFCURVE",
"423 778 CURVE SMOOTH",
"423 809 OFFCURVE",
"407 840 OFFCURVE",
"380 840 CURVE SMOOTH",
"353 840 OFFCURVE",
"306 833 OFFCURVE",
"306 778 CURVE SMOOTH"
);
}
);
width = 506;
}
);
unicode = 00C4;
},
{
color = 0;
glyphname = Agrave;
lastChange = "2013-12-03 23:06:54 -0500";
layers = (
{
layerId = UUID0;
name = Regular;
paths = (
{
closed = 1;
nodes = (
"488 27 OFFCURVE",
"461 91 OFFCURVE",
"453 123 CURVE SMOOTH",
"445 154 OFFCURVE",
"420 227 OFFCURVE",
"412 251 CURVE",
"401 276 OFFCURVE",
"366 374 OFFCURVE",
"358 394 CURVE",
"353 412 OFFCURVE",
"309 529 OFFCURVE",
"306 547 CURVE",
"301 563 OFFCURVE",
"281 644 OFFCURVE",
"270 670 CURVE SMOOTH",
"259 698 OFFCURVE",
"252 720 OFFCURVE",
"243 720 CURVE SMOOTH",
"224 720 OFFCURVE",
"216 700 OFFCURVE",
"208 672 CURVE",
"203 645 OFFCURVE",
"182 589 OFFCURVE",
"177 574 CURVE",
"170 559 OFFCURVE",
"163 533 OFFCURVE",
"154 504 CURVE",
"146 474 OFFCURVE",
"132 425 OFFCURVE",
"127 401 CURVE SMOOTH",
"122 378 OFFCURVE",
"108 337 OFFCURVE",
"101 306 CURVE",
"96 277 OFFCURVE",
"77 219 OFFCURVE",
"69 191 CURVE SMOOTH",
"61 164 OFFCURVE",
"53 134 OFFCURVE",
"50 118 CURVE SMOOTH",
"47 99 OFFCURVE",
"39 80 OFFCURVE",
"36 69 CURVE SMOOTH",
"27 32 LINE",
"24 25 OFFCURVE",
"24 21 OFFCURVE",
"23 18 CURVE SMOOTH",
"22 16 OFFCURVE",
"22 14 OFFCURVE",
"22 13 CURVE SMOOTH",
"19 4 OFFCURVE",
"20 0 OFFCURVE",
"27 0 CURVE SMOOTH",
"47 0 LINE SMOOTH",
"56 0 OFFCURVE",
"55 1 OFFCURVE",
"58 9 CURVE",
"60 18 OFFCURVE",
"62 27 OFFCURVE",
"65 35 CURVE SMOOTH",
"69 48 OFFCURVE",
"72 63 OFFCURVE",
"75 67 CURVE SMOOTH",
"79 75 OFFCURVE",
"83 92 OFFCURVE",
"84 100 CURVE",
"87 108 OFFCURVE",
"102 186 OFFCURVE",
"107 202 CURVE",
"111 221 LINE",
"113 231 LINE SMOOTH",
"115 240 OFFCURVE",
"119 243 OFFCURVE",
"124 242 CURVE",
"185 242 LINE SMOOTH",
"217 242 OFFCURVE",
"251 242 OFFCURVE",
"259 243 CURVE SMOOTH",
"266 243 OFFCURVE",
"285 244 OFFCURVE",
"302 245 CURVE SMOOTH",
"312 246 OFFCURVE",
"322 246 OFFCURVE",
"333 246 CURVE SMOOTH",
"340 246 OFFCURVE",
"342 246 OFFCURVE",
"349 230 CURVE",
"358 201 LINE SMOOTH",
"363 185 OFFCURVE",
"370 167 OFFCURVE",
"374 158 CURVE SMOOTH",
"382 142 OFFCURVE",
"392 105 OFFCURVE",
"395 90 CURVE SMOOTH",
"396 83 OFFCURVE",
"400 64 OFFCURVE",
"407 45 CURVE",
"410 34 OFFCURVE",
"413 22 OFFCURVE",
"418 9 CURVE SMOOTH",
"421 1 OFFCURVE",
"424 0 OFFCURVE",
"429 0 CURVE SMOOTH",
"485 0 LINE SMOOTH",
"500 0 OFFCURVE",
"497 3 OFFCURVE",
"493 14 CURVE SMOOTH"
);
},
{
closed = 1;
nodes = (
"286 311 OFFCURVE",
"231 313 OFFCURVE",
"218 310 CURVE",
"205 310 OFFCURVE",
"170 308 OFFCURVE",
"160 308 CURVE SMOOTH",
"150 308 OFFCURVE",
"126 304 OFFCURVE",
"134 325 CURVE SMOOTH",
"142 346 OFFCURVE",
"162 421 OFFCURVE",
"167 445 CURVE",
"175 469 OFFCURVE",
"200 559 OFFCURVE",
"205 581 CURVE",
"212 604 OFFCURVE",
"217 630 OFFCURVE",
"221 630 CURVE SMOOTH",
"226 630 OFFCURVE",
"236 595 OFFCURVE",
"241 577 CURVE",
"244 560 OFFCURVE",
"266 483 OFFCURVE",
"276 453 CURVE SMOOTH",
"287 423 OFFCURVE",
"304 358 OFFCURVE",
"312 340 CURVE",
"319 319 OFFCURVE",
"325 311 OFFCURVE",
"306 311 CURVE SMOOTH"
);
},
{
closed = 1;
nodes = (
"320 794 OFFCURVE",
"286 803 OFFCURVE",
"275 808 CURVE",
"240 816 OFFCURVE",
"224 822 OFFCURVE",
"189 837 CURVE",
"165 845 OFFCURVE",
"155 849 OFFCURVE",
"136 837 CURVE",
"125 832 OFFCURVE",
"111 823 OFFCURVE",
"120 804 CURVE SMOOTH",
"123 796 OFFCURVE",
"159 784 OFFCURVE",
"170 781 CURVE",
"183 773 OFFCURVE",
"192 778 OFFCURVE",
"232 760 CURVE",
"254 752 LINE",
"267 749 OFFCURVE",
"281 747 OFFCURVE",
"289 748 CURVE",
"317 745 OFFCURVE",
"332 744 OFFCURVE",
"325 775 CURVE SMOOTH"
);
}
);
width = 506;
}
);
unicode = 00C0;
},
{
color = 0;
glyphname = Amacron;
lastChange = "2013-12-03 23:06:54 -0500";
layers = (
{
layerId = UUID0;
name = Regular;
paths = (
{
closed = 1;
nodes = (
"488 27 OFFCURVE",
"461 91 OFFCURVE",
"453 123 CURVE SMOOTH",
"445 154 OFFCURVE",
"420 227 OFFCURVE",
"412 251 CURVE",
"401 276 OFFCURVE",
"366 374 OFFCURVE",
"358 394 CURVE",
"353 412 OFFCURVE",
"309 529 OFFCURVE",
"306 547 CURVE",
"301 563 OFFCURVE",
"281 644 OFFCURVE",
"270 670 CURVE SMOOTH",
"259 698 OFFCURVE",
"252 720 OFFCURVE",
"243 720 CURVE SMOOTH",
"224 720 OFFCURVE",
"216 700 OFFCURVE",
"208 672 CURVE",
"203 645 OFFCURVE",
"182 589 OFFCURVE",
"177 574 CURVE",
"170 559 OFFCURVE",
"163 533 OFFCURVE",
"154 504 CURVE",
"146 474 OFFCURVE",
"132 425 OFFCURVE",
"127 401 CURVE SMOOTH",
"122 378 OFFCURVE",
"108 337 OFFCURVE",
"101 306 CURVE",
"96 277 OFFCURVE",
"77 219 OFFCURVE",
"69 191 CURVE SMOOTH",
"61 164 OFFCURVE",
"53 134 OFFCURVE",
"50 118 CURVE SMOOTH",
"47 99 OFFCURVE",
"39 80 OFFCURVE",
"36 69 CURVE SMOOTH",
"27 32 LINE",
"24 25 OFFCURVE",
"24 21 OFFCURVE",
"23 18 CURVE SMOOTH",
"22 16 OFFCURVE",
"22 14 OFFCURVE",
"22 13 CURVE SMOOTH",
"19 4 OFFCURVE",
"20 0 OFFCURVE",
"27 0 CURVE SMOOTH",
"47 0 LINE SMOOTH",
"56 0 OFFCURVE",
"55 1 OFFCURVE",
"58 9 CURVE",
"60 18 OFFCURVE",
"62 27 OFFCURVE",
"65 35 CURVE SMOOTH",
"69 48 OFFCURVE",
"72 63 OFFCURVE",
"75 67 CURVE SMOOTH",
"79 75 OFFCURVE",
"83 92 OFFCURVE",
"84 100 CURVE",
"87 108 OFFCURVE",
"102 186 OFFCURVE",
"107 202 CURVE",
"111 221 LINE",
"113 231 LINE SMOOTH",
"115 240 OFFCURVE",
"119 243 OFFCURVE",
"124 242 CURVE",
"185 242 LINE SMOOTH",
"217 242 OFFCURVE",
"251 242 OFFCURVE",
"259 243 CURVE SMOOTH",
"266 243 OFFCURVE",
"285 244 OFFCURVE",
"302 245 CURVE SMOOTH",
"312 246 OFFCURVE",
"322 246 OFFCURVE",
"333 246 CURVE SMOOTH",
"340 246 OFFCURVE",
"342 246 OFFCURVE",
"349 230 CURVE",
"358 201 LINE SMOOTH",
"363 185 OFFCURVE",
"370 167 OFFCURVE",
"374 158 CURVE SMOOTH",
"382 142 OFFCURVE",
"392 105 OFFCURVE",
"395 90 CURVE SMOOTH",
"396 83 OFFCURVE",
"400 64 OFFCURVE",
"407 45 CURVE",
"410 34 OFFCURVE",
"413 22 OFFCURVE",
"418 9 CURVE SMOOTH",
"421 1 OFFCURVE",
"424 0 OFFCURVE",
"429 0 CURVE SMOOTH",
"485 0 LINE SMOOTH",
"500 0 OFFCURVE",
"497 3 OFFCURVE",
"493 14 CURVE SMOOTH"
);
},
{
closed = 1;
nodes = (
"286 311 OFFCURVE",
"231 313 OFFCURVE",
"218 310 CURVE",
"205 310 OFFCURVE",
"170 308 OFFCURVE",
"160 308 CURVE SMOOTH",
"150 308 OFFCURVE",
"126 304 OFFCURVE",
"134 325 CURVE SMOOTH",
"142 346 OFFCURVE",
"162 421 OFFCURVE",
"167 445 CURVE",
"175 469 OFFCURVE",
"200 559 OFFCURVE",
"205 581 CURVE",
"212 604 OFFCURVE",
"217 630 OFFCURVE",
"221 630 CURVE SMOOTH",
"226 630 OFFCURVE",
"236 595 OFFCURVE",
"241 577 CURVE",
"244 560 OFFCURVE",
"266 483 OFFCURVE",
"276 453 CURVE SMOOTH",
"287 423 OFFCURVE",
"304 358 OFFCURVE",
"312 340 CURVE",
"319 319 OFFCURVE",
"325 311 OFFCURVE",
"306 311 CURVE SMOOTH"
);
},
{
closed = 1;
nodes = (
"262 831 LINE",
"136 831 LINE",
"104 831 LINE SMOOTH",
"95 831 OFFCURVE",
"93 825 OFFCURVE",
"93 812 CURVE SMOOTH",
"93 785 LINE SMOOTH",
"93 778 OFFCURVE",
"93 772 OFFCURVE",
"101 772 CURVE",
"106 775 OFFCURVE",
"144 775 OFFCURVE",
"152 775 CURVE SMOOTH",
"284 775 LINE SMOOTH",
"308 775 OFFCURVE",
"350 772 OFFCURVE",
"368 772 CURVE SMOOTH",
"387 772 OFFCURVE",
"390 776 OFFCURVE",
"390 785 CURVE SMOOTH",
"390 815 LINE SMOOTH",
"390 826 OFFCURVE",
"390 834 OFFCURVE",
"372 831 CURVE"
);
}
);
width = 507;
}
);
unicode = 0100;
},
{
color = 0;
glyphname = Aogonek;
lastChange = "2013-12-03 23:06:54 -0500";
layers = (
{
layerId = UUID0;
name = Regular;
paths = (
{
closed = 1;
nodes = (
"488 27 OFFCURVE",
"461 91 OFFCURVE",
"453 123 CURVE SMOOTH",
"445 154 OFFCURVE",
"420 227 OFFCURVE",
"412 251 CURVE",
"401 276 OFFCURVE",
"366 374 OFFCURVE",
"358 394 CURVE",
"353 412 OFFCURVE",
"309 529 OFFCURVE",
"306 547 CURVE",
"301 563 OFFCURVE",
"281 644 OFFCURVE",
"270 670 CURVE SMOOTH",
"259 698 OFFCURVE",
"252 720 OFFCURVE",
"243 720 CURVE SMOOTH",
"224 720 OFFCURVE",
"216 700 OFFCURVE",
"208 672 CURVE",
"203 645 OFFCURVE",
"182 589 OFFCURVE",
"177 574 CURVE",
"170 559 OFFCURVE",
"163 533 OFFCURVE",
"154 504 CURVE",
"146 474 OFFCURVE",
"132 425 OFFCURVE",
"127 401 CURVE SMOOTH",
"122 378 OFFCURVE",
"108 337 OFFCURVE",
"101 306 CURVE",
"96 277 OFFCURVE",
"77 219 OFFCURVE",
"69 191 CURVE SMOOTH",
"61 164 OFFCURVE",
"53 134 OFFCURVE",
"50 118 CURVE SMOOTH",
"47 99 OFFCURVE",
"39 80 OFFCURVE",
"36 69 CURVE SMOOTH",
"27 32 LINE",
"24 25 OFFCURVE",
"24 21 OFFCURVE",
"23 18 CURVE SMOOTH",
"22 16 OFFCURVE",
"22 14 OFFCURVE",
"22 13 CURVE SMOOTH",
"19 4 OFFCURVE",
"20 0 OFFCURVE",
"27 0 CURVE SMOOTH",
"47 0 LINE SMOOTH",
"56 0 OFFCURVE",
"55 1 OFFCURVE",
"58 9 CURVE",
"60 18 OFFCURVE",
"62 27 OFFCURVE",
"65 35 CURVE SMOOTH",
"69 48 OFFCURVE",
"72 63 OFFCURVE",
"75 67 CURVE SMOOTH",
"79 75 OFFCURVE",
"83 92 OFFCURVE",
"84 100 CURVE",
"87 108 OFFCURVE",
"102 186 OFFCURVE",
"107 202 CURVE",
"111 221 LINE",
"113 231 LINE SMOOTH",
"115 240 OFFCURVE",
"119 243 OFFCURVE",
"124 242 CURVE",
"185 242 LINE SMOOTH",
"217 242 OFFCURVE",
"251 242 OFFCURVE",
"259 243 CURVE SMOOTH",
"266 243 OFFCURVE",
"285 244 OFFCURVE",
"302 245 CURVE SMOOTH",
"312 246 OFFCURVE",
"322 246 OFFCURVE",
"333 246 CURVE SMOOTH",
"340 246 OFFCURVE",
"342 246 OFFCURVE",
"349 230 CURVE",
"358 201 LINE SMOOTH",
"363 185 OFFCURVE",
"370 167 OFFCURVE",
"374 158 CURVE SMOOTH",
"382 142 OFFCURVE",
"392 105 OFFCURVE",
"395 90 CURVE SMOOTH",
"396 83 OFFCURVE",
"400 64 OFFCURVE",
"407 45 CURVE",
"410 34 OFFCURVE",
"413 22 OFFCURVE",
"418 9 CURVE SMOOTH",
"421 1 OFFCURVE",
"424 0 OFFCURVE",
"429 0 CURVE SMOOTH",
"485 0 LINE SMOOTH",
"500 0 OFFCURVE",
"497 3 OFFCURVE",
"493 14 CURVE SMOOTH"
);
},
{
closed = 1;
nodes = (
"286 311 OFFCURVE",
"231 313 OFFCURVE",
"218 310 CURVE",
"205 310 OFFCURVE",
"170 308 OFFCURVE",
"160 308 CURVE SMOOTH",
"150 308 OFFCURVE",
"126 304 OFFCURVE",
"134 325 CURVE SMOOTH",
"142 346 OFFCURVE",
"162 421 OFFCURVE",
"167 445 CURVE",
"175 469 OFFCURVE",
"200 559 OFFCURVE",
"205 581 CURVE",
"212 604 OFFCURVE",
"217 630 OFFCURVE",
"221 630 CURVE SMOOTH",
"226 630 OFFCURVE",
"236 595 OFFCURVE",
"241 577 CURVE",
"244 560 OFFCURVE",
"266 483 OFFCURVE",
"276 453 CURVE SMOOTH",
"287 423 OFFCURVE",
"304 358 OFFCURVE",
"312 340 CURVE",
"319 319 OFFCURVE",
"325 311 OFFCURVE",
"306 311 CURVE SMOOTH"
);
},
{
closed = 1;
nodes = (
"441 38 LINE",
"426 14 OFFCURVE",
"417 -1 OFFCURVE",
"414 -8 CURVE SMOOTH",
"411 -15 OFFCURVE",
"406 -27 OFFCURVE",
"400 -45 CURVE SMOOTH",
"394 -63 OFFCURVE",
"391 -78 OFFCURVE",
"391 -91 CURVE SMOOTH",
"394 -158 OFFCURVE",
"424 -172 OFFCURVE",
"473 -171 CURVE",
"509 -169 OFFCURVE",
"581 -126 OFFCURVE",
"581 -99 CURVE SMOOTH",
"581 -88 OFFCURVE",
"566 -71 OFFCURVE",
"558 -75 CURVE SMOOTH",
"550 -79 OFFCURVE",
"537 -101 OFFCURVE",
"482 -97 CURVE SMOOTH",
"465 -96 OFFCURVE",
"460 -73 OFFCURVE",
"463 -38 CURVE",
"467 -5 OFFCURVE",
"473 8 OFFCURVE",
"462 24 CURVE"
);
}
);
width = 507;
}
);
unicode = 0104;
},
{
color = 0;
glyphname = Aring;
lastChange = "2013-12-03 23:06:54 -0500";
layers = (
{
layerId = UUID0;
name = Regular;
paths = (
{
closed = 1;
nodes = (
"488 27 OFFCURVE",
"461 91 OFFCURVE",
"453 123 CURVE SMOOTH",
"445 154 OFFCURVE",
"420 227 OFFCURVE",
"412 251 CURVE",
"401 276 OFFCURVE",
"366 374 OFFCURVE",
"358 394 CURVE",
"353 412 OFFCURVE",
"309 529 OFFCURVE",
"306 547 CURVE",
"301 563 OFFCURVE",
"281 644 OFFCURVE",
"270 670 CURVE SMOOTH",
"259 698 OFFCURVE",
"252 720 OFFCURVE",
"243 720 CURVE SMOOTH",
"224 720 OFFCURVE",
"216 700 OFFCURVE",
"208 672 CURVE",
"203 645 OFFCURVE",
"182 589 OFFCURVE",
"177 574 CURVE",
"170 559 OFFCURVE",
"163 533 OFFCURVE",
"154 504 CURVE",
"146 474 OFFCURVE",
"132 425 OFFCURVE",
"127 401 CURVE SMOOTH",
"122 378 OFFCURVE",
"108 337 OFFCURVE",
"101 306 CURVE",
"96 277 OFFCURVE",
"77 219 OFFCURVE",
"69 191 CURVE SMOOTH",
"61 164 OFFCURVE",
"53 134 OFFCURVE",
"50 118 CURVE SMOOTH",
"47 99 OFFCURVE",
"39 80 OFFCURVE",
"36 69 CURVE SMOOTH",
"27 32 LINE",
"24 25 OFFCURVE",
"24 21 OFFCURVE",
"23 18 CURVE SMOOTH",
"22 16 OFFCURVE",
"22 14 OFFCURVE",
"22 13 CURVE SMOOTH",
"19 4 OFFCURVE",
"20 0 OFFCURVE",
"27 0 CURVE SMOOTH",
"47 0 LINE SMOOTH",
"56 0 OFFCURVE",
"55 1 OFFCURVE",
"58 9 CURVE",
"60 18 OFFCURVE",
"62 27 OFFCURVE",
"65 35 CURVE SMOOTH",
"69 48 OFFCURVE",
"72 63 OFFCURVE",
"75 67 CURVE SMOOTH",
"79 75 OFFCURVE",
"83 92 OFFCURVE",
"84 100 CURVE",
"87 108 OFFCURVE",
"102 186 OFFCURVE",
"107 202 CURVE",
"111 221 LINE",
"113 231 LINE SMOOTH",
"115 240 OFFCURVE",
"119 243 OFFCURVE",
"124 242 CURVE",
"185 242 LINE SMOOTH",
"217 242 OFFCURVE",
"251 242 OFFCURVE",
"259 243 CURVE SMOOTH",
"266 243 OFFCURVE",
"285 244 OFFCURVE",
"302 245 CURVE SMOOTH",
"312 246 OFFCURVE",
"322 246 OFFCURVE",
"333 246 CURVE SMOOTH",
"340 246 OFFCURVE",
"342 246 OFFCURVE",
"349 230 CURVE",
"358 201 LINE SMOOTH",
"363 185 OFFCURVE",
"370 167 OFFCURVE",
"374 158 CURVE SMOOTH",
"382 142 OFFCURVE",
"392 105 OFFCURVE",
"395 90 CURVE SMOOTH",
"396 83 OFFCURVE",
"400 64 OFFCURVE",
"407 45 CURVE",
"410 34 OFFCURVE",
"413 22 OFFCURVE",
"418 9 CURVE SMOOTH",
"421 1 OFFCURVE",
"424 0 OFFCURVE",
"429 0 CURVE SMOOTH",
"485 0 LINE SMOOTH",
"500 0 OFFCURVE",
"497 3 OFFCURVE",
"493 14 CURVE SMOOTH"
);
},
{
closed = 1;
nodes = (
"286 311 OFFCURVE",
"231 313 OFFCURVE",
"218 310 CURVE",
"205 310 OFFCURVE",
"170 308 OFFCURVE",
"160 308 CURVE SMOOTH",
"150 308 OFFCURVE",
"126 304 OFFCURVE",
"134 325 CURVE SMOOTH",
"142 346 OFFCURVE",
"162 421 OFFCURVE",
"167 445 CURVE",
"175 469 OFFCURVE",
"200 559 OFFCURVE",
"205 581 CURVE",
"212 604 OFFCURVE",
"217 630 OFFCURVE",
"221 630 CURVE SMOOTH",
"226 630 OFFCURVE",
"236 595 OFFCURVE",
"241 577 CURVE",
"244 560 OFFCURVE",
"266 483 OFFCURVE",
"276 453 CURVE SMOOTH",
"287 423 OFFCURVE",
"304 358 OFFCURVE",
"312 340 CURVE",
"319 319 OFFCURVE",
"325 311 OFFCURVE",
"306 311 CURVE SMOOTH"
);
},
{
closed = 1;
nodes = (
"317 718 OFFCURVE",
"326 758 OFFCURVE",
"326 768 CURVE SMOOTH",
"326 781 OFFCURVE",
"320 840 OFFCURVE",
"248 840 CURVE SMOOTH",
"213 840 OFFCURVE",
"194 822 OFFCURVE",
"186 802 CURVE SMOOTH",
"181 791 OFFCURVE",
"177 778 OFFCURVE",
"176 764 CURVE",
"176 727 OFFCURVE",
"211 696 OFFCURVE",
"246 696 CURVE SMOOTH",
"259 696 OFFCURVE",
"272 696 OFFCURVE",
"283 701 CURVE SMOOTH"
);
},
{
closed = 1;
nodes = (
"269 790 OFFCURVE",
"278 778 OFFCURVE",
"278 768 CURVE SMOOTH",
"278 753 OFFCURVE",
"264 750 OFFCURVE",
"261 747 CURVE",
"260 747 OFFCURVE",
"255 746 OFFCURVE",
"250 746 CURVE SMOOTH",
"237 746 OFFCURVE",
"225 756 OFFCURVE",
"225 768 CURVE SMOOTH",
"225 779 OFFCURVE",
"234 790 OFFCURVE",
"253 790 CURVE SMOOTH"
);
}
);
width = 506;
}
);
unicode = 00C5;
},
{
color = 0;
glyphname = Aringacute;
lastChange = "2013-12-03 23:06:54 -0500";
layers = (
{
layerId = UUID0;
name = Regular;
paths = (
{
closed = 1;
nodes = (
"488 27 OFFCURVE",
"461 91 OFFCURVE",
"453 123 CURVE SMOOTH",
"445 154 OFFCURVE",
"420 227 OFFCURVE",
"412 251 CURVE",
"401 276 OFFCURVE",
"366 374 OFFCURVE",
"358 394 CURVE",
"353 412 OFFCURVE",
"309 529 OFFCURVE",
"306 547 CURVE",
"301 563 OFFCURVE",
"281 644 OFFCURVE",
"270 670 CURVE SMOOTH",
"259 698 OFFCURVE",
"252 720 OFFCURVE",
"243 720 CURVE SMOOTH",
"224 720 OFFCURVE",
"216 700 OFFCURVE",
"208 672 CURVE",
"203 645 OFFCURVE",
"182 589 OFFCURVE",
"177 574 CURVE",
"170 559 OFFCURVE",
"163 533 OFFCURVE",
"154 504 CURVE",
"146 474 OFFCURVE",
"132 425 OFFCURVE",
"127 401 CURVE SMOOTH",
"122 378 OFFCURVE",
"108 337 OFFCURVE",
"101 306 CURVE",
"96 277 OFFCURVE",
"77 219 OFFCURVE",
"69 191 CURVE SMOOTH",
"61 164 OFFCURVE",
"53 134 OFFCURVE",
"50 118 CURVE SMOOTH",
"47 99 OFFCURVE",
"39 80 OFFCURVE",
"36 69 CURVE SMOOTH",
"27 32 LINE",
"24 25 OFFCURVE",
"24 21 OFFCURVE",
"23 18 CURVE SMOOTH",
"22 16 OFFCURVE",
"22 14 OFFCURVE",
"22 13 CURVE SMOOTH",
"19 4 OFFCURVE",
"20 0 OFFCURVE",
"27 0 CURVE SMOOTH",
"47 0 LINE SMOOTH",
"56 0 OFFCURVE",
"55 1 OFFCURVE",
"58 9 CURVE",
"60 18 OFFCURVE",
"62 27 OFFCURVE",
"65 35 CURVE SMOOTH",
"69 48 OFFCURVE",
"72 63 OFFCURVE",
"75 67 CURVE SMOOTH",
"79 75 OFFCURVE",
"83 92 OFFCURVE",
"84 100 CURVE",
"87 108 OFFCURVE",
"102 186 OFFCURVE",
"107 202 CURVE",
"111 221 LINE",
"113 231 LINE SMOOTH",
"115 240 OFFCURVE",
"119 243 OFFCURVE",
"124 242 CURVE",
"185 242 LINE SMOOTH",
"217 242 OFFCURVE",
"251 242 OFFCURVE",
"259 243 CURVE SMOOTH",
"266 243 OFFCURVE",
"285 244 OFFCURVE",
"302 245 CURVE SMOOTH",
"312 246 OFFCURVE",
"322 246 OFFCURVE",
"333 246 CURVE SMOOTH",
"340 246 OFFCURVE",
"342 246 OFFCURVE",
"349 230 CURVE",
"358 201 LINE SMOOTH",
"363 185 OFFCURVE",
"370 167 OFFCURVE",
"374 158 CURVE SMOOTH",
"382 142 OFFCURVE",
"392 105 OFFCURVE",
"395 90 CURVE SMOOTH",
"396 83 OFFCURVE",
"400 64 OFFCURVE",
"407 45 CURVE",
"410 34 OFFCURVE",
"413 22 OFFCURVE",
"418 9 CURVE SMOOTH",
"421 1 OFFCURVE",
"424 0 OFFCURVE",
"429 0 CURVE SMOOTH",
"485 0 LINE SMOOTH",
"500 0 OFFCURVE",
"497 3 OFFCURVE",
"493 14 CURVE SMOOTH"
);
},
{
closed = 1;
nodes = (
"286 311 OFFCURVE",
"231 313 OFFCURVE",
"218 310 CURVE",
"205 310 OFFCURVE",
"170 308 OFFCURVE",
"160 308 CURVE SMOOTH",
"150 308 OFFCURVE",
"126 304 OFFCURVE",
"134 325 CURVE SMOOTH",
"142 346 OFFCURVE",
"162 421 OFFCURVE",
"167 445 CURVE",
"175 469 OFFCURVE",
"200 559 OFFCURVE",
"205 581 CURVE",
"212 604 OFFCURVE",
"217 630 OFFCURVE",
"221 630 CURVE SMOOTH",
"226 630 OFFCURVE",
"236 595 OFFCURVE",
"241 577 CURVE",
"244 560 OFFCURVE",
"266 483 OFFCURVE",
"276 453 CURVE SMOOTH",
"287 423 OFFCURVE",
"304 358 OFFCURVE",
"312 340 CURVE",
"319 319 OFFCURVE",
"325 311 OFFCURVE",
"306 311 CURVE SMOOTH"
);
},
{
closed = 1;
nodes = (
"331 883 OFFCURVE",
"317 882 OFFCURVE",
"289 878 CURVE",
"281 878 OFFCURVE",
"266 875 OFFCURVE",
"254 871 CURVE SMOOTH",
"232 863 LINE",
"191 845 OFFCURVE",
"185 848 OFFCURVE",
"171 840 CURVE",
"161 837 OFFCURVE",
"123 822 OFFCURVE",
"121 815 CURVE SMOOTH",
"114 796 OFFCURVE",
"128 787 OFFCURVE",
"139 783 CURVE",
"159 771 OFFCURVE",
"168 777 OFFCURVE",
"192 785 CURVE",
"226 801 OFFCURVE",
"243 807 OFFCURVE",
"277 818 CURVE SMOOTH",
"288 821 OFFCURVE",
"321 835 OFFCURVE",
"326 852 CURVE"
);
},
{
closed = 1;
nodes = (
"305 718 OFFCURVE",
"314 758 OFFCURVE",
"314 768 CURVE SMOOTH",
"314 781 OFFCURVE",
"308 840 OFFCURVE",
"236 840 CURVE SMOOTH",
"201 840 OFFCURVE",
"182 822 OFFCURVE",
"174 802 CURVE SMOOTH",
"169 791 OFFCURVE",
"165 778 OFFCURVE",
"164 764 CURVE",
"164 727 OFFCURVE",
"199 696 OFFCURVE",
"234 696 CURVE SMOOTH",
"247 696 OFFCURVE",
"260 696 OFFCURVE",
"271 701 CURVE SMOOTH"
);
},
{
closed = 1;
nodes = (
"257 790 OFFCURVE",
"266 778 OFFCURVE",
"266 768 CURVE SMOOTH",
"266 753 OFFCURVE",
"252 750 OFFCURVE",
"249 747 CURVE",
"248 747 OFFCURVE",
"243 746 OFFCURVE",
"238 746 CURVE SMOOTH",
"225 746 OFFCURVE",
"213 756 OFFCURVE",
"213 768 CURVE SMOOTH",
"213 779 OFFCURVE",
"222 790 OFFCURVE",
"241 790 CURVE SMOOTH"
);
}
);
width = 507;
}
);
unicode = 01FA;
},
{
color = 0;
glyphname = Atilde;
lastChange = "2013-12-03 23:06:54 -0500";
layers = (
{
layerId = UUID0;
name = Regular;
paths = (
{
closed = 1;
nodes = (
"488 27 OFFCURVE",
"461 91 OFFCURVE",
"453 123 CURVE SMOOTH",
"445 154 OFFCURVE",
"420 227 OFFCURVE",
"412 251 CURVE",
"401 276 OFFCURVE",
"366 374 OFFCURVE",
"358 394 CURVE",
"353 412 OFFCURVE",
"309 529 OFFCURVE",
"306 547 CURVE",
"301 563 OFFCURVE",
"281 644 OFFCURVE",
"270 670 CURVE SMOOTH",
"259 698 OFFCURVE",
"252 720 OFFCURVE",
"243 720 CURVE SMOOTH",
"224 720 OFFCURVE",
"216 700 OFFCURVE",
"208 672 CURVE",
"203 645 OFFCURVE",
"182 589 OFFCURVE",
"177 574 CURVE",
"170 559 OFFCURVE",
"163 533 OFFCURVE",
"154 504 CURVE",
"146 474 OFFCURVE",
"132 425 OFFCURVE",
"127 401 CURVE SMOOTH",
"122 378 OFFCURVE",
"108 337 OFFCURVE",
"101 306 CURVE",
"96 277 OFFCURVE",
"77 219 OFFCURVE",
"69 191 CURVE SMOOTH",
"61 164 OFFCURVE",
"53 134 OFFCURVE",
"50 118 CURVE SMOOTH",
"47 99 OFFCURVE",
"39 80 OFFCURVE",
"36 69 CURVE SMOOTH",
"27 32 LINE",
"24 25 OFFCURVE",
"24 21 OFFCURVE",
"23 18 CURVE SMOOTH",
"22 16 OFFCURVE",
"22 14 OFFCURVE",
"22 13 CURVE SMOOTH",
"19 4 OFFCURVE",
"20 0 OFFCURVE",
"27 0 CURVE SMOOTH",
"47 0 LINE SMOOTH",
"56 0 OFFCURVE",
"55 1 OFFCURVE",
"58 9 CURVE",
"60 18 OFFCURVE",
"62 27 OFFCURVE",
"65 35 CURVE SMOOTH",
"69 48 OFFCURVE",
"72 63 OFFCURVE",
"75 67 CURVE SMOOTH",
"79 75 OFFCURVE",
"83 92 OFFCURVE",
"84 100 CURVE",
"87 108 OFFCURVE",
"102 186 OFFCURVE",
"107 202 CURVE",
"111 221 LINE",
"113 231 LINE SMOOTH",
"115 240 OFFCURVE",
"119 243 OFFCURVE",
"124 242 CURVE",
"185 242 LINE SMOOTH",
"217 242 OFFCURVE",
"251 242 OFFCURVE",
"259 243 CURVE SMOOTH",
"266 243 OFFCURVE",
"285 244 OFFCURVE",
"302 245 CURVE SMOOTH",
"312 246 OFFCURVE",
"322 246 OFFCURVE",
"333 246 CURVE SMOOTH",
"340 246 OFFCURVE",
"342 246 OFFCURVE",
"349 230 CURVE",
"358 201 LINE SMOOTH",
"363 185 OFFCURVE",
"370 167 OFFCURVE",
"374 158 CURVE SMOOTH",
"382 142 OFFCURVE",
"392 105 OFFCURVE",
"395 90 CURVE SMOOTH",
"396 83 OFFCURVE",
"400 64 OFFCURVE",
"407 45 CURVE",
"410 34 OFFCURVE",
"413 22 OFFCURVE",
"418 9 CURVE SMOOTH",
"421 1 OFFCURVE",
"424 0 OFFCURVE",
"429 0 CURVE SMOOTH",
"485 0 LINE SMOOTH",
"500 0 OFFCURVE",
"497 3 OFFCURVE",
"493 14 CURVE SMOOTH"
);
},
{
closed = 1;
nodes = (
"286 311 OFFCURVE",
"231 313 OFFCURVE",
"218 310 CURVE",
"205 310 OFFCURVE",
"170 308 OFFCURVE",
"160 308 CURVE SMOOTH",
"150 308 OFFCURVE",
"126 304 OFFCURVE",
"134 325 CURVE SMOOTH",
"142 346 OFFCURVE",
"162 421 OFFCURVE",
"167 445 CURVE",
"175 469 OFFCURVE",
"200 559 OFFCURVE",
"205 581 CURVE",
"212 604 OFFCURVE",
"217 630 OFFCURVE",
"221 630 CURVE SMOOTH",
"226 630 OFFCURVE",
"236 595 OFFCURVE",
"241 577 CURVE",
"244 560 OFFCURVE",
"266 483 OFFCURVE",
"276 453 CURVE SMOOTH",
"287 423 OFFCURVE",
"304 358 OFFCURVE",
"312 340 CURVE",
"319 319 OFFCURVE",
"325 311 OFFCURVE",
"306 311 CURVE SMOOTH"
);
},
{
closed = 1;
nodes = (
"80 823 OFFCURVE",
"64 836 OFFCURVE",
"61 823 CURVE SMOOTH",
"58 811 OFFCURVE",
"59 795 OFFCURVE",
"59 787 CURVE SMOOTH",
"59 778 OFFCURVE",
"64 764 OFFCURVE",
"125 764 CURVE SMOOTH",
"164 764 OFFCURVE",
"180 769 OFFCURVE",
"215 772 CURVE SMOOTH",
"250 775 OFFCURVE",
"273 782 OFFCURVE",
"320 783 CURVE SMOOTH",
"344 783 OFFCURVE",
"367 771 OFFCURVE",
"386 771 CURVE SMOOTH",
"401 771 OFFCURVE",
"409 776 OFFCURVE",
"409 787 CURVE SMOOTH",
"409 802 LINE",
"407 810 OFFCURVE",
"418 825 OFFCURVE",
"380 827 CURVE",
"361 830 OFFCURVE",
"340 831 OFFCURVE",
"316 831 CURVE SMOOTH",
"264 831 OFFCURVE",
"225 828 OFFCURVE",
"197 823 CURVE SMOOTH",
"169 818 OFFCURVE",
"153 814 OFFCURVE",
"125 814 CURVE"
);
}
);
width = 506;
}
);
unicode = 00C3;
},
{
color = 0;
glyphname = AE;
lastChange = "2013-12-03 23:06:54 -0500";
layers = (
{
anchors = (
{
name = top;
position = "{443, 710}";
}
);
layerId = UUID0;
name = Regular;
paths = (
{
closed = 1;
nodes = (
"772 629 OFFCURVE",
"770 648 OFFCURVE",
"770 673 CURVE",
"769 691 OFFCURVE",
"765 700 OFFCURVE",
"758 700 CURVE SMOOTH",
"751 701 OFFCURVE",
"742 701 OFFCURVE",
"733 701 CURVE SMOOTH",
"714 701 OFFCURVE",
"662 705 OFFCURVE",
"621 705 CURVE SMOOTH",
"601 705 OFFCURVE",
"575 703 OFFCURVE",
"548 700 CURVE",
"508 697 LINE SMOOTH",
"495 696 OFFCURVE",
"483 696 OFFCURVE",
"472 696 CURVE SMOOTH",
"449 696 OFFCURVE",
"432 696 OFFCURVE",
"421 697 CURVE SMOOTH",
"401 699 LINE",
"400 701 OFFCURVE",
"400 703 OFFCURVE",
"400 705 CURVE SMOOTH",
"398 715 OFFCURVE",
"395 720 OFFCURVE",
"390 720 CURVE SMOOTH",
"371 720 OFFCURVE",
"358 700 OFFCURVE",
"345 672 CURVE SMOOTH",
"333 647 LINE",
"318 618 LINE SMOOTH",
"309 599 OFFCURVE",
"298 582 OFFCURVE",
"294 574 CURVE SMOOTH",
"285 559 OFFCURVE",
"272 533 OFFCURVE",
"257 504 CURVE",
"209 401 LINE SMOOTH",
"198 378 OFFCURVE",
"176 337 OFFCURVE",
"163 306 CURVE SMOOTH",
"152 277 OFFCURVE",
"122 218 OFFCURVE",
"108 191 CURVE SMOOTH",
"95 164 OFFCURVE",
"80 134 OFFCURVE",
"75 118 CURVE SMOOTH",
"68 99 OFFCURVE",
"56 80 OFFCURVE",
"51 69 CURVE SMOOTH",
"46 57 OFFCURVE",
"39 43 OFFCURVE",
"35 32 CURVE",
"28 18 LINE SMOOTH",
"27 16 OFFCURVE",
"26 14 OFFCURVE",
"26 13 CURVE SMOOTH",
"21 4 OFFCURVE",
"21 0 OFFCURVE",
"28 0 CURVE SMOOTH",
"48 0 LINE SMOOTH",
"57 0 OFFCURVE",
"57 1 OFFCURVE",
"61 9 CURVE SMOOTH",
"73 35 LINE SMOOTH",
"80 48 OFFCURVE",
"85 63 OFFCURVE",
"89 67 CURVE",
"94 75 OFFCURVE",
"101 92 OFFCURVE",
"104 100 CURVE",
"109 108 OFFCURVE",
"140 186 OFFCURVE",
"148 202 CURVE SMOOTH",
"156 221 LINE",
"160 231 LINE SMOOTH",
"164 240 OFFCURVE",
"168 243 OFFCURVE",
"173 242 CURVE",
"280 242 LINE SMOOTH",
"295 242 OFFCURVE",
"304 242 OFFCURVE",
"309 243 CURVE",
"316 243 OFFCURVE",
"335 244 OFFCURVE",
"352 245 CURVE SMOOTH",
"362 246 OFFCURVE",
"372 246 OFFCURVE",
"383 246 CURVE SMOOTH",
"390 246 OFFCURVE",
"392 246 OFFCURVE",
"396 230 CURVE",
"402 165 LINE",
"405 144 OFFCURVE",
"408 124 OFFCURVE",
"409 105 CURVE",
"414 69 OFFCURVE",
"413 64 OFFCURVE",
"416 45 CURVE SMOOTH",
"417 34 OFFCURVE",
"418 22 OFFCURVE",
"420 9 CURVE SMOOTH",
"421 1 OFFCURVE",
"424 0 OFFCURVE",
"429 0 CURVE SMOOTH",
"506 1 OFFCURVE",
"553 2 OFFCURVE",
"570 2 CURVE SMOOTH",
"587 3 OFFCURVE",
"601 3 OFFCURVE",
"613 3 CURVE SMOOTH",
"660 3 OFFCURVE",
"757 1 OFFCURVE",
"790 1 CURVE SMOOTH",
"822 1 OFFCURVE",
"838 -5 OFFCURVE",
"835 23 CURVE",
"835 93 LINE",
"835 107 LINE",
"832 124 OFFCURVE",
"827 135 OFFCURVE",
"799 134 CURVE",
"765 131 OFFCURVE",
"680 135 OFFCURVE",
"635 135 CURVE SMOOTH",
"590 135 OFFCURVE",
"541 134 OFFCURVE",
"518 134 CURVE SMOOTH",
"507 134 OFFCURVE",
"497 133 OFFCURVE",
"490 133 CURVE",
"486 132 OFFCURVE",
"482 132 OFFCURVE",
"479 132 CURVE",
"467 232 LINE",
"468 231 OFFCURVE",
"470 231 OFFCURVE",
"473 231 CURVE",
"475 230 OFFCURVE",
"479 230 OFFCURVE",
"486 230 CURVE SMOOTH",
"497 230 OFFCURVE",
"539 238 OFFCURVE",
"603 238 CURVE SMOOTH",
"666 238 OFFCURVE",
"687 236 OFFCURVE",
"703 236 CURVE SMOOTH",
"719 236 OFFCURVE",
"732 225 OFFCURVE",
"729 249 CURVE",
"729 272 OFFCURVE",
"725 275 OFFCURVE",
"729 302 CURVE",
"729 322 LINE SMOOTH",
"729 351 OFFCURVE",
"716 345 OFFCURVE",
"705 345 CURVE SMOOTH",
"694 345 OFFCURVE",
"680 348 OFFCURVE",
"656 348 CURVE SMOOTH",
"632 348 OFFCURVE",
"587 344 OFFCURVE",
"550 344 CURVE SMOOTH",
"511 344 LINE SMOOTH",
"499 344 OFFCURVE",
"489 344 OFFCURVE",
"480 345 CURVE",
"470 345 OFFCURVE",
"461 345 OFFCURVE",
"453 346 CURVE",
"451 357 OFFCURVE",
"449 367 OFFCURVE",
"448 378 CURVE SMOOTH",
"441 437 LINE",
"438 472 OFFCURVE",
"433 517 OFFCURVE",
"433 533 CURVE",
"430 548 OFFCURVE",
"429 553 OFFCURVE",
"440 553 CURVE SMOOTH",
"516 553 LINE SMOOTH",
"527 553 OFFCURVE",
"537 553 OFFCURVE",
"546 554 CURVE SMOOTH",
"581 557 OFFCURVE",
"622 552 OFFCURVE",
"659 553 CURVE SMOOTH",
"696 554 OFFCURVE",
"722 553 OFFCURVE",
"737 550 CURVE SMOOTH",
"747 548 OFFCURVE",
"774 534 OFFCURVE",
"771 560 CURVE",
"772 573 OFFCURVE",
"772 588 OFFCURVE",
"772 606 CURVE SMOOTH"
);
},
{
closed = 1;
nodes = (
"298 311 LINE SMOOTH",
"291 311 OFFCURVE",
"285 311 OFFCURVE",
"281 310 CURVE",
"271 310 OFFCURVE",
"250 308 OFFCURVE",
"234 308 CURVE SMOOTH",
"223 308 LINE SMOOTH",
"212 308 OFFCURVE",
"189 304 OFFCURVE",
"200 325 CURVE",
"213 346 OFFCURVE",
"247 421 OFFCURVE",
"258 445 CURVE",
"268 463 OFFCURVE",
"293 518 OFFCURVE",
"310 554 CURVE SMOOTH",
"324 581 LINE SMOOTH",
"335 604 OFFCURVE",
"346 630 OFFCURVE",
"350 630 CURVE SMOOTH",
"354 630 OFFCURVE",
"356 595 OFFCURVE",
"359 577 CURVE",
"359 560 OFFCURVE",
"365 484 OFFCURVE",
"368 453 CURVE SMOOTH",
"369 446 OFFCURVE",
"371 436 OFFCURVE",
"372 425 CURVE SMOOTH",
"376 392 LINE SMOOTH",
"379 371 OFFCURVE",
"380 349 OFFCURVE",
"381 340 CURVE SMOOTH",
"384 319 OFFCURVE",
"389 311 OFFCURVE",
"370 311 CURVE SMOOTH"
);
}
);
width = 886;
}
);
unicode = 00C6;
},
{
color = 0;
glyphname = AEacute;
lastChange = "2013-12-03 23:06:54 -0500";
layers = (
{
layerId = UUID0;
name = Regular;
paths = (
{
closed = 1;
nodes = (
"772 629 OFFCURVE",
"770 648 OFFCURVE",
"770 673 CURVE",
"769 691 OFFCURVE",
"765 700 OFFCURVE",
"758 700 CURVE SMOOTH",
"751 701 OFFCURVE",
"742 701 OFFCURVE",
"733 701 CURVE SMOOTH",
"714 701 OFFCURVE",
"662 705 OFFCURVE",
"621 705 CURVE SMOOTH",
"601 705 OFFCURVE",
"575 703 OFFCURVE",
"548 700 CURVE",
"508 697 LINE SMOOTH",
"495 696 OFFCURVE",
"483 696 OFFCURVE",
"472 696 CURVE SMOOTH",
"449 696 OFFCURVE",
"432 696 OFFCURVE",
"421 697 CURVE SMOOTH",
"401 699 LINE",
"400 701 OFFCURVE",
"400 703 OFFCURVE",
"400 705 CURVE SMOOTH",
"398 715 OFFCURVE",
"395 720 OFFCURVE",
"390 720 CURVE SMOOTH",
"371 720 OFFCURVE",
"358 700 OFFCURVE",
"345 672 CURVE SMOOTH",
"333 647 LINE",
"318 618 LINE SMOOTH",
"309 599 OFFCURVE",
"298 582 OFFCURVE",
"294 574 CURVE SMOOTH",
"285 559 OFFCURVE",
"272 533 OFFCURVE",
"257 504 CURVE",
"209 401 LINE SMOOTH",
"198 378 OFFCURVE",
"176 337 OFFCURVE",
"163 306 CURVE SMOOTH",
"152 277 OFFCURVE",
"122 218 OFFCURVE",
"108 191 CURVE SMOOTH",
"95 164 OFFCURVE",
"80 134 OFFCURVE",
"75 118 CURVE SMOOTH",
"68 99 OFFCURVE",
"56 80 OFFCURVE",
"51 69 CURVE SMOOTH",
"46 57 OFFCURVE",
"39 43 OFFCURVE",
"35 32 CURVE",
"28 18 LINE SMOOTH",
"27 16 OFFCURVE",
"26 14 OFFCURVE",
"26 13 CURVE SMOOTH",
"21 4 OFFCURVE",
"21 0 OFFCURVE",
"28 0 CURVE SMOOTH",
"48 0 LINE SMOOTH",
"57 0 OFFCURVE",
"57 1 OFFCURVE",
"61 9 CURVE SMOOTH",
"73 35 LINE SMOOTH",
"80 48 OFFCURVE",
"85 63 OFFCURVE",
"89 67 CURVE",
"94 75 OFFCURVE",
"101 92 OFFCURVE",
"104 100 CURVE",
"109 108 OFFCURVE",
"140 186 OFFCURVE",
"148 202 CURVE SMOOTH",
"156 221 LINE",
"160 231 LINE SMOOTH",
"164 240 OFFCURVE",
"168 243 OFFCURVE",
"173 242 CURVE",
"280 242 LINE SMOOTH",
"295 242 OFFCURVE",
"304 242 OFFCURVE",
"309 243 CURVE",
"316 243 OFFCURVE",
"335 244 OFFCURVE",
"352 245 CURVE SMOOTH",
"362 246 OFFCURVE",
"372 246 OFFCURVE",
"383 246 CURVE SMOOTH",
"390 246 OFFCURVE",
"392 246 OFFCURVE",
"396 230 CURVE",
"402 165 LINE",
"405 144 OFFCURVE",
"408 124 OFFCURVE",
"409 105 CURVE",
"414 69 OFFCURVE",
"413 64 OFFCURVE",
"416 45 CURVE SMOOTH",
"417 34 OFFCURVE",
"418 22 OFFCURVE",
"420 9 CURVE SMOOTH",
"421 1 OFFCURVE",
"424 0 OFFCURVE",
"429 0 CURVE SMOOTH",
"506 1 OFFCURVE",
"553 2 OFFCURVE",
"570 2 CURVE SMOOTH",
"587 3 OFFCURVE",
"601 3 OFFCURVE",
"613 3 CURVE SMOOTH",
"660 3 OFFCURVE",
"757 1 OFFCURVE",
"790 1 CURVE SMOOTH",
"822 1 OFFCURVE",
"838 -5 OFFCURVE",
"835 23 CURVE",
"835 93 LINE",
"835 107 LINE",
"832 124 OFFCURVE",
"827 135 OFFCURVE",
"799 134 CURVE",
"765 131 OFFCURVE",
"680 135 OFFCURVE",
"635 135 CURVE SMOOTH",
"590 135 OFFCURVE",
"541 134 OFFCURVE",
"518 134 CURVE SMOOTH",
"507 134 OFFCURVE",
"497 133 OFFCURVE",
"490 133 CURVE",
"486 132 OFFCURVE",
"482 132 OFFCURVE",
"479 132 CURVE",
"467 232 LINE",
"468 231 OFFCURVE",
"470 231 OFFCURVE",
"473 231 CURVE",
"475 230 OFFCURVE",
"479 230 OFFCURVE",
"486 230 CURVE SMOOTH",
"497 230 OFFCURVE",
"539 238 OFFCURVE",
"603 238 CURVE SMOOTH",
"666 238 OFFCURVE",
"687 236 OFFCURVE",
"703 236 CURVE SMOOTH",
"719 236 OFFCURVE",
"732 225 OFFCURVE",
"729 249 CURVE",
"729 272 OFFCURVE",
"725 275 OFFCURVE",
"729 302 CURVE",
"729 322 LINE SMOOTH",
"729 351 OFFCURVE",
"716 345 OFFCURVE",
"705 345 CURVE SMOOTH",
"694 345 OFFCURVE",
"680 348 OFFCURVE",
"656 348 CURVE SMOOTH",
"632 348 OFFCURVE",
"587 344 OFFCURVE",
"550 344 CURVE SMOOTH",
"511 344 LINE SMOOTH",
"499 344 OFFCURVE",
"489 344 OFFCURVE",
"480 345 CURVE",
"470 345 OFFCURVE",
"461 345 OFFCURVE",
"453 346 CURVE",
"451 357 OFFCURVE",
"449 367 OFFCURVE",
"448 378 CURVE SMOOTH",
"441 437 LINE",
"438 472 OFFCURVE",
"433 517 OFFCURVE",
"433 533 CURVE",
"430 548 OFFCURVE",
"429 553 OFFCURVE",
"440 553 CURVE SMOOTH",
"516 553 LINE SMOOTH",
"527 553 OFFCURVE",
"537 553 OFFCURVE",
"546 554 CURVE SMOOTH",
"581 557 OFFCURVE",
"622 552 OFFCURVE",
"659 553 CURVE SMOOTH",
"696 554 OFFCURVE",
"722 553 OFFCURVE",
"737 550 CURVE SMOOTH",
"747 548 OFFCURVE",
"774 534 OFFCURVE",
"771 560 CURVE",
"772 573 OFFCURVE",
"772 588 OFFCURVE",
"772 606 CURVE SMOOTH"
);
},
{
closed = 1;
nodes = (
"298 311 LINE SMOOTH",
"291 311 OFFCURVE",
"285 311 OFFCURVE",
"281 310 CURVE",
"271 310 OFFCURVE",
"250 308 OFFCURVE",
"234 308 CURVE SMOOTH",
"223 308 LINE SMOOTH",
"212 308 OFFCURVE",
"189 304 OFFCURVE",
"200 325 CURVE",
"213 346 OFFCURVE",
"247 421 OFFCURVE",
"258 445 CURVE",
"268 463 OFFCURVE",
"293 518 OFFCURVE",
"310 554 CURVE SMOOTH",
"324 581 LINE SMOOTH",
"335 604 OFFCURVE",
"346 630 OFFCURVE",
"350 630 CURVE SMOOTH",
"354 630 OFFCURVE",
"356 595 OFFCURVE",
"359 577 CURVE",
"359 560 OFFCURVE",
"365 484 OFFCURVE",
"368 453 CURVE SMOOTH",
"369 446 OFFCURVE",
"371 436 OFFCURVE",
"372 425 CURVE SMOOTH",
"376 392 LINE SMOOTH",
"379 371 OFFCURVE",
"380 349 OFFCURVE",
"381 340 CURVE SMOOTH",
"384 319 OFFCURVE",
"389 311 OFFCURVE",
"370 311 CURVE SMOOTH"
);
},
{
closed = 1;
nodes = (
"599 842 OFFCURVE",
"585 841 OFFCURVE",
"557 837 CURVE",
"549 837 OFFCURVE",
"534 834 OFFCURVE",
"522 830 CURVE SMOOTH",
"500 822 LINE",
"459 804 OFFCURVE",
"453 807 OFFCURVE",
"439 799 CURVE",
"429 796 OFFCURVE",
"391 781 OFFCURVE",
"389 774 CURVE SMOOTH",
"382 755 OFFCURVE",
"396 746 OFFCURVE",
"407 742 CURVE",
"427 730 OFFCURVE",
"436 736 OFFCURVE",
"460 744 CURVE",
"494 760 OFFCURVE",
"511 766 OFFCURVE",
"545 777 CURVE SMOOTH",
"556 780 OFFCURVE",
"589 794 OFFCURVE",
"594 811 CURVE"
);
}
);
width = 886;
}
);
unicode = 01FC;
},
{
color = 0;
glyphname = B;
lastChange = "2013-12-03 23:06:54 -0500";
layers = (
{
layerId = UUID0;
name = Regular;
paths = (
{
closed = 1;
nodes = (
"323 355 OFFCURVE",
"342 366 OFFCURVE",
"359 381 CURVE SMOOTH",
"388 408 OFFCURVE",
"417 452 OFFCURVE",
"417 531 CURVE SMOOTH",
"417 685 OFFCURVE",
"319 713 OFFCURVE",
"211 713 CURVE SMOOTH",
"158 713 OFFCURVE",
"89 702 OFFCURVE",
"80 699 CURVE SMOOTH",
"69 696 OFFCURVE",
"67 692 OFFCURVE",
"70 685 CURVE SMOOTH",
"72 678 OFFCURVE",
"75 634 OFFCURVE",
"72 607 CURVE SMOOTH",
"69 579 OFFCURVE",
"69 426 OFFCURVE",
"66 370 CURVE",
"61 315 OFFCURVE",
"63 296 OFFCURVE",
"63 253 CURVE SMOOTH",
"63 208 OFFCURVE",
"62 49 OFFCURVE",
"62 31 CURVE SMOOTH",
"62 11 OFFCURVE",
"66 -7 OFFCURVE",
"90 -7 CURVE SMOOTH",
"113 -7 OFFCURVE",
"209 -4 OFFCURVE",
"248 -4 CURVE SMOOTH",
"288 -4 OFFCURVE",
"483 -12 OFFCURVE",
"483 130 CURVE SMOOTH",
"483 285 OFFCURVE",
"324 340 OFFCURVE",
"302 348 CURVE"
);
},
{
closed = 1;
nodes = (
"193 513 LINE SMOOTH",
"193 541 OFFCURVE",
"194 584 OFFCURVE",
"195 620 CURVE SMOOTH",
"197 684 LINE",
"288 684 OFFCURVE",
"380 677 OFFCURVE",
"380 523 CURVE SMOOTH",
"380 370 OFFCURVE",
"206 361 OFFCURVE",
"198 361 CURVE SMOOTH",
"191 361 OFFCURVE",
"191 363 OFFCURVE",
"191 370 CURVE SMOOTH",
"191 377 OFFCURVE",
"193 383 OFFCURVE",
"193 399 CURVE SMOOTH"
);
},
{
closed = 1;
nodes = (
"205 15 OFFCURVE",
"194 11 OFFCURVE",
"194 31 CURVE SMOOTH",
"194 49 OFFCURVE",
"190 112 OFFCURVE",
"190 136 CURVE SMOOTH",
"190 160 OFFCURVE",
"192 163 OFFCURVE",
"192 182 CURVE SMOOTH",
"192 200 OFFCURVE",
"188 278 OFFCURVE",
"188 300 CURVE SMOOTH",
"188 311 OFFCURVE",
"188 318 OFFCURVE",
"189 323 CURVE SMOOTH",
"189 326 OFFCURVE",
"189 328 OFFCURVE",
"190 331 CURVE",
"233 332 OFFCURVE",
"271 326 OFFCURVE",
"305 313 CURVE",
"362 289 OFFCURVE",
"420 240 OFFCURVE",
"420 131 CURVE SMOOTH",
"420 63 OFFCURVE",
"359 15 OFFCURVE",
"224 15 CURVE SMOOTH"
);
}
);
width = 512;
}
);
unicode = 0042;
},
{
color = 0;
glyphname = C;
lastChange = "2013-12-03 23:06:54 -0500";
layers = (
{
anchors = (
{
name = bottom;
position = "{264, 0}";
},
{
name = top;
position = "{264, 710}";
}
);
layerId = UUID0;
name = Regular;
paths = (
{
closed = 1;
nodes = (
"300 544 OFFCURVE",
"316 523 OFFCURVE",
"335 502 CURVE",
"352 481 OFFCURVE",
"366 498 OFFCURVE",
"382 518 CURVE SMOOTH",
"397 538 OFFCURVE",
"429 566 OFFCURVE",
"448 581 CURVE SMOOTH",
"467 596 OFFCURVE",
"459 603 OFFCURVE",
"448 618 CURVE SMOOTH",
"437 634 OFFCURVE",
"382 704 OFFCURVE",
"271 704 CURVE SMOOTH",
"159 704 OFFCURVE",
"37 562 OFFCURVE",
"37 354 CURVE SMOOTH",
"37 146 OFFCURVE",
"162 -12 OFFCURVE",
"293 -12 CURVE SMOOTH",
"423 -12 OFFCURVE",
"481 84 OFFCURVE",
"492 103 CURVE SMOOTH",
"503 123 OFFCURVE",
"486 125 OFFCURVE",
"467 134 CURVE",
"382 181 LINE SMOOTH",
"366 190 OFFCURVE",
"366 184 OFFCURVE",
"355 173 CURVE SMOOTH",
"344 162 OFFCURVE",
"313 134 OFFCURVE",
"285 134 CURVE SMOOTH",
"257 134 OFFCURVE",
"167 166 OFFCURVE",
"167 329 CURVE SMOOTH",
"167 493 OFFCURVE",
"231 544 OFFCURVE",
"275 544 CURVE SMOOTH"
);
}
);
width = 528;
}
);
unicode = 0043;
},
{
color = 0;
glyphname = Cacute;
lastChange = "2013-12-03 23:06:54 -0500";
layers = (
{
layerId = UUID0;
name = Regular;
paths = (
{
closed = 1;
nodes = (
"300 544 OFFCURVE",
"316 523 OFFCURVE",
"335 502 CURVE",
"352 481 OFFCURVE",
"366 498 OFFCURVE",
"382 518 CURVE SMOOTH",
"397 538 OFFCURVE",
"429 566 OFFCURVE",
"448 581 CURVE SMOOTH",
"467 596 OFFCURVE",
"459 603 OFFCURVE",
"448 618 CURVE SMOOTH",
"437 634 OFFCURVE",
"382 704 OFFCURVE",
"271 704 CURVE SMOOTH",
"159 704 OFFCURVE",
"37 562 OFFCURVE",
"37 354 CURVE SMOOTH",
"37 146 OFFCURVE",
"162 -12 OFFCURVE",
"293 -12 CURVE SMOOTH",
"423 -12 OFFCURVE",
"481 84 OFFCURVE",
"492 103 CURVE SMOOTH",
"503 123 OFFCURVE",
"486 125 OFFCURVE",
"467 134 CURVE",
"382 181 LINE SMOOTH",
"366 190 OFFCURVE",
"366 184 OFFCURVE",
"355 173 CURVE SMOOTH",
"344 162 OFFCURVE",
"313 134 OFFCURVE",
"285 134 CURVE SMOOTH",
"257 134 OFFCURVE",
"167 166 OFFCURVE",
"167 329 CURVE SMOOTH",
"167 493 OFFCURVE",
"231 544 OFFCURVE",
"275 544 CURVE SMOOTH"
);
},
{
closed = 1;
nodes = (
"406 842 OFFCURVE",
"392 841 OFFCURVE",
"364 837 CURVE",
"356 837 OFFCURVE",
"341 834 OFFCURVE",
"329 830 CURVE SMOOTH",
"307 822 LINE",
"266 804 OFFCURVE",
"260 807 OFFCURVE",
"246 799 CURVE",
"236 796 OFFCURVE",
"198 781 OFFCURVE",
"196 774 CURVE SMOOTH",
"189 755 OFFCURVE",
"203 746 OFFCURVE",
"214 742 CURVE",
"234 730 OFFCURVE",
"243 736 OFFCURVE",
"267 744 CURVE",
"301 760 OFFCURVE",
"318 766 OFFCURVE",
"352 777 CURVE SMOOTH",
"363 780 OFFCURVE",
"396 794 OFFCURVE",
"401 811 CURVE"
);
}
);
width = 528;
}
);
unicode = 0106;
},
{
color = 0;
glyphname = Ccaron;
lastChange = "2013-12-03 23:06:54 -0500";
layers = (
{
layerId = UUID0;
name = Regular;
paths = (
{
closed = 1;
nodes = (
"300 544 OFFCURVE",
"316 523 OFFCURVE",
"335 502 CURVE",
"352 481 OFFCURVE",
"366 498 OFFCURVE",
"382 518 CURVE SMOOTH",
"397 538 OFFCURVE",
"429 566 OFFCURVE",
"448 581 CURVE SMOOTH",
"467 596 OFFCURVE",
"459 603 OFFCURVE",
"448 618 CURVE SMOOTH",
"437 634 OFFCURVE",
"382 704 OFFCURVE",
"271 704 CURVE SMOOTH",
"159 704 OFFCURVE",
"37 562 OFFCURVE",
"37 354 CURVE SMOOTH",
"37 146 OFFCURVE",
"162 -12 OFFCURVE",
"293 -12 CURVE SMOOTH",
"423 -12 OFFCURVE",
"481 84 OFFCURVE",
"492 103 CURVE SMOOTH",
"503 123 OFFCURVE",
"486 125 OFFCURVE",
"467 134 CURVE",
"382 181 LINE SMOOTH",
"366 190 OFFCURVE",
"366 184 OFFCURVE",
"355 173 CURVE SMOOTH",
"344 162 OFFCURVE",
"313 134 OFFCURVE",
"285 134 CURVE SMOOTH",
"257 134 OFFCURVE",
"167 166 OFFCURVE",
"167 329 CURVE SMOOTH",
"167 493 OFFCURVE",
"231 544 OFFCURVE",
"275 544 CURVE SMOOTH"
);
},
{
closed = 1;
nodes = (
"144 810 OFFCURVE",
"173 794 OFFCURVE",
"181 789 CURVE SMOOTH",
"208 772 OFFCURVE",
"221 765 OFFCURVE",
"248 746 CURVE",
"268 735 OFFCURVE",
"274 729 OFFCURVE",
"297 732 CURVE SMOOTH",
"302 732 OFFCURVE",
"308 733 OFFCURVE",
"315 736 CURVE",
"326 739 OFFCURVE",
"344 749 OFFCURVE",
"367 762 CURVE",
"397 785 OFFCURVE",
"405 786 OFFCURVE",
"415 791 CURVE",
"441 808 LINE SMOOTH",
"456 817 OFFCURVE",
"450 836 OFFCURVE",
"425 836 CURVE SMOOTH",
"412 836 OFFCURVE",
"400 835 OFFCURVE",
"387 833 CURVE",
"359 825 OFFCURVE",
"345 820 OFFCURVE",
"329 812 CURVE SMOOTH",
"322 808 OFFCURVE",
"307 801 OFFCURVE",
"284 791 CURVE",
"252 806 LINE",
"241 813 OFFCURVE",
"230 819 OFFCURVE",
"217 824 CURVE",
"190 831 LINE",
"166 840 OFFCURVE",
"152 844 OFFCURVE",
"147 823 CURVE SMOOTH"
);
}
);
width = 528;
}
);
unicode = 010C;
},
{
color = 0;
glyphname = Ccedilla;
lastChange = "2013-12-03 23:06:54 -0500";
layers = (
{
layerId = UUID0;
name = Regular;
paths = (
{
closed = 1;
nodes = (
"232 33 LINE",
"224 13 OFFCURVE",
"219 -3 OFFCURVE",
"217 -16 CURVE",
"213 -32 OFFCURVE",
"210 -35 OFFCURVE",
"210 -52 CURVE",
"211 -59 OFFCURVE",
"217 -60 OFFCURVE",
"241 -60 CURVE SMOOTH",
"248 -60 OFFCURVE",
"259 -46 OFFCURVE",
"274 -46 CURVE SMOOTH",
"293 -46 OFFCURVE",
"298 -60 OFFCURVE",
"298 -79 CURVE",
"292 -104 OFFCURVE",
"283 -103 OFFCURVE",
"257 -105 CURVE",
"240 -105 OFFCURVE",
"232 -103 OFFCURVE",
"219 -99 CURVE",
"200 -88 OFFCURVE",
"193 -81 OFFCURVE",
"192 -90 CURVE",
"187 -113 OFFCURVE",
"184 -128 OFFCURVE",
"184 -139 CURVE SMOOTH",
"184 -150 OFFCURVE",
"220 -158 OFFCURVE",
"251 -158 CURVE SMOOTH",
"296 -158 OFFCURVE",
"303 -153 OFFCURVE",
"314 -148 CURVE SMOOTH",
"319 -145 OFFCURVE",
"324 -142 OFFCURVE",
"329 -137 CURVE SMOOTH",
"340 -128 OFFCURVE",
"359 -115 OFFCURVE",
"360 -83 CURVE",
"360 -28 OFFCURVE",
"331 -13 OFFCURVE",
"298 -13 CURVE SMOOTH",
"267 -13 OFFCURVE",
"263 -15 OFFCURVE",
"250 -22 CURVE",
"255 -5 OFFCURVE",
"264 8 OFFCURVE",
"283 33 CURVE"
);
},
{
closed = 1;
nodes = (
"300 544 OFFCURVE",
"316 523 OFFCURVE",
"335 502 CURVE",
"352 481 OFFCURVE",
"366 498 OFFCURVE",
"382 518 CURVE SMOOTH",
"397 538 OFFCURVE",
"429 566 OFFCURVE",
"448 581 CURVE SMOOTH",
"467 596 OFFCURVE",
"459 603 OFFCURVE",
"448 618 CURVE SMOOTH",
"437 634 OFFCURVE",
"382 704 OFFCURVE",
"271 704 CURVE SMOOTH",
"215 704 OFFCURVE",
"156 668 OFFCURVE",
"112 607 CURVE SMOOTH",
"68 546 OFFCURVE",
"37 451 OFFCURVE",
"37 374 CURVE SMOOTH",
"37 283 OFFCURVE",
"68 188 OFFCURVE",
"116 123 CURVE SMOOTH",
"164 58 OFFCURVE",
"228 18 OFFCURVE",
"293 18 CURVE SMOOTH",
"423 18 OFFCURVE",
"481 114 OFFCURVE",
"492 133 CURVE SMOOTH",
"503 153 OFFCURVE",
"486 155 OFFCURVE",
"467 164 CURVE",
"382 211 LINE SMOOTH",
"366 220 OFFCURVE",
"366 214 OFFCURVE",
"355 203 CURVE SMOOTH",
"344 192 OFFCURVE",
"313 164 OFFCURVE",
"285 164 CURVE",
"256 159 OFFCURVE",
"167 207 OFFCURVE",
"167 349 CURVE SMOOTH",
"167 404 OFFCURVE",
"183 465 OFFCURVE",
"204 498 CURVE",
"227 531 OFFCURVE",
"252 544 OFFCURVE",
"275 544 CURVE SMOOTH"
);
}
);
width = 509;
}
);
unicode = 00C7;
},
{
color = 0;
glyphname = Ccircumflex;
lastChange = "2013-12-03 23:06:54 -0500";
layers = (
{
layerId = UUID0;
name = Regular;
paths = (
{
closed = 1;
nodes = (
"300 544 OFFCURVE",
"316 523 OFFCURVE",
"335 502 CURVE",
"352 481 OFFCURVE",
"366 498 OFFCURVE",
"382 518 CURVE SMOOTH",
"397 538 OFFCURVE",
"429 566 OFFCURVE",
"448 581 CURVE SMOOTH",
"467 596 OFFCURVE",
"459 603 OFFCURVE",
"448 618 CURVE SMOOTH",
"437 634 OFFCURVE",
"382 704 OFFCURVE",
"271 704 CURVE SMOOTH",
"159 704 OFFCURVE",
"37 562 OFFCURVE",
"37 354 CURVE SMOOTH",
"37 146 OFFCURVE",
"162 -12 OFFCURVE",
"293 -12 CURVE SMOOTH",
"423 -12 OFFCURVE",
"481 84 OFFCURVE",
"492 103 CURVE SMOOTH",
"503 123 OFFCURVE",
"486 125 OFFCURVE",
"467 134 CURVE",
"382 181 LINE SMOOTH",
"366 190 OFFCURVE",
"366 184 OFFCURVE",
"355 173 CURVE SMOOTH",
"344 162 OFFCURVE",
"313 134 OFFCURVE",
"285 134 CURVE SMOOTH",
"257 134 OFFCURVE",
"167 166 OFFCURVE",
"167 329 CURVE SMOOTH",
"167 493 OFFCURVE",
"231 544 OFFCURVE",
"275 544 CURVE SMOOTH"
);
},
{
closed = 1;
nodes = (
"441 759 OFFCURVE",
"412 775 OFFCURVE",
"404 780 CURVE SMOOTH",
"377 797 OFFCURVE",
"364 804 OFFCURVE",
"337 823 CURVE",
"317 834 OFFCURVE",
"311 840 OFFCURVE",
"288 837 CURVE SMOOTH",
"283 837 OFFCURVE",
"277 836 OFFCURVE",
"270 833 CURVE",
"259 830 OFFCURVE",
"241 820 OFFCURVE",
"218 807 CURVE",
"188 784 OFFCURVE",
"180 783 OFFCURVE",
"170 778 CURVE",
"143 761 LINE SMOOTH",
"130 752 OFFCURVE",
"135 733 OFFCURVE",
"160 733 CURVE SMOOTH",
"173 733 OFFCURVE",
"185 734 OFFCURVE",
"198 736 CURVE",
"226 744 OFFCURVE",
"240 749 OFFCURVE",
"255 757 CURVE",
"301 778 LINE",
"333 763 LINE",
"344 756 OFFCURVE",
"355 750 OFFCURVE",
"368 745 CURVE",
"395 738 LINE",
"419 729 OFFCURVE",
"433 725 OFFCURVE",
"438 746 CURVE SMOOTH"
);
}
);
width = 528;
}
);
unicode = 0108;
},
{
color = 0;
glyphname = Cdotaccent;
lastChange = "2013-12-03 23:06:54 -0500";
layers = (
{
layerId = UUID0;
name = Regular;
paths = (
{
closed = 1;
nodes = (
"300 544 OFFCURVE",
"316 523 OFFCURVE",
"335 502 CURVE",
"352 481 OFFCURVE",
"366 498 OFFCURVE",
"382 518 CURVE SMOOTH",
"397 538 OFFCURVE",
"429 566 OFFCURVE",
"448 581 CURVE SMOOTH",
"467 596 OFFCURVE",
"459 603 OFFCURVE",
"448 618 CURVE SMOOTH",
"437 634 OFFCURVE",
"382 704 OFFCURVE",
"271 704 CURVE SMOOTH",
"159 704 OFFCURVE",
"37 562 OFFCURVE",
"37 354 CURVE SMOOTH",
"37 146 OFFCURVE",
"162 -12 OFFCURVE",
"293 -12 CURVE SMOOTH",
"423 -12 OFFCURVE",
"481 84 OFFCURVE",
"492 103 CURVE SMOOTH",
"503 123 OFFCURVE",
"486 125 OFFCURVE",
"467 134 CURVE",
"382 181 LINE SMOOTH",
"366 190 OFFCURVE",
"366 184 OFFCURVE",
"355 173 CURVE SMOOTH",
"344 162 OFFCURVE",
"313 134 OFFCURVE",
"285 134 CURVE SMOOTH",
"257 134 OFFCURVE",
"167 166 OFFCURVE",
"167 329 CURVE SMOOTH",
"167 493 OFFCURVE",
"231 544 OFFCURVE",
"275 544 CURVE SMOOTH"
);
},
{
closed = 1;
nodes = (
"357 821 OFFCURVE",
"320 840 OFFCURVE",
"287 840 CURVE SMOOTH",
"255 840 OFFCURVE",
"230 810 OFFCURVE",
"230 781 CURVE SMOOTH",
"230 744 OFFCURVE",
"263 720 OFFCURVE",
"291 720 CURVE SMOOTH",
"317 720 OFFCURVE",
"357 742 OFFCURVE",
"357 786 CURVE SMOOTH"
);
}
);
width = 528;
}
);
unicode = 010A;
},
{
color = 0;
glyphname = D;
lastChange = "2013-12-03 23:06:54 -0500";
layers = (
{
anchors = (
{
name = center;
position = "{289, 355}";
},
{
name = top;
position = "{289, 710}";
}
);
layerId = UUID0;
name = Regular;
paths = (
{
closed = 1;
nodes = (
"216 700 OFFCURVE",
"192 699 OFFCURVE",
"171 698 CURVE SMOOTH",
"135 696 LINE",
"111 696 OFFCURVE",
"68 701 OFFCURVE",
"68 681 CURVE SMOOTH",
"68 660 OFFCURVE",
"70 592 OFFCURVE",
"70 511 CURVE SMOOTH",
"70 431 OFFCURVE",
"62 381 OFFCURVE",
"62 303 CURVE SMOOTH",
"62 224 OFFCURVE",
"67 175 OFFCURVE",
"67 155 CURVE SMOOTH",
"67 134 OFFCURVE",
"70 84 OFFCURVE",
"70 60 CURVE SMOOTH",
"70 36 OFFCURVE",
"64 0 OFFCURVE",
"88 0 CURVE SMOOTH",
"113 0 OFFCURVE",
"185 2 OFFCURVE",
"224 2 CURVE SMOOTH",
"262 2 OFFCURVE",
"542 14 OFFCURVE",
"542 315 CURVE SMOOTH",
"542 639 OFFCURVE",
"332 700 OFFCURVE",
"239 700 CURVE SMOOTH"
);
},
{
closed = 1;
nodes = (
"241 231 OFFCURVE",
"241 249 OFFCURVE",
"242 266 CURVE SMOOTH",
"243 295 OFFCURVE",
"244 327 OFFCURVE",
"244 350 CURVE SMOOTH",
"244 393 OFFCURVE",
"251 449 OFFCURVE",
"246 489 CURVE",
"263 484 OFFCURVE",
"279 476 OFFCURVE",
"293 465 CURVE SMOOTH",
"317 446 OFFCURVE",
"341 415 OFFCURVE",
"341 364 CURVE SMOOTH",
"341 312 OFFCURVE",
"316 274 OFFCURVE",
"291 250 CURVE SMOOTH",
"276 235 OFFCURVE",
"260 223 OFFCURVE",
"241 214 CURVE"
);
}
);
width = 577;
}
);
unicode = 0044;
},
{
color = 0;
glyphname = DZ;
lastChange = "2013-12-03 23:06:54 -0500";
layers = (
{
layerId = UUID0;
name = Regular;
paths = (
{
closed = 1;
nodes = (
"216 700 OFFCURVE",
"192 699 OFFCURVE",
"171 698 CURVE SMOOTH",
"135 696 LINE",
"111 696 OFFCURVE",
"68 701 OFFCURVE",
"68 681 CURVE SMOOTH",
"68 660 OFFCURVE",
"70 592 OFFCURVE",
"70 511 CURVE SMOOTH",
"70 431 OFFCURVE",
"62 381 OFFCURVE",
"62 303 CURVE SMOOTH",
"62 224 OFFCURVE",
"67 175 OFFCURVE",
"67 155 CURVE SMOOTH",
"67 134 OFFCURVE",
"70 84 OFFCURVE",
"70 60 CURVE SMOOTH",
"70 36 OFFCURVE",
"64 0 OFFCURVE",
"88 0 CURVE SMOOTH",
"113 0 OFFCURVE",
"185 2 OFFCURVE",
"224 2 CURVE SMOOTH",
"262 2 OFFCURVE",
"542 14 OFFCURVE",
"542 315 CURVE SMOOTH",
"542 639 OFFCURVE",
"332 700 OFFCURVE",
"239 700 CURVE SMOOTH"
);
},
{
closed = 1;
nodes = (
"241 231 OFFCURVE",
"241 249 OFFCURVE",
"242 266 CURVE SMOOTH",
"243 295 OFFCURVE",
"244 327 OFFCURVE",
"244 350 CURVE SMOOTH",
"244 393 OFFCURVE",
"251 449 OFFCURVE",
"246 489 CURVE",
"263 484 OFFCURVE",
"279 476 OFFCURVE",
"293 465 CURVE SMOOTH",
"317 446 OFFCURVE",
"341 415 OFFCURVE",
"341 364 CURVE SMOOTH",
"341 312 OFFCURVE",
"316 274 OFFCURVE",
"291 250 CURVE SMOOTH",
"276 235 OFFCURVE",
"260 223 OFFCURVE",
"241 214 CURVE"
);
},
{
closed = 1;
nodes = (
"637 693 OFFCURVE",
"621 698 OFFCURVE",
"622 679 CURVE SMOOTH",
"624 660 OFFCURVE",
"625 647 OFFCURVE",
"625 640 CURVE SMOOTH",
"625 633 OFFCURVE",
"621 628 OFFCURVE",
"636 627 CURVE SMOOTH",
"651 627 OFFCURVE",
"734 628 OFFCURVE",
"749 625 CURVE SMOOTH",
"765 622 OFFCURVE",
"806 626 OFFCURVE",
"828 626 CURVE SMOOTH",
"852 626 OFFCURVE",
"918 625 OFFCURVE",
"934 625 CURVE",
"954 623 LINE",
"957 622 OFFCURVE",
"960 622 OFFCURVE",
"963 622 CURVE",
"945 583 LINE SMOOTH",
"934 560 OFFCURVE",
"921 535 OFFCURVE",
"909 518 CURVE SMOOTH",
"885 486 OFFCURVE",
"820 401 OFFCURVE",
"802 370 CURVE SMOOTH",
"783 338 OFFCURVE",
"683 205 OFFCURVE",
"664 180 CURVE",
"643 155 OFFCURVE",
"621 136 OFFCURVE",
"621 120 CURVE SMOOTH",
"621 103 OFFCURVE",
"616 45 OFFCURVE",
"616 32 CURVE SMOOTH",
"616 16 OFFCURVE",
"609 -1 OFFCURVE",
"647 -1 CURVE SMOOTH",
"892 -1 LINE SMOOTH",
"933 -1 OFFCURVE",
"1035 -6 OFFCURVE",
"1077 -1 CURVE",
"1120 6 OFFCURVE",
"1139 3 OFFCURVE",
"1152 6 CURVE",
"1167 7 OFFCURVE",
"1166 8 OFFCURVE",
"1166 27 CURVE SMOOTH",
"1166 44 OFFCURVE",
"1168 85 OFFCURVE",
"1168 100 CURVE SMOOTH",
"1167 115 OFFCURVE",
"1170 131 OFFCURVE",
"1149 131 CURVE SMOOTH",
"1127 131 OFFCURVE",
"1022 125 OFFCURVE",
"983 125 CURVE SMOOTH",
"944 125 OFFCURVE",
"917 123 OFFCURVE",
"874 123 CURVE SMOOTH",
"853 123 OFFCURVE",
"825 124 OFFCURVE",
"802 127 CURVE SMOOTH",
"789 128 OFFCURVE",
"775 130 OFFCURVE",
"761 132 CURVE",
"856 262 LINE",
"907 329 OFFCURVE",
"959 403 OFFCURVE",
"978 430 CURVE SMOOTH",
"1015 480 OFFCURVE",
"1105 612 OFFCURVE",
"1116 628 CURVE SMOOTH",
"1127 644 OFFCURVE",
"1125 672 OFFCURVE",
"1125 680 CURVE SMOOTH",
"1125 688 OFFCURVE",
"1128 698 OFFCURVE",
"1105 695 CURVE SMOOTH",
"1081 692 OFFCURVE",
"970 693 OFFCURVE",
"946 693 CURVE SMOOTH",
"924 693 OFFCURVE",
"818 697 OFFCURVE",
"778 697 CURVE SMOOTH",
"737 697 OFFCURVE",
"684 693 OFFCURVE",
"652 693 CURVE SMOOTH"
);
}
);
width = 1218;
}
);
unicode = 01F1;
},
{
color = 0;
glyphname = DZcaron;
lastChange = "2013-12-03 23:06:54 -0500";
layers = (
{
layerId = UUID0;
name = Regular;
paths = (
{
closed = 1;
nodes = (
"216 700 OFFCURVE",
"192 699 OFFCURVE",
"171 698 CURVE SMOOTH",
"135 696 LINE",
"111 696 OFFCURVE",
"68 701 OFFCURVE",
"68 681 CURVE SMOOTH",
"68 660 OFFCURVE",
"70 592 OFFCURVE",
"70 511 CURVE SMOOTH",
"70 431 OFFCURVE",
"62 381 OFFCURVE",
"62 303 CURVE SMOOTH",
"62 224 OFFCURVE",
"67 175 OFFCURVE",
"67 155 CURVE SMOOTH",
"67 134 OFFCURVE",
"70 84 OFFCURVE",
"70 60 CURVE SMOOTH",
"70 36 OFFCURVE",
"64 0 OFFCURVE",
"88 0 CURVE SMOOTH",
"113 0 OFFCURVE",
"185 2 OFFCURVE",
"224 2 CURVE SMOOTH",
"262 2 OFFCURVE",
"542 14 OFFCURVE",
"542 315 CURVE SMOOTH",
"542 639 OFFCURVE",
"332 700 OFFCURVE",
"239 700 CURVE SMOOTH"
);
},
{
closed = 1;
nodes = (
"241 231 OFFCURVE",
"241 249 OFFCURVE",
"242 266 CURVE SMOOTH",
"243 295 OFFCURVE",
"244 327 OFFCURVE",
"244 350 CURVE SMOOTH",
"244 393 OFFCURVE",
"251 449 OFFCURVE",
"246 489 CURVE",
"263 484 OFFCURVE",
"279 476 OFFCURVE",
"293 465 CURVE SMOOTH",
"317 446 OFFCURVE",
"341 415 OFFCURVE",
"341 364 CURVE SMOOTH",
"341 312 OFFCURVE",
"316 274 OFFCURVE",
"291 250 CURVE SMOOTH",
"276 235 OFFCURVE",
"260 223 OFFCURVE",
"241 214 CURVE"
);
},
{
closed = 1;
nodes = (
"637 693 OFFCURVE",
"621 698 OFFCURVE",
"622 679 CURVE SMOOTH",
"624 660 OFFCURVE",
"625 647 OFFCURVE",
"625 640 CURVE SMOOTH",
"625 633 OFFCURVE",
"621 628 OFFCURVE",
"636 627 CURVE SMOOTH",
"651 627 OFFCURVE",
"734 628 OFFCURVE",
"749 625 CURVE SMOOTH",
"765 622 OFFCURVE",
"806 626 OFFCURVE",
"828 626 CURVE SMOOTH",
"852 626 OFFCURVE",
"918 625 OFFCURVE",
"934 625 CURVE",
"954 623 LINE",
"957 622 OFFCURVE",
"960 622 OFFCURVE",
"963 622 CURVE",
"945 583 LINE SMOOTH",
"934 560 OFFCURVE",
"921 535 OFFCURVE",
"909 518 CURVE SMOOTH",
"885 486 OFFCURVE",
"820 401 OFFCURVE",
"802 370 CURVE SMOOTH",
"783 338 OFFCURVE",
"683 205 OFFCURVE",
"664 180 CURVE",
"643 155 OFFCURVE",
"621 136 OFFCURVE",
"621 120 CURVE SMOOTH",
"621 103 OFFCURVE",
"616 45 OFFCURVE",
"616 32 CURVE SMOOTH",
"616 16 OFFCURVE",
"609 -1 OFFCURVE",
"647 -1 CURVE SMOOTH",
"892 -1 LINE SMOOTH",
"933 -1 OFFCURVE",
"1035 -6 OFFCURVE",
"1077 -1 CURVE",
"1120 6 OFFCURVE",
"1139 3 OFFCURVE",
"1152 6 CURVE",
"1167 7 OFFCURVE",
"1166 8 OFFCURVE",
"1166 27 CURVE SMOOTH",
"1166 44 OFFCURVE",
"1168 85 OFFCURVE",
"1168 100 CURVE SMOOTH",
"1167 115 OFFCURVE",
"1170 131 OFFCURVE",
"1149 131 CURVE SMOOTH",
"1127 131 OFFCURVE",
"1022 125 OFFCURVE",
"983 125 CURVE SMOOTH",
"944 125 OFFCURVE",
"917 123 OFFCURVE",
"874 123 CURVE SMOOTH",
"853 123 OFFCURVE",
"825 124 OFFCURVE",
"802 127 CURVE SMOOTH",
"789 128 OFFCURVE",
"775 130 OFFCURVE",
"761 132 CURVE",
"856 262 LINE",
"907 329 OFFCURVE",
"959 403 OFFCURVE",
"978 430 CURVE SMOOTH",
"1015 480 OFFCURVE",
"1105 612 OFFCURVE",
"1116 628 CURVE SMOOTH",
"1127 644 OFFCURVE",
"1125 672 OFFCURVE",
"1125 680 CURVE SMOOTH",
"1125 688 OFFCURVE",
"1128 698 OFFCURVE",
"1105 695 CURVE SMOOTH",
"1081 692 OFFCURVE",
"970 693 OFFCURVE",
"946 693 CURVE SMOOTH",
"924 693 OFFCURVE",
"818 697 OFFCURVE",
"778 697 CURVE SMOOTH",
"737 697 OFFCURVE",
"684 693 OFFCURVE",
"652 693 CURVE SMOOTH"
);
},
{
closed = 1;
nodes = (
"728 810 OFFCURVE",
"757 794 OFFCURVE",
"765 789 CURVE SMOOTH",
"792 772 OFFCURVE",
"805 765 OFFCURVE",
"832 746 CURVE",
"852 735 OFFCURVE",
"858 729 OFFCURVE",
"881 732 CURVE SMOOTH",
"886 732 OFFCURVE",
"892 733 OFFCURVE",
"899 736 CURVE",
"910 739 OFFCURVE",
"928 749 OFFCURVE",
"951 762 CURVE",
"981 785 OFFCURVE",
"989 786 OFFCURVE",
"999 791 CURVE",
"1025 808 LINE SMOOTH",
"1040 817 OFFCURVE",
"1034 836 OFFCURVE",
"1009 836 CURVE SMOOTH",
"996 836 OFFCURVE",
"984 835 OFFCURVE",
"971 833 CURVE",
"943 825 OFFCURVE",
"929 820 OFFCURVE",
"913 812 CURVE SMOOTH",
"906 808 OFFCURVE",
"891 801 OFFCURVE",
"868 791 CURVE",
"836 806 LINE",
"825 813 OFFCURVE",
"814 819 OFFCURVE",
"801 824 CURVE",
"774 831 LINE",
"750 840 OFFCURVE",
"736 844 OFFCURVE",
"731 823 CURVE SMOOTH"
);
}
);
width = 1218;
}
);
unicode = 01C4;
},
{
color = 0;
glyphname = Eth;
lastChange = "2013-12-03 23:06:54 -0500";
layers = (
{
layerId = UUID0;
name = Regular;
paths = (
{
closed = 1;
nodes = (
"250 700 OFFCURVE",
"226 699 OFFCURVE",
"205 698 CURVE SMOOTH",
"169 696 LINE",
"145 696 OFFCURVE",
"102 701 OFFCURVE",
"102 681 CURVE SMOOTH",
"102 660 OFFCURVE",
"104 592 OFFCURVE",
"104 511 CURVE SMOOTH",
"104 431 OFFCURVE",
"96 381 OFFCURVE",
"96 303 CURVE SMOOTH",
"96 224 OFFCURVE",
"101 175 OFFCURVE",
"101 155 CURVE SMOOTH",
"101 134 OFFCURVE",
"104 84 OFFCURVE",
"104 60 CURVE SMOOTH",
"104 36 OFFCURVE",
"98 0 OFFCURVE",
"122 0 CURVE SMOOTH",
"147 0 OFFCURVE",
"219 2 OFFCURVE",
"258 2 CURVE SMOOTH",
"296 2 OFFCURVE",
"576 14 OFFCURVE",
"576 315 CURVE SMOOTH",
"576 639 OFFCURVE",
"366 700 OFFCURVE",
"273 700 CURVE SMOOTH"
);
},
{
closed = 1;
nodes = (
"317 393 LINE",
"248 393 LINE SMOOTH",
"201 393 OFFCURVE",
"171 392 OFFCURVE",
"158 391 CURVE SMOOTH",
"145 390 OFFCURVE",
"135 390 OFFCURVE",
"127 390 CURVE SMOOTH",
"61 390 LINE",
"46 393 OFFCURVE",
"38 392 OFFCURVE",
"38 386 CURVE",
"35 380 OFFCURVE",
"42 338 OFFCURVE",
"42 328 CURVE SMOOTH",
"42 317 OFFCURVE",
"38 312 OFFCURVE",
"58 312 CURVE SMOOTH",
"72 312 OFFCURVE",
"119 307 OFFCURVE",
"142 312 CURVE",
"153 312 OFFCURVE",
"167 313 OFFCURVE",
"219 313 CURVE SMOOTH",
"272 314 OFFCURVE",
"285 315 OFFCURVE",
"297 315 CURVE SMOOTH",
"321 315 OFFCURVE",
"352 318 OFFCURVE",
"360 318 CURVE SMOOTH",
"372 318 OFFCURVE",
"383 314 OFFCURVE",
"383 325 CURVE SMOOTH",
"383 376 LINE SMOOTH",
"383 383 OFFCURVE",
"387 393 OFFCURVE",
"375 393 CURVE SMOOTH"
);
},
{
closed = 1;
nodes = (
"321 620 OFFCURVE",
"364 602 OFFCURVE",
"409 567 CURVE",
"485 491 OFFCURVE",
"506 429 OFFCURVE",
"510 364 CURVE",
"510 331 OFFCURVE",
"507 297 OFFCURVE",
"501 264 CURVE SMOOTH",
"495 231 OFFCURVE",
"476 196 OFFCURVE",
"444 157 CURVE",
"395 115 OFFCURVE",
"338 83 OFFCURVE",
"275 62 CURVE",
"275 181 OFFCURVE",
"275 249 OFFCURVE",
"276 266 CURVE SMOOTH",
"277 295 OFFCURVE",
"278 327 OFFCURVE",
"278 350 CURVE SMOOTH",
"278 371 OFFCURVE",
"279 395 OFFCURVE",
"281 420 CURVE SMOOTH",
"283 446 OFFCURVE",
"283 514 OFFCURVE",
"280 623 CURVE"
);
}
);
width = 616;
}
);
unicode = 00D0;
},
{
color = 0;
glyphname = Dcaron;
lastChange = "2013-12-03 23:06:54 -0500";
layers = (
{
layerId = UUID0;
name = Regular;
paths = (
{
closed = 1;
nodes = (
"216 700 OFFCURVE",
"192 699 OFFCURVE",
"171 698 CURVE SMOOTH",
"135 696 LINE",
"111 696 OFFCURVE",
"68 701 OFFCURVE",
"68 681 CURVE SMOOTH",
"68 660 OFFCURVE",
"70 592 OFFCURVE",
"70 511 CURVE SMOOTH",
"70 431 OFFCURVE",
"62 381 OFFCURVE",
"62 303 CURVE SMOOTH",
"62 224 OFFCURVE",
"67 175 OFFCURVE",
"67 155 CURVE SMOOTH",
"67 134 OFFCURVE",
"70 84 OFFCURVE",
"70 60 CURVE SMOOTH",
"70 36 OFFCURVE",
"64 0 OFFCURVE",
"88 0 CURVE SMOOTH",
"113 0 OFFCURVE",
"185 2 OFFCURVE",
"224 2 CURVE SMOOTH",
"262 2 OFFCURVE",
"542 14 OFFCURVE",
"542 315 CURVE SMOOTH",
"542 639 OFFCURVE",
"332 700 OFFCURVE",
"239 700 CURVE SMOOTH"
);
},
{
closed = 1;
nodes = (
"241 231 OFFCURVE",
"241 249 OFFCURVE",
"242 266 CURVE SMOOTH",
"243 295 OFFCURVE",
"244 327 OFFCURVE",
"244 350 CURVE SMOOTH",
"244 393 OFFCURVE",
"251 449 OFFCURVE",
"246 489 CURVE",
"263 484 OFFCURVE",
"279 476 OFFCURVE",
"293 465 CURVE SMOOTH",
"317 446 OFFCURVE",
"341 415 OFFCURVE",
"341 364 CURVE SMOOTH",
"341 312 OFFCURVE",
"316 274 OFFCURVE",
"291 250 CURVE SMOOTH",
"276 235 OFFCURVE",
"260 223 OFFCURVE",
"241 214 CURVE"
);
},
{
closed = 1;
nodes = (
"100 810 OFFCURVE",
"129 794 OFFCURVE",
"137 789 CURVE SMOOTH",
"164 772 OFFCURVE",
"177 765 OFFCURVE",
"204 746 CURVE",
"224 735 OFFCURVE",
"230 729 OFFCURVE",
"253 732 CURVE SMOOTH",
"258 732 OFFCURVE",
"264 733 OFFCURVE",
"271 736 CURVE",
"282 739 OFFCURVE",
"300 749 OFFCURVE",
"323 762 CURVE",
"353 785 OFFCURVE",
"361 786 OFFCURVE",
"371 791 CURVE",
"397 808 LINE SMOOTH",
"412 817 OFFCURVE",
"406 836 OFFCURVE",
"381 836 CURVE SMOOTH",
"368 836 OFFCURVE",
"356 835 OFFCURVE",
"343 833 CURVE",
"315 825 OFFCURVE",
"301 820 OFFCURVE",
"285 812 CURVE SMOOTH",
"278 808 OFFCURVE",
"263 801 OFFCURVE",
"240 791 CURVE",
"208 806 LINE",
"197 813 OFFCURVE",
"186 819 OFFCURVE",
"173 824 CURVE",
"146 831 LINE",
"122 840 OFFCURVE",
"108 844 OFFCURVE",
"103 823 CURVE SMOOTH"
);
}
);
width = 577;
}
);
unicode = 010E;
},
{
color = 0;
glyphname = Dcroat;
lastChange = "2013-12-03 23:06:54 -0500";
layers = (
{
layerId = UUID0;
name = Regular;
paths = (
{
closed = 1;
nodes = (
"171 384 LINE",
"45 384 LINE",
"13 384 LINE SMOOTH",
"4 384 OFFCURVE",
"2 378 OFFCURVE",
"2 365 CURVE SMOOTH",
"2 338 LINE SMOOTH",
"2 331 OFFCURVE",
"2 325 OFFCURVE",
"10 325 CURVE",
"15 328 OFFCURVE",
"53 328 OFFCURVE",
"61 328 CURVE SMOOTH",
"193 328 LINE SMOOTH",
"217 328 OFFCURVE",
"259 325 OFFCURVE",
"277 325 CURVE SMOOTH",
"296 325 OFFCURVE",
"299 329 OFFCURVE",
"299 338 CURVE SMOOTH",
"299 368 LINE SMOOTH",
"299 379 OFFCURVE",
"299 387 OFFCURVE",
"281 384 CURVE"
);
},
{
closed = 1;
nodes = (
"216 700 OFFCURVE",
"192 699 OFFCURVE",
"171 698 CURVE SMOOTH",
"135 696 LINE",
"111 696 OFFCURVE",
"68 701 OFFCURVE",
"68 681 CURVE SMOOTH",
"68 660 OFFCURVE",
"70 592 OFFCURVE",
"70 511 CURVE SMOOTH",
"70 431 OFFCURVE",
"62 381 OFFCURVE",
"62 303 CURVE SMOOTH",
"62 224 OFFCURVE",
"67 175 OFFCURVE",
"67 155 CURVE SMOOTH",
"67 134 OFFCURVE",
"70 84 OFFCURVE",
"70 60 CURVE SMOOTH",
"70 36 OFFCURVE",
"64 0 OFFCURVE",
"88 0 CURVE SMOOTH",
"113 0 OFFCURVE",
"185 2 OFFCURVE",
"224 2 CURVE SMOOTH",
"262 2 OFFCURVE",
"542 14 OFFCURVE",
"542 315 CURVE SMOOTH",
"542 639 OFFCURVE",
"332 700 OFFCURVE",
"239 700 CURVE SMOOTH"
);
},
{
closed = 1;
nodes = (
"201 231 OFFCURVE",
"202 249 OFFCURVE",
"203 266 CURVE SMOOTH",
"204 295 OFFCURVE",
"206 327 OFFCURVE",
"206 350 CURVE SMOOTH",
"206 391 OFFCURVE",
"218 448 OFFCURVE",
"209 488 CURVE",
"240 487 OFFCURVE",
"268 482 OFFCURVE",
"293 474 CURVE",
"346 454 OFFCURVE",
"366 414 OFFCURVE",
"366 363 CURVE SMOOTH",
"365 292 OFFCURVE",
"343 253 OFFCURVE",
"292 234 CURVE SMOOTH",
"268 225 OFFCURVE",
"238 219 OFFCURVE",
"201 214 CURVE"
);
}
);
width = 577;
}
);
unicode = 0110;
},
{
color = 0;
glyphname = Ddotbelow;
lastChange = "2013-12-03 23:06:54 -0500";
layers = (
{
layerId = UUID0;
name = Regular;
paths = (
{
closed = 1;
nodes = (
"216 700 OFFCURVE",
"192 699 OFFCURVE",
"171 698 CURVE SMOOTH",
"135 696 LINE",
"111 696 OFFCURVE",
"68 701 OFFCURVE",
"68 681 CURVE SMOOTH",
"68 660 OFFCURVE",
"70 592 OFFCURVE",
"70 511 CURVE SMOOTH",
"70 431 OFFCURVE",
"62 381 OFFCURVE",
"62 303 CURVE SMOOTH",
"62 224 OFFCURVE",
"67 175 OFFCURVE",
"67 155 CURVE SMOOTH",
"67 134 OFFCURVE",
"70 84 OFFCURVE",
"70 60 CURVE SMOOTH",
"70 36 OFFCURVE",
"64 0 OFFCURVE",
"88 0 CURVE SMOOTH",
"113 0 OFFCURVE",
"185 2 OFFCURVE",
"224 2 CURVE SMOOTH",
"262 2 OFFCURVE",
"542 14 OFFCURVE",
"542 315 CURVE SMOOTH",
"542 639 OFFCURVE",
"332 700 OFFCURVE",
"239 700 CURVE SMOOTH"
);
},
{
closed = 1;
nodes = (
"241 231 OFFCURVE",
"241 249 OFFCURVE",
"242 266 CURVE SMOOTH",
"243 295 OFFCURVE",
"244 327 OFFCURVE",
"244 350 CURVE SMOOTH",
"244 393 OFFCURVE",
"251 449 OFFCURVE",
"246 489 CURVE",
"263 484 OFFCURVE",
"279 476 OFFCURVE",
"293 465 CURVE SMOOTH",
"317 446 OFFCURVE",
"341 415 OFFCURVE",
"341 364 CURVE SMOOTH",
"341 312 OFFCURVE",
"316 274 OFFCURVE",
"291 250 CURVE SMOOTH",
"276 235 OFFCURVE",
"260 223 OFFCURVE",
"241 214 CURVE"
);
},
{
closed = 1;
nodes = (
"327 -41 OFFCURVE",
"290 -22 OFFCURVE",
"257 -22 CURVE SMOOTH",
"225 -22 OFFCURVE",
"200 -52 OFFCURVE",
"200 -81 CURVE SMOOTH",
"200 -118 OFFCURVE",
"233 -142 OFFCURVE",
"261 -142 CURVE SMOOTH",
"287 -142 OFFCURVE",
"327 -120 OFFCURVE",
"327 -76 CURVE SMOOTH"
);
}
);
width = 577;
}
);
unicode = 1E0C;
},
{
color = 0;
glyphname = E;
lastChange = "2013-12-03 23:06:54 -0500";
layers = (
{
anchors = (
{
name = bottom;
position = "{263, 0}";
},
{
name = ogonek;
position = "{472, 10}";
},
{
name = top;
position = "{263, 710}";
}
);
layerId = UUID0;
name = Regular;
paths = (
{
closed = 1;
nodes = (
"466 633 OFFCURVE",
"462 654 OFFCURVE",
"462 673 CURVE SMOOTH",
"462 692 OFFCURVE",
"460 701 OFFCURVE",
"441 701 CURVE SMOOTH",
"422 701 OFFCURVE",
"371 705 OFFCURVE",
"330 705 CURVE SMOOTH",
"291 705 OFFCURVE",
"223 696 OFFCURVE",
"180 696 CURVE SMOOTH",
"135 696 OFFCURVE",
"117 699 OFFCURVE",
"102 699 CURVE SMOOTH",
"87 699 OFFCURVE",
"68 706 OFFCURVE",
"68 678 CURVE SMOOTH",
"67 650 OFFCURVE",
"65 591 OFFCURVE",
"65 531 CURVE SMOOTH",
"65 471 OFFCURVE",
"70 464 OFFCURVE",
"70 387 CURVE SMOOTH",
"70 310 OFFCURVE",
"63 292 OFFCURVE",
"63 232 CURVE SMOOTH",
"63 95 LINE SMOOTH",
"63 74 OFFCURVE",
"65 64 OFFCURVE",
"65 52 CURVE SMOOTH",
"65 40 OFFCURVE",
"65 26 OFFCURVE",
"66 15 CURVE SMOOTH",
"66 4 OFFCURVE",
"65 -4 OFFCURVE",
"80 -1 CURVE",
"93 -1 OFFCURVE",
"190 3 OFFCURVE",
"238 3 CURVE SMOOTH",
"285 3 OFFCURVE",
"381 1 OFFCURVE",
"414 1 CURVE SMOOTH",
"446 1 OFFCURVE",
"462 -5 OFFCURVE",
"462 23 CURVE SMOOTH",
"462 52 OFFCURVE",
"463 73 OFFCURVE",
"463 93 CURVE SMOOTH",
"463 111 OFFCURVE",
"472 137 OFFCURVE",
"439 134 CURVE SMOOTH",
"405 131 OFFCURVE",
"321 135 OFFCURVE",
"276 135 CURVE SMOOTH",
"231 135 OFFCURVE",
"181 134 OFFCURVE",
"158 134 CURVE SMOOTH",
"147 134 OFFCURVE",
"137 133 OFFCURVE",
"130 133 CURVE",
"126 132 OFFCURVE",
"122 132 OFFCURVE",
"119 132 CURVE",
"119 232 LINE",
"120 231 OFFCURVE",
"122 231 OFFCURVE",
"125 231 CURVE",
"127 230 OFFCURVE",
"131 230 OFFCURVE",
"138 230 CURVE SMOOTH",
"149 230 OFFCURVE",
"192 238 OFFCURVE",
"256 238 CURVE SMOOTH",
"319 238 OFFCURVE",
"340 236 OFFCURVE",
"356 236 CURVE SMOOTH",
"371 236 OFFCURVE",
"383 225 OFFCURVE",
"383 249 CURVE SMOOTH",
"383 274 OFFCURVE",
"382 283 OFFCURVE",
"382 302 CURVE SMOOTH",
"382 321 OFFCURVE",
"384 326 OFFCURVE",
"384 333 CURVE SMOOTH",
"384 340 OFFCURVE",
"382 345 OFFCURVE",
"371 345 CURVE SMOOTH",
"360 345 OFFCURVE",
"346 348 OFFCURVE",
"322 348 CURVE SMOOTH",
"298 348 OFFCURVE",
"253 344 OFFCURVE",
"216 344 CURVE SMOOTH",
"188 344 OFFCURVE",
"163 344 OFFCURVE",
"146 345 CURVE SMOOTH",
"136 345 OFFCURVE",
"127 345 OFFCURVE",
"119 346 CURVE",
"118 357 OFFCURVE",
"118 367 OFFCURVE",
"118 378 CURVE SMOOTH",
"118 437 LINE SMOOTH",
"118 472 OFFCURVE",
"121 517 OFFCURVE",
"121 533 CURVE SMOOTH",
"121 548 OFFCURVE",
"120 553 OFFCURVE",
"131 553 CURVE SMOOTH",
"142 553 OFFCURVE",
"203 551 OFFCURVE",
"237 554 CURVE SMOOTH",
"272 557 OFFCURVE",
"313 552 OFFCURVE",
"350 553 CURVE SMOOTH",
"387 554 OFFCURVE",
"413 553 OFFCURVE",
"427 550 CURVE SMOOTH",
"439 548 OFFCURVE",
"460 535 OFFCURVE",
"463 560 CURVE SMOOTH",
"467 585 OFFCURVE",
"466 599 OFFCURVE",
"466 606 CURVE SMOOTH"
);
}
);
width = 525;
}
);
unicode = 0045;
},
{
color = 0;
glyphname = Eacute;
lastChange = "2013-12-03 23:06:54 -0500";
layers = (
{
layerId = UUID0;
name = Regular;
paths = (
{
closed = 1;
nodes = (
"466 633 OFFCURVE",
"462 654 OFFCURVE",
"462 673 CURVE SMOOTH",
"462 692 OFFCURVE",
"460 701 OFFCURVE",
"441 701 CURVE SMOOTH",
"422 701 OFFCURVE",
"371 705 OFFCURVE",
"330 705 CURVE SMOOTH",
"291 705 OFFCURVE",
"223 696 OFFCURVE",
"180 696 CURVE SMOOTH",
"135 696 OFFCURVE",
"117 699 OFFCURVE",
"102 699 CURVE SMOOTH",
"87 699 OFFCURVE",
"68 706 OFFCURVE",
"68 678 CURVE SMOOTH",
"67 650 OFFCURVE",
"65 591 OFFCURVE",
"65 531 CURVE SMOOTH",
"65 471 OFFCURVE",
"70 464 OFFCURVE",
"70 387 CURVE SMOOTH",
"70 310 OFFCURVE",
"63 292 OFFCURVE",
"63 232 CURVE SMOOTH",
"63 95 LINE SMOOTH",
"63 74 OFFCURVE",
"65 64 OFFCURVE",
"65 52 CURVE SMOOTH",
"65 40 OFFCURVE",
"65 26 OFFCURVE",
"66 15 CURVE SMOOTH",
"66 4 OFFCURVE",
"65 -4 OFFCURVE",
"80 -1 CURVE",
"93 -1 OFFCURVE",
"190 3 OFFCURVE",
"238 3 CURVE SMOOTH",
"285 3 OFFCURVE",
"381 1 OFFCURVE",
"414 1 CURVE SMOOTH",
"446 1 OFFCURVE",
"462 -5 OFFCURVE",
"462 23 CURVE SMOOTH",
"462 52 OFFCURVE",
"463 73 OFFCURVE",
"463 93 CURVE SMOOTH",
"463 111 OFFCURVE",
"472 137 OFFCURVE",
"439 134 CURVE SMOOTH",
"405 131 OFFCURVE",
"321 135 OFFCURVE",
"276 135 CURVE SMOOTH",
"231 135 OFFCURVE",
"181 134 OFFCURVE",
"158 134 CURVE SMOOTH",
"147 134 OFFCURVE",
"137 133 OFFCURVE",
"130 133 CURVE",
"126 132 OFFCURVE",
"122 132 OFFCURVE",
"119 132 CURVE",
"119 232 LINE",
"120 231 OFFCURVE",
"122 231 OFFCURVE",
"125 231 CURVE",
"127 230 OFFCURVE",
"131 230 OFFCURVE",
"138 230 CURVE SMOOTH",
"149 230 OFFCURVE",
"192 238 OFFCURVE",
"256 238 CURVE SMOOTH",
"319 238 OFFCURVE",
"340 236 OFFCURVE",
"356 236 CURVE SMOOTH",
"371 236 OFFCURVE",
"383 225 OFFCURVE",
"383 249 CURVE SMOOTH",
"383 274 OFFCURVE",
"382 283 OFFCURVE",
"382 302 CURVE SMOOTH",
"382 321 OFFCURVE",
"384 326 OFFCURVE",
"384 333 CURVE SMOOTH",
"384 340 OFFCURVE",
"382 345 OFFCURVE",
"371 345 CURVE SMOOTH",
"360 345 OFFCURVE",
"346 348 OFFCURVE",
"322 348 CURVE SMOOTH",
"298 348 OFFCURVE",
"253 344 OFFCURVE",
"216 344 CURVE SMOOTH",
"188 344 OFFCURVE",
"163 344 OFFCURVE",
"146 345 CURVE SMOOTH",
"136 345 OFFCURVE",
"127 345 OFFCURVE",
"119 346 CURVE",
"118 357 OFFCURVE",
"118 367 OFFCURVE",
"118 378 CURVE SMOOTH",
"118 437 LINE SMOOTH",
"118 472 OFFCURVE",
"121 517 OFFCURVE",
"121 533 CURVE SMOOTH",
"121 548 OFFCURVE",
"120 553 OFFCURVE",
"131 553 CURVE SMOOTH",
"142 553 OFFCURVE",
"203 551 OFFCURVE",
"237 554 CURVE SMOOTH",
"272 557 OFFCURVE",
"313 552 OFFCURVE",
"350 553 CURVE SMOOTH",
"387 554 OFFCURVE",
"413 553 OFFCURVE",
"427 550 CURVE SMOOTH",
"439 548 OFFCURVE",
"460 535 OFFCURVE",
"463 560 CURVE SMOOTH",
"467 585 OFFCURVE",
"466 599 OFFCURVE",
"466 606 CURVE SMOOTH"
);
},
{
closed = 1;
nodes = (
"370 838 OFFCURVE",
"356 837 OFFCURVE",
"328 833 CURVE",
"320 833 OFFCURVE",
"305 830 OFFCURVE",
"293 826 CURVE SMOOTH",
"271 818 LINE",
"230 800 OFFCURVE",
"224 803 OFFCURVE",
"210 795 CURVE",
"200 792 OFFCURVE",
"162 777 OFFCURVE",
"160 770 CURVE SMOOTH",
"153 751 OFFCURVE",
"167 742 OFFCURVE",
"178 738 CURVE",
"198 726 OFFCURVE",
"207 732 OFFCURVE",
"231 740 CURVE",
"265 756 OFFCURVE",
"282 762 OFFCURVE",
"316 773 CURVE SMOOTH",
"327 776 OFFCURVE",
"360 790 OFFCURVE",
"365 807 CURVE"
);
}
);
width = 504;
}
);
unicode = 00C9;
},
{
color = 0;
glyphname = Ebreve;
lastChange = "2013-12-03 23:06:54 -0500";
layers = (
{
layerId = UUID0;
name = Regular;
paths = (
{
closed = 1;
nodes = (
"466 633 OFFCURVE",
"462 654 OFFCURVE",
"462 673 CURVE SMOOTH",
"462 692 OFFCURVE",
"460 701 OFFCURVE",
"441 701 CURVE SMOOTH",
"422 701 OFFCURVE",
"371 705 OFFCURVE",
"330 705 CURVE SMOOTH",
"291 705 OFFCURVE",
"223 696 OFFCURVE",
"180 696 CURVE SMOOTH",
"135 696 OFFCURVE",
"117 699 OFFCURVE",
"102 699 CURVE SMOOTH",
"87 699 OFFCURVE",
"68 706 OFFCURVE",
"68 678 CURVE SMOOTH",
"67 650 OFFCURVE",
"65 591 OFFCURVE",
"65 531 CURVE SMOOTH",
"65 471 OFFCURVE",
"70 464 OFFCURVE",
"70 387 CURVE SMOOTH",
"70 310 OFFCURVE",
"63 292 OFFCURVE",
"63 232 CURVE SMOOTH",
"63 95 LINE SMOOTH",
"63 74 OFFCURVE",
"65 64 OFFCURVE",
"65 52 CURVE SMOOTH",
"65 40 OFFCURVE",
"65 26 OFFCURVE",
"66 15 CURVE SMOOTH",
"66 4 OFFCURVE",
"65 -4 OFFCURVE",
"80 -1 CURVE",
"93 -1 OFFCURVE",
"190 3 OFFCURVE",
"238 3 CURVE SMOOTH",
"285 3 OFFCURVE",
"381 1 OFFCURVE",
"414 1 CURVE SMOOTH",
"446 1 OFFCURVE",
"462 -5 OFFCURVE",
"462 23 CURVE SMOOTH",
"462 52 OFFCURVE",
"463 73 OFFCURVE",
"463 93 CURVE SMOOTH",
"463 111 OFFCURVE",
"472 137 OFFCURVE",
"439 134 CURVE SMOOTH",
"405 131 OFFCURVE",
"321 135 OFFCURVE",
"276 135 CURVE SMOOTH",
"231 135 OFFCURVE",
"181 134 OFFCURVE",
"158 134 CURVE SMOOTH",
"147 134 OFFCURVE",
"137 133 OFFCURVE",
"130 133 CURVE",
"126 132 OFFCURVE",
"122 132 OFFCURVE",
"119 132 CURVE",
"119 232 LINE",
"120 231 OFFCURVE",
"122 231 OFFCURVE",
"125 231 CURVE",
"127 230 OFFCURVE",
"131 230 OFFCURVE",
"138 230 CURVE SMOOTH",
"149 230 OFFCURVE",
"192 238 OFFCURVE",
"256 238 CURVE SMOOTH",
"319 238 OFFCURVE",
"340 236 OFFCURVE",
"356 236 CURVE SMOOTH",
"371 236 OFFCURVE",
"383 225 OFFCURVE",
"383 249 CURVE SMOOTH",
"383 274 OFFCURVE",
"382 283 OFFCURVE",
"382 302 CURVE SMOOTH",
"382 321 OFFCURVE",
"384 326 OFFCURVE",
"384 333 CURVE SMOOTH",
"384 340 OFFCURVE",
"382 345 OFFCURVE",
"371 345 CURVE SMOOTH",
"360 345 OFFCURVE",
"346 348 OFFCURVE",
"322 348 CURVE SMOOTH",
"298 348 OFFCURVE",
"253 344 OFFCURVE",
"216 344 CURVE SMOOTH",
"188 344 OFFCURVE",
"163 344 OFFCURVE",
"146 345 CURVE SMOOTH",
"136 345 OFFCURVE",
"127 345 OFFCURVE",
"119 346 CURVE",
"118 357 OFFCURVE",
"118 367 OFFCURVE",
"118 378 CURVE SMOOTH",
"118 437 LINE SMOOTH",
"118 472 OFFCURVE",
"121 517 OFFCURVE",
"121 533 CURVE SMOOTH",
"121 548 OFFCURVE",
"120 553 OFFCURVE",
"131 553 CURVE SMOOTH",
"142 553 OFFCURVE",
"203 551 OFFCURVE",
"237 554 CURVE SMOOTH",
"272 557 OFFCURVE",
"313 552 OFFCURVE",
"350 553 CURVE SMOOTH",
"387 554 OFFCURVE",
"413 553 OFFCURVE",
"427 550 CURVE SMOOTH",
"439 548 OFFCURVE",
"460 535 OFFCURVE",
"463 560 CURVE SMOOTH",
"467 585 OFFCURVE",
"466 599 OFFCURVE",
"466 606 CURVE SMOOTH"
);
},
{
closed = 1;
nodes = (
"410 835 OFFCURVE",
"399 837 OFFCURVE",
"377 838 CURVE",
"361 837 OFFCURVE",
"352 834 OFFCURVE",
"350 831 CURVE",
"349 818 OFFCURVE",
"337 808 OFFCURVE",
"313 801 CURVE SMOOTH",
"290 795 OFFCURVE",
"269 792 OFFCURVE",
"252 792 CURVE",
"216 794 OFFCURVE",
"194 797 OFFCURVE",
"186 802 CURVE SMOOTH",
"179 807 OFFCURVE",
"173 816 OFFCURVE",
"170 829 CURVE",
"170 838 OFFCURVE",
"170 839 OFFCURVE",
"141 839 CURVE SMOOTH",
"113 839 OFFCURVE",
"112 839 OFFCURVE",
"112 836 CURVE SMOOTH",
"113 819 OFFCURVE",
"118 801 OFFCURVE",
"127 780 CURVE SMOOTH",
"132 769 OFFCURVE",
"141 760 OFFCURVE",
"154 753 CURVE SMOOTH",
"167 746 OFFCURVE",
"201 741 OFFCURVE",
"254 738 CURVE",
"301 738 OFFCURVE",
"333 742 OFFCURVE",
"350 751 CURVE SMOOTH",
"367 760 OFFCURVE",
"380 768 OFFCURVE",
"389 775 CURVE SMOOTH",
"409 790 OFFCURVE",
"410 824 OFFCURVE",
"410 832 CURVE SMOOTH"
);
}
);
width = 525;
}
);
unicode = 0114;
},
{
color = 0;
glyphname = Ecaron;
lastChange = "2013-12-03 23:06:54 -0500";
layers = (
{
layerId = UUID0;
name = Regular;
paths = (
{
closed = 1;
nodes = (
"466 633 OFFCURVE",
"462 654 OFFCURVE",
"462 673 CURVE SMOOTH",
"462 692 OFFCURVE",
"460 701 OFFCURVE",
"441 701 CURVE SMOOTH",
"422 701 OFFCURVE",
"371 705 OFFCURVE",
"330 705 CURVE SMOOTH",
"291 705 OFFCURVE",
"223 696 OFFCURVE",
"180 696 CURVE SMOOTH",
"135 696 OFFCURVE",
"117 699 OFFCURVE",
"102 699 CURVE SMOOTH",
"87 699 OFFCURVE",
"68 706 OFFCURVE",
"68 678 CURVE SMOOTH",
"67 650 OFFCURVE",
"65 591 OFFCURVE",
"65 531 CURVE SMOOTH",
"65 471 OFFCURVE",
"70 464 OFFCURVE",
"70 387 CURVE SMOOTH",
"70 310 OFFCURVE",
"63 292 OFFCURVE",
"63 232 CURVE SMOOTH",
"63 95 LINE SMOOTH",
"63 74 OFFCURVE",
"65 64 OFFCURVE",
"65 52 CURVE SMOOTH",
"65 40 OFFCURVE",
"65 26 OFFCURVE",
"66 15 CURVE SMOOTH",
"66 4 OFFCURVE",
"65 -4 OFFCURVE",
"80 -1 CURVE",
"93 -1 OFFCURVE",
"190 3 OFFCURVE",
"238 3 CURVE SMOOTH",
"285 3 OFFCURVE",
"381 1 OFFCURVE",
"414 1 CURVE SMOOTH",
"446 1 OFFCURVE",
"462 -5 OFFCURVE",
"462 23 CURVE SMOOTH",
"462 52 OFFCURVE",
"463 73 OFFCURVE",
"463 93 CURVE SMOOTH",
"463 111 OFFCURVE",
"472 137 OFFCURVE",
"439 134 CURVE SMOOTH",
"405 131 OFFCURVE",
"321 135 OFFCURVE",
"276 135 CURVE SMOOTH",
"231 135 OFFCURVE",
"181 134 OFFCURVE",
"158 134 CURVE SMOOTH",
"147 134 OFFCURVE",
"137 133 OFFCURVE",
"130 133 CURVE",
"126 132 OFFCURVE",
"122 132 OFFCURVE",
"119 132 CURVE",
"119 232 LINE",
"120 231 OFFCURVE",
"122 231 OFFCURVE",
"125 231 CURVE",
"127 230 OFFCURVE",
"131 230 OFFCURVE",
"138 230 CURVE SMOOTH",
"149 230 OFFCURVE",
"192 238 OFFCURVE",
"256 238 CURVE SMOOTH",
"319 238 OFFCURVE",
"340 236 OFFCURVE",
"356 236 CURVE SMOOTH",
"371 236 OFFCURVE",
"383 225 OFFCURVE",
"383 249 CURVE SMOOTH",
"383 274 OFFCURVE",
"382 283 OFFCURVE",
"382 302 CURVE SMOOTH",
"382 321 OFFCURVE",
"384 326 OFFCURVE",
"384 333 CURVE SMOOTH",
"384 340 OFFCURVE",
"382 345 OFFCURVE",
"371 345 CURVE SMOOTH",
"360 345 OFFCURVE",
"346 348 OFFCURVE",
"322 348 CURVE SMOOTH",
"298 348 OFFCURVE",
"253 344 OFFCURVE",
"216 344 CURVE SMOOTH",
"188 344 OFFCURVE",
"163 344 OFFCURVE",
"146 345 CURVE SMOOTH",
"136 345 OFFCURVE",
"127 345 OFFCURVE",
"119 346 CURVE",
"118 357 OFFCURVE",
"118 367 OFFCURVE",
"118 378 CURVE SMOOTH",
"118 437 LINE SMOOTH",
"118 472 OFFCURVE",
"121 517 OFFCURVE",
"121 533 CURVE SMOOTH",
"121 548 OFFCURVE",
"120 553 OFFCURVE",
"131 553 CURVE SMOOTH",
"142 553 OFFCURVE",
"203 551 OFFCURVE",
"237 554 CURVE SMOOTH",
"272 557 OFFCURVE",
"313 552 OFFCURVE",
"350 553 CURVE SMOOTH",
"387 554 OFFCURVE",
"413 553 OFFCURVE",
"427 550 CURVE SMOOTH",
"439 548 OFFCURVE",
"460 535 OFFCURVE",
"463 560 CURVE SMOOTH",
"467 585 OFFCURVE",
"466 599 OFFCURVE",
"466 606 CURVE SMOOTH"
);
},
{
closed = 1;
nodes = (
"123 810 OFFCURVE",
"152 794 OFFCURVE",
"160 789 CURVE SMOOTH",
"187 772 OFFCURVE",
"200 765 OFFCURVE",
"227 746 CURVE",
"247 735 OFFCURVE",
"253 729 OFFCURVE",
"276 732 CURVE SMOOTH",
"281 732 OFFCURVE",
"287 733 OFFCURVE",
"294 736 CURVE",
"305 739 OFFCURVE",
"323 749 OFFCURVE",
"346 762 CURVE",
"376 785 OFFCURVE",
"384 786 OFFCURVE",
"394 791 CURVE",
"420 808 LINE SMOOTH",
"435 817 OFFCURVE",
"429 836 OFFCURVE",
"404 836 CURVE SMOOTH",
"391 836 OFFCURVE",
"379 835 OFFCURVE",
"366 833 CURVE",
"338 825 OFFCURVE",
"324 820 OFFCURVE",
"308 812 CURVE SMOOTH",
"301 808 OFFCURVE",
"286 801 OFFCURVE",
"263 791 CURVE",
"231 806 LINE",
"220 813 OFFCURVE",
"209 819 OFFCURVE",
"196 824 CURVE",
"169 831 LINE",
"145 840 OFFCURVE",
"131 844 OFFCURVE",
"126 823 CURVE SMOOTH"
);
}
);
width = 525;
}
);
unicode = 011A;
},
{
color = 0;
glyphname = Ecircumflex;
lastChange = "2013-12-03 23:06:54 -0500";
layers = (
{
layerId = UUID0;
name = Regular;
paths = (
{
closed = 1;
nodes = (
"466 633 OFFCURVE",
"462 654 OFFCURVE",
"462 673 CURVE SMOOTH",
"462 692 OFFCURVE",
"460 701 OFFCURVE",
"441 701 CURVE SMOOTH",
"422 701 OFFCURVE",
"371 705 OFFCURVE",
"330 705 CURVE SMOOTH",
"291 705 OFFCURVE",
"223 696 OFFCURVE",
"180 696 CURVE SMOOTH",
"135 696 OFFCURVE",
"117 699 OFFCURVE",
"102 699 CURVE SMOOTH",
"87 699 OFFCURVE",
"68 706 OFFCURVE",
"68 678 CURVE SMOOTH",
"67 650 OFFCURVE",
"65 591 OFFCURVE",
"65 531 CURVE SMOOTH",
"65 471 OFFCURVE",
"70 464 OFFCURVE",
"70 387 CURVE SMOOTH",
"70 310 OFFCURVE",
"63 292 OFFCURVE",
"63 232 CURVE SMOOTH",
"63 95 LINE SMOOTH",
"63 74 OFFCURVE",
"65 64 OFFCURVE",
"65 52 CURVE SMOOTH",
"65 40 OFFCURVE",
"65 26 OFFCURVE",
"66 15 CURVE SMOOTH",
"66 4 OFFCURVE",
"65 -4 OFFCURVE",
"80 -1 CURVE",
"93 -1 OFFCURVE",
"190 3 OFFCURVE",
"238 3 CURVE SMOOTH",
"285 3 OFFCURVE",
"381 1 OFFCURVE",
"414 1 CURVE SMOOTH",
"446 1 OFFCURVE",
"462 -5 OFFCURVE",
"462 23 CURVE SMOOTH",
"462 52 OFFCURVE",
"463 73 OFFCURVE",
"463 93 CURVE SMOOTH",
"463 111 OFFCURVE",
"472 137 OFFCURVE",
"439 134 CURVE SMOOTH",
"405 131 OFFCURVE",
"321 135 OFFCURVE",
"276 135 CURVE SMOOTH",
"231 135 OFFCURVE",
"181 134 OFFCURVE",
"158 134 CURVE SMOOTH",
"147 134 OFFCURVE",
"137 133 OFFCURVE",
"130 133 CURVE",
"126 132 OFFCURVE",
"122 132 OFFCURVE",
"119 132 CURVE",
"119 232 LINE",
"120 231 OFFCURVE",
"122 231 OFFCURVE",
"125 231 CURVE",
"127 230 OFFCURVE",
"131 230 OFFCURVE",
"138 230 CURVE SMOOTH",
"149 230 OFFCURVE",
"192 238 OFFCURVE",
"256 238 CURVE SMOOTH",
"319 238 OFFCURVE",
"340 236 OFFCURVE",
"356 236 CURVE SMOOTH",
"371 236 OFFCURVE",
"383 225 OFFCURVE",
"383 249 CURVE SMOOTH",
"383 274 OFFCURVE",
"382 283 OFFCURVE",
"382 302 CURVE SMOOTH",
"382 321 OFFCURVE",
"384 326 OFFCURVE",
"384 333 CURVE SMOOTH",
"384 340 OFFCURVE",
"382 345 OFFCURVE",
"371 345 CURVE SMOOTH",
"360 345 OFFCURVE",
"346 348 OFFCURVE",
"322 348 CURVE SMOOTH",
"298 348 OFFCURVE",
"253 344 OFFCURVE",
"216 344 CURVE SMOOTH",
"188 344 OFFCURVE",
"163 344 OFFCURVE",
"146 345 CURVE SMOOTH",
"136 345 OFFCURVE",
"127 345 OFFCURVE",
"119 346 CURVE",
"118 357 OFFCURVE",
"118 367 OFFCURVE",
"118 378 CURVE SMOOTH",
"118 437 LINE SMOOTH",
"118 472 OFFCURVE",
"121 517 OFFCURVE",
"121 533 CURVE SMOOTH",
"121 548 OFFCURVE",
"120 553 OFFCURVE",
"131 553 CURVE SMOOTH",
"142 553 OFFCURVE",
"203 551 OFFCURVE",
"237 554 CURVE SMOOTH",
"272 557 OFFCURVE",
"313 552 OFFCURVE",
"350 553 CURVE SMOOTH",
"387 554 OFFCURVE",
"413 553 OFFCURVE",
"427 550 CURVE SMOOTH",
"439 548 OFFCURVE",
"460 535 OFFCURVE",
"463 560 CURVE SMOOTH",
"467 585 OFFCURVE",
"466 599 OFFCURVE",
"466 606 CURVE SMOOTH"
);
},
{
closed = 1;
nodes = (
"421 759 OFFCURVE",
"392 775 OFFCURVE",
"384 780 CURVE SMOOTH",
"357 797 OFFCURVE",
"344 804 OFFCURVE",
"317 823 CURVE",
"297 834 OFFCURVE",
"291 840 OFFCURVE",
"268 837 CURVE SMOOTH",
"263 837 OFFCURVE",
"257 836 OFFCURVE",
"250 833 CURVE",
"239 830 OFFCURVE",
"221 820 OFFCURVE",
"198 807 CURVE",
"168 784 OFFCURVE",
"160 783 OFFCURVE",
"150 778 CURVE",
"123 761 LINE SMOOTH",
"110 752 OFFCURVE",
"115 733 OFFCURVE",
"140 733 CURVE SMOOTH",
"153 733 OFFCURVE",
"165 734 OFFCURVE",
"178 736 CURVE",
"206 744 OFFCURVE",
"220 749 OFFCURVE",
"235 757 CURVE",
"281 778 LINE",
"313 763 LINE",
"324 756 OFFCURVE",
"335 750 OFFCURVE",
"348 745 CURVE",
"375 738 LINE",
"399 729 OFFCURVE",
"413 725 OFFCURVE",
"418 746 CURVE SMOOTH"
);
}
);
width = 504;
}
);
unicode = 00CA;
},
{
color = 0;
glyphname = Edieresis;
lastChange = "2013-12-03 23:06:54 -0500";
layers = (
{
layerId = UUID0;
name = Regular;
paths = (
{
closed = 1;
nodes = (
"466 633 OFFCURVE",
"462 654 OFFCURVE",
"462 673 CURVE SMOOTH",
"462 692 OFFCURVE",
"460 701 OFFCURVE",
"441 701 CURVE SMOOTH",
"422 701 OFFCURVE",
"371 705 OFFCURVE",
"330 705 CURVE SMOOTH",
"291 705 OFFCURVE",
"223 696 OFFCURVE",
"180 696 CURVE SMOOTH",
"135 696 OFFCURVE",
"117 699 OFFCURVE",
"102 699 CURVE SMOOTH",
"87 699 OFFCURVE",
"68 706 OFFCURVE",
"68 678 CURVE SMOOTH",
"67 650 OFFCURVE",
"65 591 OFFCURVE",
"65 531 CURVE SMOOTH",
"65 471 OFFCURVE",
"70 464 OFFCURVE",
"70 387 CURVE SMOOTH",
"70 310 OFFCURVE",
"63 292 OFFCURVE",
"63 232 CURVE SMOOTH",
"63 95 LINE SMOOTH",
"63 74 OFFCURVE",
"65 64 OFFCURVE",
"65 52 CURVE SMOOTH",
"65 40 OFFCURVE",
"65 26 OFFCURVE",
"66 15 CURVE SMOOTH",
"66 4 OFFCURVE",
"65 -4 OFFCURVE",
"80 -1 CURVE",
"93 -1 OFFCURVE",
"190 3 OFFCURVE",
"238 3 CURVE SMOOTH",
"285 3 OFFCURVE",
"381 1 OFFCURVE",
"414 1 CURVE SMOOTH",
"446 1 OFFCURVE",
"462 -5 OFFCURVE",
"462 23 CURVE SMOOTH",
"462 52 OFFCURVE",
"463 73 OFFCURVE",
"463 93 CURVE SMOOTH",
"463 111 OFFCURVE",
"472 137 OFFCURVE",
"439 134 CURVE SMOOTH",
"405 131 OFFCURVE",
"321 135 OFFCURVE",
"276 135 CURVE SMOOTH",
"231 135 OFFCURVE",
"181 134 OFFCURVE",
"158 134 CURVE SMOOTH",
"147 134 OFFCURVE",
"137 133 OFFCURVE",
"130 133 CURVE",
"126 132 OFFCURVE",
"122 132 OFFCURVE",
"119 132 CURVE",
"119 232 LINE",
"120 231 OFFCURVE",
"122 231 OFFCURVE",
"125 231 CURVE",
"127 230 OFFCURVE",
"131 230 OFFCURVE",
"138 230 CURVE SMOOTH",
"149 230 OFFCURVE",
"192 238 OFFCURVE",
"256 238 CURVE SMOOTH",
"319 238 OFFCURVE",
"340 236 OFFCURVE",
"356 236 CURVE SMOOTH",
"371 236 OFFCURVE",
"383 225 OFFCURVE",
"383 249 CURVE SMOOTH",
"383 274 OFFCURVE",
"382 283 OFFCURVE",
"382 302 CURVE SMOOTH",
"382 321 OFFCURVE",
"384 326 OFFCURVE",
"384 333 CURVE SMOOTH",
"384 340 OFFCURVE",
"382 345 OFFCURVE",
"371 345 CURVE SMOOTH",
"360 345 OFFCURVE",
"346 348 OFFCURVE",
"322 348 CURVE SMOOTH",
"298 348 OFFCURVE",
"253 344 OFFCURVE",
"216 344 CURVE SMOOTH",
"188 344 OFFCURVE",
"163 344 OFFCURVE",
"146 345 CURVE SMOOTH",
"136 345 OFFCURVE",
"127 345 OFFCURVE",
"119 346 CURVE",
"118 357 OFFCURVE",
"118 367 OFFCURVE",
"118 378 CURVE SMOOTH",
"118 437 LINE SMOOTH",
"118 472 OFFCURVE",
"121 517 OFFCURVE",
"121 533 CURVE SMOOTH",
"121 548 OFFCURVE",
"120 553 OFFCURVE",
"131 553 CURVE SMOOTH",
"142 553 OFFCURVE",
"203 551 OFFCURVE",
"237 554 CURVE SMOOTH",
"272 557 OFFCURVE",
"313 552 OFFCURVE",
"350 553 CURVE SMOOTH",
"387 554 OFFCURVE",
"413 553 OFFCURVE",
"427 550 CURVE SMOOTH",
"439 548 OFFCURVE",
"460 535 OFFCURVE",
"463 560 CURVE SMOOTH",
"467 585 OFFCURVE",
"466 599 OFFCURVE",
"466 606 CURVE SMOOTH"
);
},
{
closed = 1;
nodes = (
"215 817 OFFCURVE",
"180 833 OFFCURVE",
"149 833 CURVE SMOOTH",
"118 833 OFFCURVE",
"95 805 OFFCURVE",
"95 778 CURVE SMOOTH",
"95 742 OFFCURVE",
"126 720 OFFCURVE",
"153 720 CURVE SMOOTH",
"177 720 OFFCURVE",
"215 742 OFFCURVE",
"215 782 CURVE SMOOTH"
);
},
{
closed = 1;
nodes = (
"324 754 OFFCURVE",
"335 724 OFFCURVE",
"378 724 CURVE SMOOTH",
"421 724 OFFCURVE",
"441 751 OFFCURVE",
"441 778 CURVE SMOOTH",
"441 809 OFFCURVE",
"425 840 OFFCURVE",
"398 840 CURVE SMOOTH",
"371 840 OFFCURVE",
"324 833 OFFCURVE",
"324 778 CURVE SMOOTH"
);
}
);
width = 504;
}
);
unicode = 00CB;
},
{
color = 0;
glyphname = Edotaccent;
lastChange = "2013-12-03 23:06:54 -0500";
layers = (
{
layerId = UUID0;
name = Regular;
paths = (
{
closed = 1;
nodes = (
"466 633 OFFCURVE",
"462 654 OFFCURVE",
"462 673 CURVE SMOOTH",
"462 692 OFFCURVE",
"460 701 OFFCURVE",
"441 701 CURVE SMOOTH",
"422 701 OFFCURVE",
"371 705 OFFCURVE",
"330 705 CURVE SMOOTH",
"291 705 OFFCURVE",
"223 696 OFFCURVE",
"180 696 CURVE SMOOTH",
"135 696 OFFCURVE",
"117 699 OFFCURVE",
"102 699 CURVE SMOOTH",
"87 699 OFFCURVE",
"68 706 OFFCURVE",
"68 678 CURVE SMOOTH",
"67 650 OFFCURVE",
"65 591 OFFCURVE",
"65 531 CURVE SMOOTH",
"65 471 OFFCURVE",
"70 464 OFFCURVE",
"70 387 CURVE SMOOTH",
"70 310 OFFCURVE",
"63 292 OFFCURVE",
"63 232 CURVE SMOOTH",
"63 95 LINE SMOOTH",
"63 74 OFFCURVE",
"65 64 OFFCURVE",
"65 52 CURVE SMOOTH",
"65 40 OFFCURVE",
"65 26 OFFCURVE",
"66 15 CURVE SMOOTH",
"66 4 OFFCURVE",
"65 -4 OFFCURVE",
"80 -1 CURVE",
"93 -1 OFFCURVE",
"190 3 OFFCURVE",
"238 3 CURVE SMOOTH",
"285 3 OFFCURVE",
"381 1 OFFCURVE",
"414 1 CURVE SMOOTH",
"446 1 OFFCURVE",
"462 -5 OFFCURVE",
"462 23 CURVE SMOOTH",
"462 52 OFFCURVE",
"463 73 OFFCURVE",
"463 93 CURVE SMOOTH",
"463 111 OFFCURVE",
"472 137 OFFCURVE",
"439 134 CURVE SMOOTH",
"405 131 OFFCURVE",
"321 135 OFFCURVE",
"276 135 CURVE SMOOTH",
"231 135 OFFCURVE",
"181 134 OFFCURVE",
"158 134 CURVE SMOOTH",
"147 134 OFFCURVE",
"137 133 OFFCURVE",
"130 133 CURVE",
"126 132 OFFCURVE",
"122 132 OFFCURVE",
"119 132 CURVE",
"119 232 LINE",
"120 231 OFFCURVE",
"122 231 OFFCURVE",
"125 231 CURVE",
"127 230 OFFCURVE",
"131 230 OFFCURVE",
"138 230 CURVE SMOOTH",
"149 230 OFFCURVE",
"192 238 OFFCURVE",
"256 238 CURVE SMOOTH",
"319 238 OFFCURVE",
"340 236 OFFCURVE",
"356 236 CURVE SMOOTH",
"371 236 OFFCURVE",
"383 225 OFFCURVE",
"383 249 CURVE SMOOTH",
"383 274 OFFCURVE",
"382 283 OFFCURVE",
"382 302 CURVE SMOOTH",
"382 321 OFFCURVE",
"384 326 OFFCURVE",
"384 333 CURVE SMOOTH",
"384 340 OFFCURVE",
"382 345 OFFCURVE",
"371 345 CURVE SMOOTH",
"360 345 OFFCURVE",
"346 348 OFFCURVE",
"322 348 CURVE SMOOTH",
"298 348 OFFCURVE",
"253 344 OFFCURVE",
"216 344 CURVE SMOOTH",
"188 344 OFFCURVE",
"163 344 OFFCURVE",
"146 345 CURVE SMOOTH",
"136 345 OFFCURVE",
"127 345 OFFCURVE",
"119 346 CURVE",
"118 357 OFFCURVE",
"118 367 OFFCURVE",
"118 378 CURVE SMOOTH",
"118 437 LINE SMOOTH",
"118 472 OFFCURVE",
"121 517 OFFCURVE",
"121 533 CURVE SMOOTH",
"121 548 OFFCURVE",
"120 553 OFFCURVE",
"131 553 CURVE SMOOTH",
"142 553 OFFCURVE",
"203 551 OFFCURVE",
"237 554 CURVE SMOOTH",
"272 557 OFFCURVE",
"313 552 OFFCURVE",
"350 553 CURVE SMOOTH",
"387 554 OFFCURVE",
"413 553 OFFCURVE",
"427 550 CURVE SMOOTH",
"439 548 OFFCURVE",
"460 535 OFFCURVE",
"463 560 CURVE SMOOTH",
"467 585 OFFCURVE",
"466 599 OFFCURVE",
"466 606 CURVE SMOOTH"
);
},
{
closed = 1;
nodes = (
"332 821 OFFCURVE",
"295 840 OFFCURVE",
"262 840 CURVE SMOOTH",
"230 840 OFFCURVE",
"205 810 OFFCURVE",
"205 781 CURVE SMOOTH",
"205 744 OFFCURVE",
"238 720 OFFCURVE",
"266 720 CURVE SMOOTH",
"292 720 OFFCURVE",
"332 742 OFFCURVE",
"332 786 CURVE SMOOTH"
);
}
);
width = 525;
}
);
unicode = 0116;
},
{
color = 0;
glyphname = Edotbelow;
lastChange = "2013-12-03 23:06:54 -0500";
layers = (
{
layerId = UUID0;
name = Regular;
paths = (
{
closed = 1;
nodes = (
"466 633 OFFCURVE",
"462 654 OFFCURVE",
"462 673 CURVE SMOOTH",
"462 692 OFFCURVE",
"460 701 OFFCURVE",
"441 701 CURVE SMOOTH",
"422 701 OFFCURVE",
"371 705 OFFCURVE",
"330 705 CURVE SMOOTH",
"291 705 OFFCURVE",
"223 696 OFFCURVE",
"180 696 CURVE SMOOTH",
"135 696 OFFCURVE",
"117 699 OFFCURVE",
"102 699 CURVE SMOOTH",
"87 699 OFFCURVE",
"68 706 OFFCURVE",
"68 678 CURVE SMOOTH",
"67 650 OFFCURVE",
"65 591 OFFCURVE",
"65 531 CURVE SMOOTH",
"65 471 OFFCURVE",
"70 464 OFFCURVE",
"70 387 CURVE SMOOTH",
"70 310 OFFCURVE",
"63 292 OFFCURVE",
"63 232 CURVE SMOOTH",
"63 95 LINE SMOOTH",
"63 74 OFFCURVE",
"65 64 OFFCURVE",
"65 52 CURVE SMOOTH",
"65 40 OFFCURVE",
"65 26 OFFCURVE",
"66 15 CURVE SMOOTH",
"66 4 OFFCURVE",
"65 -4 OFFCURVE",
"80 -1 CURVE",
"93 -1 OFFCURVE",
"190 3 OFFCURVE",
"238 3 CURVE SMOOTH",
"285 3 OFFCURVE",
"381 1 OFFCURVE",
"414 1 CURVE SMOOTH",
"446 1 OFFCURVE",
"462 -5 OFFCURVE",
"462 23 CURVE SMOOTH",
"462 52 OFFCURVE",
"463 73 OFFCURVE",
"463 93 CURVE SMOOTH",
"463 111 OFFCURVE",
"472 137 OFFCURVE",
"439 134 CURVE SMOOTH",
"405 131 OFFCURVE",
"321 135 OFFCURVE",
"276 135 CURVE SMOOTH",
"231 135 OFFCURVE",
"181 134 OFFCURVE",
"158 134 CURVE SMOOTH",
"147 134 OFFCURVE",
"137 133 OFFCURVE",
"130 133 CURVE",
"126 132 OFFCURVE",
"122 132 OFFCURVE",
"119 132 CURVE",
"119 232 LINE",
"120 231 OFFCURVE",
"122 231 OFFCURVE",
"125 231 CURVE",
"127 230 OFFCURVE",
"131 230 OFFCURVE",
"138 230 CURVE SMOOTH",
"149 230 OFFCURVE",
"192 238 OFFCURVE",
"256 238 CURVE SMOOTH",
"319 238 OFFCURVE",
"340 236 OFFCURVE",
"356 236 CURVE SMOOTH",
"371 236 OFFCURVE",
"383 225 OFFCURVE",
"383 249 CURVE SMOOTH",
"383 274 OFFCURVE",
"382 283 OFFCURVE",
"382 302 CURVE SMOOTH",
"382 321 OFFCURVE",
"384 326 OFFCURVE",
"384 333 CURVE SMOOTH",
"384 340 OFFCURVE",
"382 345 OFFCURVE",
"371 345 CURVE SMOOTH",
"360 345 OFFCURVE",
"346 348 OFFCURVE",
"322 348 CURVE SMOOTH",
"298 348 OFFCURVE",
"253 344 OFFCURVE",
"216 344 CURVE SMOOTH",
"188 344 OFFCURVE",
"163 344 OFFCURVE",
"146 345 CURVE SMOOTH",
"136 345 OFFCURVE",
"127 345 OFFCURVE",
"119 346 CURVE",
"118 357 OFFCURVE",
"118 367 OFFCURVE",
"118 378 CURVE SMOOTH",
"118 437 LINE SMOOTH",
"118 472 OFFCURVE",
"121 517 OFFCURVE",
"121 533 CURVE SMOOTH",
"121 548 OFFCURVE",
"120 553 OFFCURVE",
"131 553 CURVE SMOOTH",
"142 553 OFFCURVE",
"203 551 OFFCURVE",
"237 554 CURVE SMOOTH",
"272 557 OFFCURVE",
"313 552 OFFCURVE",
"350 553 CURVE SMOOTH",
"387 554 OFFCURVE",
"413 553 OFFCURVE",
"427 550 CURVE SMOOTH",
"439 548 OFFCURVE",
"460 535 OFFCURVE",
"463 560 CURVE SMOOTH",
"467 585 OFFCURVE",
"466 599 OFFCURVE",
"466 606 CURVE SMOOTH"
);
},
{
closed = 1;
nodes = (
"322 -41 OFFCURVE",
"285 -22 OFFCURVE",
"252 -22 CURVE SMOOTH",
"220 -22 OFFCURVE",
"195 -52 OFFCURVE",
"195 -81 CURVE SMOOTH",
"195 -118 OFFCURVE",
"228 -142 OFFCURVE",
"256 -142 CURVE SMOOTH",
"282 -142 OFFCURVE",
"322 -120 OFFCURVE",
"322 -76 CURVE SMOOTH"
);
}
);
width = 525;
}
);
unicode = 1EB8;
},
{
color = 0;
glyphname = Egrave;
lastChange = "2013-12-03 23:06:54 -0500";
layers = (
{
layerId = UUID0;
name = Regular;
paths = (
{
closed = 1;
nodes = (
"466 633 OFFCURVE",
"462 654 OFFCURVE",
"462 673 CURVE SMOOTH",
"462 692 OFFCURVE",
"460 701 OFFCURVE",
"441 701 CURVE SMOOTH",
"422 701 OFFCURVE",
"371 705 OFFCURVE",
"330 705 CURVE SMOOTH",
"291 705 OFFCURVE",
"223 696 OFFCURVE",
"180 696 CURVE SMOOTH",
"135 696 OFFCURVE",
"117 699 OFFCURVE",
"102 699 CURVE SMOOTH",
"87 699 OFFCURVE",
"68 706 OFFCURVE",
"68 678 CURVE SMOOTH",
"67 650 OFFCURVE",
"65 591 OFFCURVE",
"65 531 CURVE SMOOTH",
"65 471 OFFCURVE",
"70 464 OFFCURVE",
"70 387 CURVE SMOOTH",
"70 310 OFFCURVE",
"63 292 OFFCURVE",
"63 232 CURVE SMOOTH",
"63 95 LINE SMOOTH",
"63 74 OFFCURVE",
"65 64 OFFCURVE",
"65 52 CURVE SMOOTH",
"65 40 OFFCURVE",
"65 26 OFFCURVE",
"66 15 CURVE SMOOTH",
"66 4 OFFCURVE",
"65 -4 OFFCURVE",
"80 -1 CURVE",
"93 -1 OFFCURVE",
"190 3 OFFCURVE",
"238 3 CURVE SMOOTH",
"285 3 OFFCURVE",
"381 1 OFFCURVE",
"414 1 CURVE SMOOTH",
"446 1 OFFCURVE",
"462 -5 OFFCURVE",
"462 23 CURVE SMOOTH",
"462 52 OFFCURVE",
"463 73 OFFCURVE",
"463 93 CURVE SMOOTH",
"463 111 OFFCURVE",
"472 137 OFFCURVE",
"439 134 CURVE SMOOTH",
"405 131 OFFCURVE",
"321 135 OFFCURVE",
"276 135 CURVE SMOOTH",
"231 135 OFFCURVE",
"181 134 OFFCURVE",
"158 134 CURVE SMOOTH",
"147 134 OFFCURVE",
"137 133 OFFCURVE",
"130 133 CURVE",
"126 132 OFFCURVE",
"122 132 OFFCURVE",
"119 132 CURVE",
"119 232 LINE",
"120 231 OFFCURVE",
"122 231 OFFCURVE",
"125 231 CURVE",
"127 230 OFFCURVE",
"131 230 OFFCURVE",
"138 230 CURVE SMOOTH",
"149 230 OFFCURVE",
"192 238 OFFCURVE",
"256 238 CURVE SMOOTH",
"319 238 OFFCURVE",
"340 236 OFFCURVE",
"356 236 CURVE SMOOTH",
"371 236 OFFCURVE",
"383 225 OFFCURVE",
"383 249 CURVE SMOOTH",
"383 274 OFFCURVE",
"382 283 OFFCURVE",
"382 302 CURVE SMOOTH",
"382 321 OFFCURVE",
"384 326 OFFCURVE",
"384 333 CURVE SMOOTH",
"384 340 OFFCURVE",
"382 345 OFFCURVE",
"371 345 CURVE SMOOTH",
"360 345 OFFCURVE",
"346 348 OFFCURVE",
"322 348 CURVE SMOOTH",
"298 348 OFFCURVE",
"253 344 OFFCURVE",
"216 344 CURVE SMOOTH",
"188 344 OFFCURVE",
"163 344 OFFCURVE",
"146 345 CURVE SMOOTH",
"136 345 OFFCURVE",
"127 345 OFFCURVE",
"119 346 CURVE",
"118 357 OFFCURVE",
"118 367 OFFCURVE",
"118 378 CURVE SMOOTH",
"118 437 LINE SMOOTH",
"118 472 OFFCURVE",
"121 517 OFFCURVE",
"121 533 CURVE SMOOTH",
"121 548 OFFCURVE",
"120 553 OFFCURVE",
"131 553 CURVE SMOOTH",
"142 553 OFFCURVE",
"203 551 OFFCURVE",
"237 554 CURVE SMOOTH",
"272 557 OFFCURVE",
"313 552 OFFCURVE",
"350 553 CURVE SMOOTH",
"387 554 OFFCURVE",
"413 553 OFFCURVE",
"427 550 CURVE SMOOTH",
"439 548 OFFCURVE",
"460 535 OFFCURVE",
"463 560 CURVE SMOOTH",
"467 585 OFFCURVE",
"466 599 OFFCURVE",
"466 606 CURVE SMOOTH"
);
},
{
closed = 1;
nodes = (
"355 793 OFFCURVE",
"321 802 OFFCURVE",
"310 807 CURVE",
"275 815 OFFCURVE",
"259 821 OFFCURVE",
"224 836 CURVE",
"200 844 OFFCURVE",
"190 848 OFFCURVE",
"171 836 CURVE",
"160 831 OFFCURVE",
"146 822 OFFCURVE",
"155 803 CURVE SMOOTH",
"158 795 OFFCURVE",
"194 783 OFFCURVE",
"205 780 CURVE",
"218 772 OFFCURVE",
"227 777 OFFCURVE",
"267 759 CURVE",
"289 751 LINE",
"302 748 OFFCURVE",
"316 746 OFFCURVE",
"324 747 CURVE",
"352 744 OFFCURVE",
"367 743 OFFCURVE",
"360 774 CURVE SMOOTH"
);
}
);
width = 504;
}
);
unicode = 00C8;
},
{
color = 0;
glyphname = Emacron;
lastChange = "2013-12-03 23:06:54 -0500";
layers = (
{
layerId = UUID0;
name = Regular;
paths = (
{
closed = 1;
nodes = (
"466 633 OFFCURVE",
"462 654 OFFCURVE",
"462 673 CURVE SMOOTH",
"462 692 OFFCURVE",
"460 701 OFFCURVE",
"441 701 CURVE SMOOTH",
"422 701 OFFCURVE",
"371 705 OFFCURVE",
"330 705 CURVE SMOOTH",
"291 705 OFFCURVE",
"223 696 OFFCURVE",
"180 696 CURVE SMOOTH",
"135 696 OFFCURVE",
"117 699 OFFCURVE",
"102 699 CURVE SMOOTH",
"87 699 OFFCURVE",
"68 706 OFFCURVE",
"68 678 CURVE SMOOTH",
"67 650 OFFCURVE",
"65 591 OFFCURVE",
"65 531 CURVE SMOOTH",
"65 471 OFFCURVE",
"70 464 OFFCURVE",
"70 387 CURVE SMOOTH",
"70 310 OFFCURVE",
"63 292 OFFCURVE",
"63 232 CURVE SMOOTH",
"63 95 LINE SMOOTH",
"63 74 OFFCURVE",
"65 64 OFFCURVE",
"65 52 CURVE SMOOTH",
"65 40 OFFCURVE",
"65 26 OFFCURVE",
"66 15 CURVE SMOOTH",
"66 4 OFFCURVE",
"65 -4 OFFCURVE",
"80 -1 CURVE",
"93 -1 OFFCURVE",
"190 3 OFFCURVE",
"238 3 CURVE SMOOTH",
"285 3 OFFCURVE",
"381 1 OFFCURVE",
"414 1 CURVE SMOOTH",
"446 1 OFFCURVE",
"462 -5 OFFCURVE",
"462 23 CURVE SMOOTH",
"462 52 OFFCURVE",
"463 73 OFFCURVE",
"463 93 CURVE SMOOTH",
"463 111 OFFCURVE",
"472 137 OFFCURVE",
"439 134 CURVE SMOOTH",
"405 131 OFFCURVE",
"321 135 OFFCURVE",
"276 135 CURVE SMOOTH",
"231 135 OFFCURVE",
"181 134 OFFCURVE",
"158 134 CURVE SMOOTH",
"147 134 OFFCURVE",
"137 133 OFFCURVE",
"130 133 CURVE",
"126 132 OFFCURVE",
"122 132 OFFCURVE",
"119 132 CURVE",
"119 232 LINE",
"120 231 OFFCURVE",
"122 231 OFFCURVE",
"125 231 CURVE",
"127 230 OFFCURVE",
"131 230 OFFCURVE",
"138 230 CURVE SMOOTH",
"149 230 OFFCURVE",
"192 238 OFFCURVE",
"256 238 CURVE SMOOTH",
"319 238 OFFCURVE",
"340 236 OFFCURVE",
"356 236 CURVE SMOOTH",
"371 236 OFFCURVE",
"383 225 OFFCURVE",
"383 249 CURVE SMOOTH",
"383 274 OFFCURVE",
"382 283 OFFCURVE",
"382 302 CURVE SMOOTH",
"382 321 OFFCURVE",
"384 326 OFFCURVE",
"384 333 CURVE SMOOTH",
"384 340 OFFCURVE",
"382 345 OFFCURVE",
"371 345 CURVE SMOOTH",
"360 345 OFFCURVE",
"346 348 OFFCURVE",
"322 348 CURVE SMOOTH",
"298 348 OFFCURVE",
"253 344 OFFCURVE",
"216 344 CURVE SMOOTH",
"188 344 OFFCURVE",
"163 344 OFFCURVE",
"146 345 CURVE SMOOTH",
"136 345 OFFCURVE",
"127 345 OFFCURVE",
"119 346 CURVE",
"118 357 OFFCURVE",
"118 367 OFFCURVE",
"118 378 CURVE SMOOTH",
"118 437 LINE SMOOTH",
"118 472 OFFCURVE",
"121 517 OFFCURVE",
"121 533 CURVE SMOOTH",
"121 548 OFFCURVE",
"120 553 OFFCURVE",
"131 553 CURVE SMOOTH",
"142 553 OFFCURVE",
"203 551 OFFCURVE",
"237 554 CURVE SMOOTH",
"272 557 OFFCURVE",
"313 552 OFFCURVE",
"350 553 CURVE SMOOTH",
"387 554 OFFCURVE",
"413 553 OFFCURVE",
"427 550 CURVE SMOOTH",
"439 548 OFFCURVE",
"460 535 OFFCURVE",
"463 560 CURVE SMOOTH",
"467 585 OFFCURVE",
"466 599 OFFCURVE",
"466 606 CURVE SMOOTH"
);
},
{
closed = 1;
nodes = (
"289 831 LINE",
"163 831 LINE",
"131 831 LINE SMOOTH",
"122 831 OFFCURVE",
"120 825 OFFCURVE",
"120 812 CURVE SMOOTH",
"120 785 LINE SMOOTH",
"120 778 OFFCURVE",
"120 772 OFFCURVE",
"128 772 CURVE",
"133 775 OFFCURVE",
"171 775 OFFCURVE",
"179 775 CURVE SMOOTH",
"311 775 LINE SMOOTH",
"335 775 OFFCURVE",
"377 772 OFFCURVE",
"395 772 CURVE SMOOTH",
"414 772 OFFCURVE",
"417 776 OFFCURVE",
"417 785 CURVE SMOOTH",
"417 815 LINE SMOOTH",
"417 826 OFFCURVE",
"417 834 OFFCURVE",
"399 831 CURVE"
);
}
);
width = 525;
}
);
unicode = 0112;
},
{
color = 0;
glyphname = Eogonek;
lastChange = "2013-12-03 23:06:54 -0500";
layers = (
{
layerId = UUID0;
name = Regular;
paths = (
{
closed = 1;
nodes = (
"466 633 OFFCURVE",
"462 654 OFFCURVE",
"462 673 CURVE SMOOTH",
"462 692 OFFCURVE",
"460 701 OFFCURVE",
"441 701 CURVE SMOOTH",
"422 701 OFFCURVE",
"371 705 OFFCURVE",
"330 705 CURVE SMOOTH",
"291 705 OFFCURVE",
"223 696 OFFCURVE",
"180 696 CURVE SMOOTH",
"135 696 OFFCURVE",
"117 699 OFFCURVE",
"102 699 CURVE SMOOTH",
"87 699 OFFCURVE",
"68 706 OFFCURVE",
"68 678 CURVE SMOOTH",
"67 650 OFFCURVE",
"65 591 OFFCURVE",
"65 531 CURVE SMOOTH",
"65 471 OFFCURVE",
"70 464 OFFCURVE",
"70 387 CURVE SMOOTH",
"70 310 OFFCURVE",
"63 292 OFFCURVE",
"63 232 CURVE SMOOTH",
"63 95 LINE SMOOTH",
"63 74 OFFCURVE",
"65 64 OFFCURVE",
"65 52 CURVE SMOOTH",
"65 40 OFFCURVE",
"65 26 OFFCURVE",
"66 15 CURVE SMOOTH",
"66 4 OFFCURVE",
"65 -4 OFFCURVE",
"80 -1 CURVE",
"93 -1 OFFCURVE",
"190 3 OFFCURVE",
"238 3 CURVE SMOOTH",
"285 3 OFFCURVE",
"381 1 OFFCURVE",
"414 1 CURVE SMOOTH",
"446 1 OFFCURVE",
"462 -5 OFFCURVE",
"462 23 CURVE SMOOTH",
"462 52 OFFCURVE",
"463 73 OFFCURVE",
"463 93 CURVE SMOOTH",
"463 111 OFFCURVE",
"472 137 OFFCURVE",
"439 134 CURVE SMOOTH",
"405 131 OFFCURVE",
"321 135 OFFCURVE",
"276 135 CURVE SMOOTH",
"231 135 OFFCURVE",
"181 134 OFFCURVE",
"158 134 CURVE SMOOTH",
"147 134 OFFCURVE",
"137 133 OFFCURVE",
"130 133 CURVE",
"126 132 OFFCURVE",
"122 132 OFFCURVE",
"119 132 CURVE",
"119 232 LINE",
"120 231 OFFCURVE",
"122 231 OFFCURVE",
"125 231 CURVE",
"127 230 OFFCURVE",
"131 230 OFFCURVE",
"138 230 CURVE SMOOTH",
"149 230 OFFCURVE",
"192 238 OFFCURVE",
"256 238 CURVE SMOOTH",
"319 238 OFFCURVE",
"340 236 OFFCURVE",
"356 236 CURVE SMOOTH",
"371 236 OFFCURVE",
"383 225 OFFCURVE",
"383 249 CURVE SMOOTH",
"383 274 OFFCURVE",
"382 283 OFFCURVE",
"382 302 CURVE SMOOTH",
"382 321 OFFCURVE",
"384 326 OFFCURVE",
"384 333 CURVE SMOOTH",
"384 340 OFFCURVE",
"382 345 OFFCURVE",
"371 345 CURVE SMOOTH",
"360 345 OFFCURVE",
"346 348 OFFCURVE",
"322 348 CURVE SMOOTH",
"298 348 OFFCURVE",
"253 344 OFFCURVE",
"216 344 CURVE SMOOTH",
"188 344 OFFCURVE",
"163 344 OFFCURVE",
"146 345 CURVE SMOOTH",
"136 345 OFFCURVE",
"127 345 OFFCURVE",
"119 346 CURVE",
"118 357 OFFCURVE",
"118 367 OFFCURVE",
"118 378 CURVE SMOOTH",
"118 437 LINE SMOOTH",
"118 472 OFFCURVE",
"121 517 OFFCURVE",
"121 533 CURVE SMOOTH",
"121 548 OFFCURVE",
"120 553 OFFCURVE",
"131 553 CURVE SMOOTH",
"142 553 OFFCURVE",
"203 551 OFFCURVE",
"237 554 CURVE SMOOTH",
"272 557 OFFCURVE",
"313 552 OFFCURVE",
"350 553 CURVE SMOOTH",
"387 554 OFFCURVE",
"413 553 OFFCURVE",
"427 550 CURVE SMOOTH",
"439 548 OFFCURVE",
"460 535 OFFCURVE",
"463 560 CURVE SMOOTH",
"467 585 OFFCURVE",
"466 599 OFFCURVE",
"466 606 CURVE SMOOTH"
);
},
{
closed = 1;
nodes = (
"219 38 LINE",
"204 14 OFFCURVE",
"195 -1 OFFCURVE",
"192 -8 CURVE SMOOTH",
"189 -15 OFFCURVE",
"184 -27 OFFCURVE",
"178 -45 CURVE SMOOTH",
"172 -63 OFFCURVE",
"169 -78 OFFCURVE",
"169 -91 CURVE SMOOTH",
"172 -158 OFFCURVE",
"202 -172 OFFCURVE",
"251 -171 CURVE",
"287 -169 OFFCURVE",
"359 -126 OFFCURVE",
"359 -99 CURVE SMOOTH",
"359 -88 OFFCURVE",
"344 -71 OFFCURVE",
"336 -75 CURVE SMOOTH",
"328 -79 OFFCURVE",
"315 -101 OFFCURVE",
"260 -97 CURVE SMOOTH",
"243 -96 OFFCURVE",
"238 -73 OFFCURVE",
"241 -38 CURVE",
"245 -5 OFFCURVE",
"251 8 OFFCURVE",
"240 24 CURVE"
);
}
);
width = 525;
}
);
unicode = 0118;
},
{
color = 0;
glyphname = Etilde;
lastChange = "2013-12-03 23:06:54 -0500";
layers = (
{
layerId = UUID0;
name = Regular;
paths = (
{
closed = 1;
nodes = (
"466 633 OFFCURVE",
"462 654 OFFCURVE",
"462 673 CURVE SMOOTH",
"462 692 OFFCURVE",
"460 701 OFFCURVE",
"441 701 CURVE SMOOTH",
"422 701 OFFCURVE",
"371 705 OFFCURVE",
"330 705 CURVE SMOOTH",
"291 705 OFFCURVE",
"223 696 OFFCURVE",
"180 696 CURVE SMOOTH",
"135 696 OFFCURVE",
"117 699 OFFCURVE",
"102 699 CURVE SMOOTH",
"87 699 OFFCURVE",
"68 706 OFFCURVE",
"68 678 CURVE SMOOTH",
"67 650 OFFCURVE",
"65 591 OFFCURVE",
"65 531 CURVE SMOOTH",
"65 471 OFFCURVE",
"70 464 OFFCURVE",
"70 387 CURVE SMOOTH",
"70 310 OFFCURVE",
"63 292 OFFCURVE",
"63 232 CURVE SMOOTH",
"63 95 LINE SMOOTH",
"63 74 OFFCURVE",
"65 64 OFFCURVE",
"65 52 CURVE SMOOTH",
"65 40 OFFCURVE",
"65 26 OFFCURVE",
"66 15 CURVE SMOOTH",
"66 4 OFFCURVE",
"65 -4 OFFCURVE",
"80 -1 CURVE",
"93 -1 OFFCURVE",
"190 3 OFFCURVE",
"238 3 CURVE SMOOTH",
"285 3 OFFCURVE",
"381 1 OFFCURVE",
"414 1 CURVE SMOOTH",
"446 1 OFFCURVE",
"462 -5 OFFCURVE",
"462 23 CURVE SMOOTH",
"462 52 OFFCURVE",
"463 73 OFFCURVE",
"463 93 CURVE SMOOTH",
"463 111 OFFCURVE",
"472 137 OFFCURVE",
"439 134 CURVE SMOOTH",
"405 131 OFFCURVE",
"321 135 OFFCURVE",
"276 135 CURVE SMOOTH",
"231 135 OFFCURVE",
"181 134 OFFCURVE",
"158 134 CURVE SMOOTH",
"147 134 OFFCURVE",
"137 133 OFFCURVE",
"130 133 CURVE",
"126 132 OFFCURVE",
"122 132 OFFCURVE",
"119 132 CURVE",
"119 232 LINE",
"120 231 OFFCURVE",
"122 231 OFFCURVE",
"125 231 CURVE",
"127 230 OFFCURVE",
"131 230 OFFCURVE",
"138 230 CURVE SMOOTH",
"149 230 OFFCURVE",
"192 238 OFFCURVE",
"256 238 CURVE SMOOTH",
"319 238 OFFCURVE",
"340 236 OFFCURVE",
"356 236 CURVE SMOOTH",
"371 236 OFFCURVE",
"383 225 OFFCURVE",
"383 249 CURVE SMOOTH",
"383 274 OFFCURVE",
"382 283 OFFCURVE",
"382 302 CURVE SMOOTH",
"382 321 OFFCURVE",
"384 326 OFFCURVE",
"384 333 CURVE SMOOTH",
"384 340 OFFCURVE",
"382 345 OFFCURVE",
"371 345 CURVE SMOOTH",
"360 345 OFFCURVE",
"346 348 OFFCURVE",
"322 348 CURVE SMOOTH",
"298 348 OFFCURVE",
"253 344 OFFCURVE",
"216 344 CURVE SMOOTH",
"188 344 OFFCURVE",
"163 344 OFFCURVE",
"146 345 CURVE SMOOTH",
"136 345 OFFCURVE",
"127 345 OFFCURVE",
"119 346 CURVE",
"118 357 OFFCURVE",
"118 367 OFFCURVE",
"118 378 CURVE SMOOTH",
"118 437 LINE SMOOTH",
"118 472 OFFCURVE",
"121 517 OFFCURVE",
"121 533 CURVE SMOOTH",
"121 548 OFFCURVE",
"120 553 OFFCURVE",
"131 553 CURVE SMOOTH",
"142 553 OFFCURVE",
"203 551 OFFCURVE",
"237 554 CURVE SMOOTH",
"272 557 OFFCURVE",
"313 552 OFFCURVE",
"350 553 CURVE SMOOTH",
"387 554 OFFCURVE",
"413 553 OFFCURVE",
"427 550 CURVE SMOOTH",
"439 548 OFFCURVE",
"460 535 OFFCURVE",
"463 560 CURVE SMOOTH",
"467 585 OFFCURVE",
"466 599 OFFCURVE",
"466 606 CURVE SMOOTH"
);
},
{
closed = 1;
nodes = (
"116 823 OFFCURVE",
"100 836 OFFCURVE",
"97 823 CURVE SMOOTH",
"94 811 OFFCURVE",
"95 795 OFFCURVE",
"95 787 CURVE SMOOTH",
"95 778 OFFCURVE",
"100 764 OFFCURVE",
"161 764 CURVE SMOOTH",
"200 764 OFFCURVE",
"216 769 OFFCURVE",
"251 772 CURVE SMOOTH",
"286 775 OFFCURVE",
"309 782 OFFCURVE",
"356 783 CURVE SMOOTH",
"380 783 OFFCURVE",
"403 771 OFFCURVE",
"422 771 CURVE SMOOTH",
"437 771 OFFCURVE",
"445 776 OFFCURVE",
"445 787 CURVE SMOOTH",
"445 802 LINE",
"443 810 OFFCURVE",
"454 825 OFFCURVE",
"416 827 CURVE",
"397 830 OFFCURVE",
"376 831 OFFCURVE",
"352 831 CURVE SMOOTH",
"300 831 OFFCURVE",
"261 828 OFFCURVE",
"233 823 CURVE SMOOTH",
"205 818 OFFCURVE",
"189 814 OFFCURVE",
"161 814 CURVE"
);
}
);
width = 525;
}
);
unicode = 1EBC;
},
{
color = 0;
glyphname = F;
lastChange = "2013-12-03 23:06:54 -0500";
layers = (
{
layerId = UUID0;
name = Regular;
paths = (
{
closed = 1;
nodes = (
"87 690 OFFCURVE",
"68 704 OFFCURVE",
"68 662 CURVE",
"69 621 OFFCURVE",
"70 571 OFFCURVE",
"70 524 CURVE SMOOTH",
"70 477 OFFCURVE",
"67 432 OFFCURVE",
"67 388 CURVE SMOOTH",
"67 344 OFFCURVE",
"68 317 OFFCURVE",
"68 274 CURVE SMOOTH",
"68 231 OFFCURVE",
"62 212 OFFCURVE",
"62 169 CURVE SMOOTH",
"62 126 OFFCURVE",
"64 92 OFFCURVE",
"64 77 CURVE SMOOTH",
"64 62 OFFCURVE",
"65 36 OFFCURVE",
"65 24 CURVE SMOOTH",
"65 12 OFFCURVE",
"62 5 OFFCURVE",
"81 4 CURVE SMOOTH",
"97 4 OFFCURVE",
"163 7 OFFCURVE",
"191 4 CURVE SMOOTH",
"219 1 OFFCURVE",
"237 -2 OFFCURVE",
"237 25 CURVE SMOOTH",
"237 51 OFFCURVE",
"236 108 OFFCURVE",
"236 143 CURVE SMOOTH",
"236 178 OFFCURVE",
"239 206 OFFCURVE",
"239 241 CURVE SMOOTH",
"239 258 OFFCURVE",
"238 283 OFFCURVE",
"238 304 CURVE",
"237 316 OFFCURVE",
"237 329 OFFCURVE",
"237 342 CURVE",
"330 342 LINE SMOOTH",
"353 342 OFFCURVE",
"383 340 OFFCURVE",
"400 340 CURVE SMOOTH",
"419 340 OFFCURVE",
"423 343 OFFCURVE",
"423 354 CURVE SMOOTH",
"423 365 OFFCURVE",
"424 376 OFFCURVE",
"424 387 CURVE SMOOTH",
"424 398 OFFCURVE",
"420 404 OFFCURVE",
"397 404 CURVE SMOOTH",
"374 404 OFFCURVE",
"341 402 OFFCURVE",
"318 402 CURVE SMOOTH",
"306 402 OFFCURVE",
"287 401 OFFCURVE",
"270 401 CURVE",
"260 400 OFFCURVE",
"250 400 OFFCURVE",
"239 400 CURVE",
"239 424 LINE SMOOTH",
"239 439 OFFCURVE",
"240 456 OFFCURVE",
"240 475 CURVE SMOOTH",
"240 511 OFFCURVE",
"241 541 OFFCURVE",
"241 564 CURVE SMOOTH",
"241 575 OFFCURVE",
"242 588 OFFCURVE",
"243 599 CURVE SMOOTH",
"246 617 LINE",
"295 620 LINE",
"322 623 OFFCURVE",
"352 624 OFFCURVE",
"369 624 CURVE SMOOTH",
"404 624 OFFCURVE",
"444 622 OFFCURVE",
"456 622 CURVE SMOOTH",
"468 622 OFFCURVE",
"474 621 OFFCURVE",
"474 634 CURVE SMOOTH",
"474 684 LINE SMOOTH",
"474 694 OFFCURVE",
"466 699 OFFCURVE",
"451 699 CURVE SMOOTH",
"435 699 OFFCURVE",
"389 700 OFFCURVE",
"367 700 CURVE SMOOTH",
"346 700 OFFCURVE",
"275 694 OFFCURVE",
"254 694 CURVE SMOOTH",
"234 694 OFFCURVE",
"138 690 OFFCURVE",
"114 690 CURVE SMOOTH"
);
}
);
width = 476;
}
);
unicode = 0046;
},
{
color = 0;
glyphname = G;
lastChange = "2013-12-03 23:06:54 -0500";
layers = (
{
anchors = (
{
name = bottom;
position = "{296, 0}";
},
{
name = top;
position = "{296, 710}";
}
);
layerId = UUID0;
name = Regular;
paths = (
{
closed = 1;
nodes = (
"239 719 OFFCURVE",
"41 685 OFFCURVE",
"41 338 CURVE SMOOTH",
"41 37 OFFCURVE",
"253 -14 OFFCURVE",
"316 -14 CURVE SMOOTH",
"401 -14 OFFCURVE",
"541 42 OFFCURVE",
"557 311 CURVE",
"558 317 OFFCURVE",
"557 323 OFFCURVE",
"556 328 CURVE SMOOTH",
"553 337 OFFCURVE",
"548 345 OFFCURVE",
"533 346 CURVE SMOOTH",
"502 347 OFFCURVE",
"446 358 OFFCURVE",
"403 363 CURVE SMOOTH",
"363 367 OFFCURVE",
"330 372 OFFCURVE",
"321 373 CURVE SMOOTH",
"310 374 OFFCURVE",
"303 376 OFFCURVE",
"296 352 CURVE SMOOTH",
"292 336 OFFCURVE",
"289 326 OFFCURVE",
"288 318 CURVE SMOOTH",
"287 310 OFFCURVE",
"286 302 OFFCURVE",
"307 299 CURVE SMOOTH",
"318 298 OFFCURVE",
"330 296 OFFCURVE",
"342 294 CURVE SMOOTH",
"362 290 LINE",
"362 271 OFFCURVE",
"360 255 OFFCURVE",
"355 240 CURVE SMOOTH",
"347 215 OFFCURVE",
"331 190 OFFCURVE",
"299 190 CURVE SMOOTH",
"232 190 OFFCURVE",
"236 286 OFFCURVE",
"236 342 CURVE SMOOTH",
"236 400 OFFCURVE",
"256 486 OFFCURVE",
"300 486 CURVE SMOOTH",
"325 486 OFFCURVE",
"335 461 OFFCURVE",
"342 452 CURVE SMOOTH",
"349 443 OFFCURVE",
"349 429 OFFCURVE",
"365 436 CURVE",
"368 436 OFFCURVE",
"370 437 OFFCURVE",
"373 439 CURVE SMOOTH",
"378 442 OFFCURVE",
"384 445 OFFCURVE",
"392 452 CURVE",
"409 463 OFFCURVE",
"428 477 OFFCURVE",
"447 488 CURVE",
"467 497 OFFCURVE",
"503 517 OFFCURVE",
"519 525 CURVE SMOOTH",
"535 534 OFFCURVE",
"539 532 OFFCURVE",
"536 543 CURVE",
"532 552 OFFCURVE",
"526 572 OFFCURVE",
"521 583 CURVE SMOOTH",
"516 593 OFFCURVE",
"460 719 OFFCURVE",
"311 719 CURVE SMOOTH"
);
}
);
width = 592;
}
);
unicode = 0047;
},
{
color = 0;
glyphname = Gbreve;
lastChange = "2013-12-03 23:06:54 -0500";
layers = (
{
layerId = UUID0;
name = Regular;
paths = (
{
closed = 1;
nodes = (
"239 719 OFFCURVE",
"41 685 OFFCURVE",
"41 338 CURVE SMOOTH",
"41 37 OFFCURVE",
"253 -14 OFFCURVE",
"316 -14 CURVE SMOOTH",
"401 -14 OFFCURVE",
"541 42 OFFCURVE",
"557 311 CURVE",
"558 317 OFFCURVE",
"557 323 OFFCURVE",
"556 328 CURVE SMOOTH",
"553 337 OFFCURVE",
"548 345 OFFCURVE",
"533 346 CURVE SMOOTH",
"502 347 OFFCURVE",
"446 358 OFFCURVE",
"403 363 CURVE SMOOTH",
"363 367 OFFCURVE",
"330 372 OFFCURVE",
"321 373 CURVE SMOOTH",
"310 374 OFFCURVE",
"303 376 OFFCURVE",
"296 352 CURVE SMOOTH",
"292 336 OFFCURVE",
"289 326 OFFCURVE",
"288 318 CURVE SMOOTH",
"287 310 OFFCURVE",
"286 302 OFFCURVE",
"307 299 CURVE SMOOTH",
"318 298 OFFCURVE",
"330 296 OFFCURVE",
"342 294 CURVE SMOOTH",
"362 290 LINE",
"362 271 OFFCURVE",
"360 255 OFFCURVE",
"355 240 CURVE SMOOTH",
"347 215 OFFCURVE",
"331 190 OFFCURVE",
"299 190 CURVE SMOOTH",
"232 190 OFFCURVE",
"236 286 OFFCURVE",
"236 342 CURVE SMOOTH",
"236 400 OFFCURVE",
"256 486 OFFCURVE",
"300 486 CURVE SMOOTH",
"325 486 OFFCURVE",
"335 461 OFFCURVE",
"342 452 CURVE SMOOTH",
"349 443 OFFCURVE",
"349 429 OFFCURVE",
"365 436 CURVE",
"368 436 OFFCURVE",
"370 437 OFFCURVE",
"373 439 CURVE SMOOTH",
"378 442 OFFCURVE",
"384 445 OFFCURVE",
"392 452 CURVE",
"409 463 OFFCURVE",
"428 477 OFFCURVE",
"447 488 CURVE",
"467 497 OFFCURVE",
"503 517 OFFCURVE",
"519 525 CURVE SMOOTH",
"535 534 OFFCURVE",
"539 532 OFFCURVE",
"536 543 CURVE",
"532 552 OFFCURVE",
"526 572 OFFCURVE",
"521 583 CURVE SMOOTH",
"516 593 OFFCURVE",
"460 719 OFFCURVE",
"311 719 CURVE SMOOTH"
);
},
{
closed = 1;
nodes = (
"461 835 OFFCURVE",
"450 837 OFFCURVE",
"428 838 CURVE",
"412 837 OFFCURVE",
"403 834 OFFCURVE",
"401 831 CURVE",
"400 818 OFFCURVE",
"388 808 OFFCURVE",
"364 801 CURVE SMOOTH",
"341 795 OFFCURVE",
"320 792 OFFCURVE",
"303 792 CURVE",
"267 794 OFFCURVE",
"245 797 OFFCURVE",
"237 802 CURVE SMOOTH",
"230 807 OFFCURVE",
"224 816 OFFCURVE",
"221 829 CURVE",
"221 838 OFFCURVE",
"221 839 OFFCURVE",
"192 839 CURVE SMOOTH",
"164 839 OFFCURVE",
"163 839 OFFCURVE",
"163 836 CURVE SMOOTH",
"164 819 OFFCURVE",
"169 801 OFFCURVE",
"178 780 CURVE SMOOTH",
"183 769 OFFCURVE",
"192 760 OFFCURVE",
"205 753 CURVE SMOOTH",
"218 746 OFFCURVE",
"252 741 OFFCURVE",
"305 738 CURVE",
"352 738 OFFCURVE",
"384 742 OFFCURVE",
"401 751 CURVE SMOOTH",
"418 760 OFFCURVE",
"431 768 OFFCURVE",
"440 775 CURVE SMOOTH",
"460 790 OFFCURVE",
"461 824 OFFCURVE",
"461 832 CURVE SMOOTH"
);
}
);
width = 592;
}
);
unicode = 011E;
},
{
color = 0;
glyphname = Gcircumflex;
lastChange = "2013-12-03 23:06:54 -0500";
layers = (
{
layerId = UUID0;
name = Regular;
paths = (
{
closed = 1;
nodes = (
"239 719 OFFCURVE",
"41 685 OFFCURVE",
"41 338 CURVE SMOOTH",
"41 37 OFFCURVE",
"253 -14 OFFCURVE",
"316 -14 CURVE SMOOTH",
"401 -14 OFFCURVE",
"541 42 OFFCURVE",
"557 311 CURVE",
"558 317 OFFCURVE",
"557 323 OFFCURVE",
"556 328 CURVE SMOOTH",
"553 337 OFFCURVE",
"548 345 OFFCURVE",
"533 346 CURVE SMOOTH",
"502 347 OFFCURVE",
"446 358 OFFCURVE",
"403 363 CURVE SMOOTH",
"363 367 OFFCURVE",
"330 372 OFFCURVE",
"321 373 CURVE SMOOTH",
"310 374 OFFCURVE",
"303 376 OFFCURVE",
"296 352 CURVE SMOOTH",
"292 336 OFFCURVE",
"289 326 OFFCURVE",
"288 318 CURVE SMOOTH",
"287 310 OFFCURVE",
"286 302 OFFCURVE",
"307 299 CURVE SMOOTH",
"318 298 OFFCURVE",
"330 296 OFFCURVE",
"342 294 CURVE SMOOTH",
"362 290 LINE",
"362 271 OFFCURVE",
"360 255 OFFCURVE",
"355 240 CURVE SMOOTH",
"347 215 OFFCURVE",
"331 190 OFFCURVE",
"299 190 CURVE SMOOTH",
"232 190 OFFCURVE",
"236 286 OFFCURVE",
"236 342 CURVE SMOOTH",
"236 400 OFFCURVE",
"256 486 OFFCURVE",
"300 486 CURVE SMOOTH",
"325 486 OFFCURVE",
"335 461 OFFCURVE",
"342 452 CURVE SMOOTH",
"349 443 OFFCURVE",
"349 429 OFFCURVE",
"365 436 CURVE",
"368 436 OFFCURVE",
"370 437 OFFCURVE",
"373 439 CURVE SMOOTH",
"378 442 OFFCURVE",
"384 445 OFFCURVE",
"392 452 CURVE",
"409 463 OFFCURVE",
"428 477 OFFCURVE",
"447 488 CURVE",
"467 497 OFFCURVE",
"503 517 OFFCURVE",
"519 525 CURVE SMOOTH",
"535 534 OFFCURVE",
"539 532 OFFCURVE",
"536 543 CURVE",
"532 552 OFFCURVE",
"526 572 OFFCURVE",
"521 583 CURVE SMOOTH",
"516 593 OFFCURVE",
"460 719 OFFCURVE",
"311 719 CURVE SMOOTH"
);
},
{
closed = 1;
nodes = (
"463 759 OFFCURVE",
"434 775 OFFCURVE",
"426 780 CURVE SMOOTH",
"399 797 OFFCURVE",
"386 804 OFFCURVE",
"359 823 CURVE",
"339 834 OFFCURVE",
"333 840 OFFCURVE",
"310 837 CURVE SMOOTH",
"305 837 OFFCURVE",
"299 836 OFFCURVE",
"292 833 CURVE",
"281 830 OFFCURVE",
"263 820 OFFCURVE",
"240 807 CURVE",
"210 784 OFFCURVE",
"202 783 OFFCURVE",
"192 778 CURVE",
"165 761 LINE SMOOTH",
"152 752 OFFCURVE",
"157 733 OFFCURVE",
"182 733 CURVE SMOOTH",
"195 733 OFFCURVE",
"207 734 OFFCURVE",
"220 736 CURVE",
"248 744 OFFCURVE",
"262 749 OFFCURVE",
"277 757 CURVE",
"323 778 LINE",
"355 763 LINE",
"366 756 OFFCURVE",
"377 750 OFFCURVE",
"390 745 CURVE",
"417 738 LINE",
"441 729 OFFCURVE",
"455 725 OFFCURVE",
"460 746 CURVE SMOOTH"
);
}
);
width = 592;
}
);
unicode = 011C;
},
{
color = 0;
glyphname = Gcommaaccent;
lastChange = "2013-12-03 23:06:54 -0500";
layers = (
{
layerId = UUID0;
name = Regular;
paths = (
{
closed = 1;
nodes = (
"239 719 OFFCURVE",
"41 685 OFFCURVE",
"41 338 CURVE SMOOTH",
"41 37 OFFCURVE",
"253 -14 OFFCURVE",
"316 -14 CURVE SMOOTH",
"401 -14 OFFCURVE",
"541 42 OFFCURVE",
"557 311 CURVE",
"558 317 OFFCURVE",
"557 323 OFFCURVE",
"556 328 CURVE SMOOTH",
"553 337 OFFCURVE",
"548 345 OFFCURVE",
"533 346 CURVE SMOOTH",
"502 347 OFFCURVE",
"446 358 OFFCURVE",
"403 363 CURVE SMOOTH",
"363 367 OFFCURVE",
"330 372 OFFCURVE",
"321 373 CURVE SMOOTH",
"310 374 OFFCURVE",
"303 376 OFFCURVE",
"296 352 CURVE SMOOTH",
"292 336 OFFCURVE",
"289 326 OFFCURVE",
"288 318 CURVE SMOOTH",
"287 310 OFFCURVE",
"286 302 OFFCURVE",
"307 299 CURVE SMOOTH",
"318 298 OFFCURVE",
"330 296 OFFCURVE",
"342 294 CURVE SMOOTH",
"362 290 LINE",
"362 271 OFFCURVE",
"360 255 OFFCURVE",
"355 240 CURVE SMOOTH",
"347 215 OFFCURVE",
"331 190 OFFCURVE",
"299 190 CURVE SMOOTH",
"232 190 OFFCURVE",
"236 286 OFFCURVE",
"236 342 CURVE SMOOTH",
"236 400 OFFCURVE",
"256 486 OFFCURVE",
"300 486 CURVE SMOOTH",
"325 486 OFFCURVE",
"335 461 OFFCURVE",
"342 452 CURVE SMOOTH",
"349 443 OFFCURVE",
"349 429 OFFCURVE",
"365 436 CURVE",
"368 436 OFFCURVE",
"370 437 OFFCURVE",
"373 439 CURVE SMOOTH",
"378 442 OFFCURVE",
"384 445 OFFCURVE",
"392 452 CURVE",
"409 463 OFFCURVE",
"428 477 OFFCURVE",
"447 488 CURVE",
"467 497 OFFCURVE",
"503 517 OFFCURVE",
"519 525 CURVE SMOOTH",
"535 534 OFFCURVE",
"539 532 OFFCURVE",
"536 543 CURVE",
"532 552 OFFCURVE",
"526 572 OFFCURVE",
"521 583 CURVE SMOOTH",
"516 593 OFFCURVE",
"460 719 OFFCURVE",
"311 719 CURVE SMOOTH"
);
},
{
closed = 1;
nodes = (
"334 -41 LINE",
"294 -41 LINE SMOOTH",
"287 -41 OFFCURVE",
"280 -44 OFFCURVE",
"279 -51 CURVE",
"272 -71 LINE",
"264 -103 LINE",
"233 -201 LINE",
"233 -206 OFFCURVE",
"231 -211 OFFCURVE",
"239 -211 CURVE",
"244 -212 OFFCURVE",
"255 -212 OFFCURVE",
"271 -212 CURVE SMOOTH",
"288 -212 OFFCURVE",
"298 -212 OFFCURVE",
"301 -211 CURVE SMOOTH",
"305 -208 OFFCURVE",
"308 -201 OFFCURVE",
"309 -198 CURVE SMOOTH",
"309 -195 OFFCURVE",
"311 -187 OFFCURVE",
"314 -176 CURVE SMOOTH",
"316 -171 OFFCURVE",
"321 -157 OFFCURVE",
"328 -134 CURVE SMOOTH",
"340 -96 LINE SMOOTH",
"344 -83 OFFCURVE",
"349 -73 OFFCURVE",
"350 -66 CURVE",
"353 -61 OFFCURVE",
"354 -57 OFFCURVE",
"355 -49 CURVE",
"359 -42 OFFCURVE",
"355 -41 OFFCURVE",
"350 -41 CURVE SMOOTH"
);
}
);
width = 592;
}
);
unicode = 0122;
},
{
color = 0;
glyphname = Gdotaccent;
lastChange = "2013-12-03 23:06:54 -0500";
layers = (
{
layerId = UUID0;
name = Regular;
paths = (
{
closed = 1;
nodes = (
"274 689 OFFCURVE",
"208 679 OFFCURVE",
"145 632 CURVE SMOOTH",
"105 603 OFFCURVE",
"76 570 OFFCURVE",
"56 487 CURVE SMOOTH",
"46 446 OFFCURVE",
"41 396 OFFCURVE",
"41 338 CURVE SMOOTH",
"41 37 OFFCURVE",
"253 -14 OFFCURVE",
"316 -14 CURVE SMOOTH",
"401 -14 OFFCURVE",
"541 42 OFFCURVE",
"557 311 CURVE",
"558 317 OFFCURVE",
"557 323 OFFCURVE",
"556 328 CURVE SMOOTH",
"553 337 OFFCURVE",
"548 345 OFFCURVE",
"533 346 CURVE SMOOTH",
"502 347 OFFCURVE",
"446 358 OFFCURVE",
"403 363 CURVE SMOOTH",
"363 367 OFFCURVE",
"330 372 OFFCURVE",
"321 373 CURVE SMOOTH",
"310 374 OFFCURVE",
"303 376 OFFCURVE",
"296 352 CURVE SMOOTH",
"292 336 OFFCURVE",
"289 326 OFFCURVE",
"288 318 CURVE SMOOTH",
"287 310 OFFCURVE",
"286 302 OFFCURVE",
"307 299 CURVE SMOOTH",
"318 298 OFFCURVE",
"330 296 OFFCURVE",
"342 294 CURVE SMOOTH",
"362 290 LINE",
"362 271 OFFCURVE",
"360 255 OFFCURVE",
"355 240 CURVE SMOOTH",
"347 215 OFFCURVE",
"331 190 OFFCURVE",
"299 190 CURVE SMOOTH",
"232 190 OFFCURVE",
"236 286 OFFCURVE",
"236 342 CURVE SMOOTH",
"236 400 OFFCURVE",
"256 486 OFFCURVE",
"300 486 CURVE SMOOTH",
"325 486 OFFCURVE",
"335 461 OFFCURVE",
"342 452 CURVE SMOOTH",
"349 443 OFFCURVE",
"349 429 OFFCURVE",
"365 436 CURVE",
"368 436 OFFCURVE",
"370 437 OFFCURVE",
"373 439 CURVE SMOOTH",
"378 442 OFFCURVE",
"384 445 OFFCURVE",
"392 452 CURVE",
"409 463 OFFCURVE",
"428 477 OFFCURVE",
"447 488 CURVE",
"467 497 OFFCURVE",
"503 517 OFFCURVE",
"519 525 CURVE SMOOTH",
"535 534 OFFCURVE",
"539 532 OFFCURVE",
"536 543 CURVE",
"532 552 OFFCURVE",
"526 572 OFFCURVE",
"521 583 CURVE SMOOTH",
"518 588 OFFCURVE",
"505 622 OFFCURVE",
"464 653 CURVE SMOOTH",
"424 684 OFFCURVE",
"386 689 OFFCURVE",
"311 689 CURVE SMOOTH"
);
},
{
closed = 1;
nodes = (
"375 821 OFFCURVE",
"338 840 OFFCURVE",
"305 840 CURVE SMOOTH",
"273 840 OFFCURVE",
"248 810 OFFCURVE",
"248 781 CURVE SMOOTH",
"248 744 OFFCURVE",
"281 720 OFFCURVE",
"309 720 CURVE SMOOTH",
"335 720 OFFCURVE",
"375 742 OFFCURVE",
"375 786 CURVE SMOOTH"
);
}
);
width = 592;
}
);
unicode = 0120;
},
{
color = 0;
glyphname = H;
lastChange = "2013-12-03 23:06:54 -0500";
layers = (
{
anchors = (
{
name = center;
position = "{341, 355}";
},
{
name = top;
position = "{341, 710}";
}
);
layerId = UUID0;
name = Regular;
paths = (
{
closed = 1;
nodes = (
"202 453 LINE",
"206 552 LINE SMOOTH",
"209 607 OFFCURVE",
"210 659 OFFCURVE",
"210 671 CURVE SMOOTH",
"210 683 OFFCURVE",
"214 701 OFFCURVE",
"195 701 CURVE SMOOTH",
"176 701 OFFCURVE",
"150 705 OFFCURVE",
"130 702 CURVE SMOOTH",
"110 699 OFFCURVE",
"98 701 OFFCURVE",
"87 701 CURVE SMOOTH",
"76 701 OFFCURVE",
"65 702 OFFCURVE",
"66 666 CURVE SMOOTH",
"66 630 OFFCURVE",
"64 472 OFFCURVE",
"64 411 CURVE SMOOTH",
"64 350 OFFCURVE",
"66 106 OFFCURVE",
"66 65 CURVE SMOOTH",
"66 22 OFFCURVE",
"61 -1 OFFCURVE",
"89 2 CURVE SMOOTH",
"117 5 OFFCURVE",
"150 6 OFFCURVE",
"169 5 CURVE SMOOTH",
"187 5 OFFCURVE",
"210 -1 OFFCURVE",
"202 40 CURVE SMOOTH",
"194 80 OFFCURVE",
"198 206 OFFCURVE",
"198 252 CURVE SMOOTH",
"198 275 OFFCURVE",
"199 297 OFFCURVE",
"200 313 CURVE SMOOTH",
"201 322 OFFCURVE",
"201 331 OFFCURVE",
"201 339 CURVE",
"222 338 OFFCURVE",
"241 338 OFFCURVE",
"260 338 CURVE SMOOTH",
"354 338 LINE SMOOTH",
"377 338 OFFCURVE",
"427 338 OFFCURVE",
"470 339 CURVE SMOOTH",
"551 341 LINE",
"551 267 LINE SMOOTH",
"551 227 OFFCURVE",
"550 181 OFFCURVE",
"551 160 CURVE",
"551 117 OFFCURVE",
"550 33 OFFCURVE",
"550 24 CURVE SMOOTH",
"550 15 OFFCURVE",
"547 4 OFFCURVE",
"558 4 CURVE SMOOTH",
"569 4 OFFCURVE",
"589 5 OFFCURVE",
"594 6 CURVE SMOOTH",
"599 7 OFFCURVE",
"606 4 OFFCURVE",
"603 19 CURVE SMOOTH",
"600 35 OFFCURVE",
"602 71 OFFCURVE",
"602 88 CURVE SMOOTH",
"602 106 OFFCURVE",
"608 255 OFFCURVE",
"608 300 CURVE SMOOTH",
"608 344 OFFCURVE",
"611 558 OFFCURVE",
"615 603 CURVE SMOOTH",
"619 648 OFFCURVE",
"623 678 OFFCURVE",
"624 689 CURVE",
"627 698 OFFCURVE",
"627 704 OFFCURVE",
"616 707 CURVE SMOOTH",
"605 710 OFFCURVE",
"591 707 OFFCURVE",
"584 710 CURVE",
"577 711 OFFCURVE",
"563 715 OFFCURVE",
"562 702 CURVE SMOOTH",
"562 689 OFFCURVE",
"556 510 OFFCURVE",
"556 476 CURVE SMOOTH",
"556 459 OFFCURVE",
"557 438 OFFCURVE",
"557 421 CURVE SMOOTH",
"557 391 LINE",
"531 390 OFFCURVE",
"506 390 OFFCURVE",
"482 390 CURVE SMOOTH",
"441 389 OFFCURVE",
"392 389 OFFCURVE",
"363 389 CURVE SMOOTH",
"334 389 OFFCURVE",
"294 391 OFFCURVE",
"259 392 CURVE SMOOTH",
"199 394 LINE"
);
}
);
width = 682;
}
);
unicode = 0048;
},
{
color = 0;
glyphname = Hbar;
lastChange = "2013-12-03 23:06:54 -0500";
layers = (
{
layerId = UUID0;
name = Regular;
paths = (
{
closed = 1;
nodes = (
"386 577 LINE",
"107 577 LINE",
"35 577 LINE SMOOTH",
"15 577 OFFCURVE",
"11 571 OFFCURVE",
"11 556 CURVE SMOOTH",
"11 526 LINE SMOOTH",
"11 519 OFFCURVE",
"10 512 OFFCURVE",
"29 512 CURVE",
"39 515 OFFCURVE",
"125 515 OFFCURVE",
"142 515 CURVE SMOOTH",
"435 515 LINE SMOOTH",
"487 515 OFFCURVE",
"582 512 OFFCURVE",
"622 512 CURVE SMOOTH",
"663 512 OFFCURVE",
"671 517 OFFCURVE",
"671 526 CURVE SMOOTH",
"671 559 LINE SMOOTH",
"671 571 OFFCURVE",
"672 580 OFFCURVE",
"631 577 CURVE"
);
},
{
closed = 1;
nodes = (
"202 453 LINE",
"206 552 LINE SMOOTH",
"209 607 OFFCURVE",
"210 659 OFFCURVE",
"210 671 CURVE SMOOTH",
"210 683 OFFCURVE",
"214 701 OFFCURVE",
"195 701 CURVE SMOOTH",
"176 701 OFFCURVE",
"150 705 OFFCURVE",
"130 702 CURVE SMOOTH",
"110 699 OFFCURVE",
"98 701 OFFCURVE",
"87 701 CURVE SMOOTH",
"76 701 OFFCURVE",
"65 702 OFFCURVE",
"66 666 CURVE SMOOTH",
"66 630 OFFCURVE",
"64 472 OFFCURVE",
"64 411 CURVE SMOOTH",
"64 350 OFFCURVE",
"66 106 OFFCURVE",
"66 65 CURVE SMOOTH",
"66 22 OFFCURVE",
"61 -1 OFFCURVE",
"89 2 CURVE SMOOTH",
"117 5 OFFCURVE",
"150 6 OFFCURVE",
"169 5 CURVE SMOOTH",
"187 5 OFFCURVE",
"210 -1 OFFCURVE",
"202 40 CURVE SMOOTH",
"194 80 OFFCURVE",
"198 206 OFFCURVE",
"198 252 CURVE SMOOTH",
"198 275 OFFCURVE",
"199 297 OFFCURVE",
"200 313 CURVE SMOOTH",
"201 322 OFFCURVE",
"201 331 OFFCURVE",
"201 339 CURVE",
"222 338 OFFCURVE",
"241 338 OFFCURVE",
"260 338 CURVE SMOOTH",
"354 338 LINE SMOOTH",
"377 338 OFFCURVE",
"427 338 OFFCURVE",
"470 339 CURVE SMOOTH",
"551 341 LINE",
"551 267 LINE SMOOTH",
"551 227 OFFCURVE",
"550 181 OFFCURVE",
"551 160 CURVE",
"551 117 OFFCURVE",
"550 33 OFFCURVE",
"550 24 CURVE SMOOTH",
"550 15 OFFCURVE",
"547 4 OFFCURVE",
"558 4 CURVE SMOOTH",
"569 4 OFFCURVE",
"589 5 OFFCURVE",
"594 6 CURVE SMOOTH",
"599 7 OFFCURVE",
"606 4 OFFCURVE",
"603 19 CURVE SMOOTH",
"600 35 OFFCURVE",
"602 71 OFFCURVE",
"602 88 CURVE SMOOTH",
"602 106 OFFCURVE",
"608 255 OFFCURVE",
"608 300 CURVE SMOOTH",
"608 344 OFFCURVE",
"611 558 OFFCURVE",
"615 603 CURVE SMOOTH",
"619 648 OFFCURVE",
"623 678 OFFCURVE",
"624 689 CURVE",
"627 698 OFFCURVE",
"627 704 OFFCURVE",
"616 707 CURVE SMOOTH",
"605 710 OFFCURVE",
"591 707 OFFCURVE",
"584 710 CURVE",
"577 711 OFFCURVE",
"563 715 OFFCURVE",
"562 702 CURVE SMOOTH",
"562 689 OFFCURVE",
"556 510 OFFCURVE",
"556 476 CURVE SMOOTH",
"556 459 OFFCURVE",
"557 438 OFFCURVE",
"557 421 CURVE SMOOTH",
"557 391 LINE",
"531 390 OFFCURVE",
"506 390 OFFCURVE",
"482 390 CURVE SMOOTH",
"441 389 OFFCURVE",
"392 389 OFFCURVE",
"363 389 CURVE SMOOTH",
"334 389 OFFCURVE",
"294 391 OFFCURVE",
"259 392 CURVE SMOOTH",
"199 394 LINE"
);
}
);
width = 682;
}
);
unicode = 0126;
},
{
color = 0;
glyphname = Hcircumflex;
lastChange = "2013-12-03 23:06:54 -0500";
layers = (
{
layerId = UUID0;
name = Regular;
paths = (
{
closed = 1;
nodes = (
"202 453 LINE",
"206 552 LINE SMOOTH",
"209 607 OFFCURVE",
"210 659 OFFCURVE",
"210 671 CURVE SMOOTH",
"210 683 OFFCURVE",
"214 701 OFFCURVE",
"195 701 CURVE SMOOTH",
"176 701 OFFCURVE",
"150 705 OFFCURVE",
"130 702 CURVE SMOOTH",
"110 699 OFFCURVE",
"98 701 OFFCURVE",
"87 701 CURVE SMOOTH",
"76 701 OFFCURVE",
"65 702 OFFCURVE",
"66 666 CURVE SMOOTH",
"66 630 OFFCURVE",
"64 472 OFFCURVE",
"64 411 CURVE SMOOTH",
"64 350 OFFCURVE",
"66 106 OFFCURVE",
"66 65 CURVE SMOOTH",
"66 22 OFFCURVE",
"61 -1 OFFCURVE",
"89 2 CURVE SMOOTH",
"117 5 OFFCURVE",
"150 6 OFFCURVE",
"169 5 CURVE SMOOTH",
"187 5 OFFCURVE",
"210 -1 OFFCURVE",
"202 40 CURVE SMOOTH",
"194 80 OFFCURVE",
"198 206 OFFCURVE",
"198 252 CURVE SMOOTH",
"198 275 OFFCURVE",
"199 297 OFFCURVE",
"200 313 CURVE SMOOTH",
"201 322 OFFCURVE",
"201 331 OFFCURVE",
"201 339 CURVE",
"222 338 OFFCURVE",
"241 338 OFFCURVE",
"260 338 CURVE SMOOTH",
"354 338 LINE SMOOTH",
"377 338 OFFCURVE",
"427 338 OFFCURVE",
"470 339 CURVE SMOOTH",
"551 341 LINE",
"551 267 LINE SMOOTH",
"551 227 OFFCURVE",
"550 181 OFFCURVE",
"551 160 CURVE",
"551 117 OFFCURVE",
"550 33 OFFCURVE",
"550 24 CURVE SMOOTH",
"550 15 OFFCURVE",
"547 4 OFFCURVE",
"558 4 CURVE SMOOTH",
"569 4 OFFCURVE",
"589 5 OFFCURVE",
"594 6 CURVE SMOOTH",
"599 7 OFFCURVE",
"606 4 OFFCURVE",
"603 19 CURVE SMOOTH",
"600 35 OFFCURVE",
"602 71 OFFCURVE",
"602 88 CURVE SMOOTH",
"602 106 OFFCURVE",
"608 255 OFFCURVE",
"608 300 CURVE SMOOTH",
"608 344 OFFCURVE",
"611 558 OFFCURVE",
"615 603 CURVE SMOOTH",
"619 648 OFFCURVE",
"623 678 OFFCURVE",
"624 689 CURVE",
"627 698 OFFCURVE",
"627 704 OFFCURVE",
"616 707 CURVE SMOOTH",
"605 710 OFFCURVE",
"591 707 OFFCURVE",
"584 710 CURVE",
"577 711 OFFCURVE",
"563 715 OFFCURVE",
"562 702 CURVE SMOOTH",
"562 689 OFFCURVE",
"556 510 OFFCURVE",
"556 476 CURVE SMOOTH",
"556 459 OFFCURVE",
"557 438 OFFCURVE",
"557 421 CURVE SMOOTH",
"557 391 LINE",
"531 390 OFFCURVE",
"506 390 OFFCURVE",
"482 390 CURVE SMOOTH",
"441 389 OFFCURVE",
"392 389 OFFCURVE",
"363 389 CURVE SMOOTH",
"334 389 OFFCURVE",
"294 391 OFFCURVE",
"259 392 CURVE SMOOTH",
"199 394 LINE"
);
},
{
closed = 1;
nodes = (
"533 759 OFFCURVE",
"504 775 OFFCURVE",
"496 780 CURVE SMOOTH",
"469 797 OFFCURVE",
"456 804 OFFCURVE",
"429 823 CURVE",
"409 834 OFFCURVE",
"403 840 OFFCURVE",
"380 837 CURVE SMOOTH",
"375 837 OFFCURVE",
"369 836 OFFCURVE",
"362 833 CURVE",
"351 830 OFFCURVE",
"333 820 OFFCURVE",
"310 807 CURVE",
"280 784 OFFCURVE",
"272 783 OFFCURVE",
"262 778 CURVE",
"235 761 LINE SMOOTH",
"222 752 OFFCURVE",
"227 733 OFFCURVE",
"252 733 CURVE SMOOTH",
"265 733 OFFCURVE",
"277 734 OFFCURVE",
"290 736 CURVE",
"318 744 OFFCURVE",
"332 749 OFFCURVE",
"347 757 CURVE",
"393 778 LINE",
"425 763 LINE",
"436 756 OFFCURVE",
"447 750 OFFCURVE",
"460 745 CURVE",
"487 738 LINE",
"511 729 OFFCURVE",
"525 725 OFFCURVE",
"530 746 CURVE SMOOTH"
);
}
);
width = 682;
}
);
unicode = 0124;
},
{
color = 0;
glyphname = Hdotbelow;
lastChange = "2013-12-03 23:06:54 -0500";
layers = (
{
layerId = UUID0;
name = Regular;
paths = (
{
closed = 1;
nodes = (
"202 453 LINE",
"206 552 LINE SMOOTH",
"209 607 OFFCURVE",
"210 659 OFFCURVE",
"210 671 CURVE SMOOTH",
"210 683 OFFCURVE",
"214 701 OFFCURVE",
"195 701 CURVE SMOOTH",
"176 701 OFFCURVE",
"150 705 OFFCURVE",
"130 702 CURVE SMOOTH",
"110 699 OFFCURVE",
"98 701 OFFCURVE",
"87 701 CURVE SMOOTH",
"76 701 OFFCURVE",
"65 702 OFFCURVE",
"66 666 CURVE SMOOTH",
"66 630 OFFCURVE",
"64 472 OFFCURVE",
"64 411 CURVE SMOOTH",
"64 350 OFFCURVE",
"66 106 OFFCURVE",
"66 65 CURVE SMOOTH",
"66 22 OFFCURVE",
"61 -1 OFFCURVE",
"89 2 CURVE SMOOTH",
"117 5 OFFCURVE",
"150 6 OFFCURVE",
"169 5 CURVE SMOOTH",
"187 5 OFFCURVE",
"210 -1 OFFCURVE",
"202 40 CURVE SMOOTH",
"194 80 OFFCURVE",
"198 206 OFFCURVE",
"198 252 CURVE SMOOTH",
"198 275 OFFCURVE",
"199 297 OFFCURVE",
"200 313 CURVE SMOOTH",
"201 322 OFFCURVE",
"201 331 OFFCURVE",
"201 339 CURVE",
"222 338 OFFCURVE",
"241 338 OFFCURVE",
"260 338 CURVE SMOOTH",
"354 338 LINE SMOOTH",
"377 338 OFFCURVE",
"427 338 OFFCURVE",
"470 339 CURVE SMOOTH",
"551 341 LINE",
"551 267 LINE SMOOTH",
"551 227 OFFCURVE",
"550 181 OFFCURVE",
"551 160 CURVE",
"551 117 OFFCURVE",
"550 33 OFFCURVE",
"550 24 CURVE SMOOTH",
"550 15 OFFCURVE",
"547 4 OFFCURVE",
"558 4 CURVE SMOOTH",
"569 4 OFFCURVE",
"589 5 OFFCURVE",
"594 6 CURVE SMOOTH",
"599 7 OFFCURVE",
"606 4 OFFCURVE",
"603 19 CURVE SMOOTH",
"600 35 OFFCURVE",
"602 71 OFFCURVE",
"602 88 CURVE SMOOTH",
"602 106 OFFCURVE",
"608 255 OFFCURVE",
"608 300 CURVE SMOOTH",
"608 344 OFFCURVE",
"611 558 OFFCURVE",
"615 603 CURVE SMOOTH",
"619 648 OFFCURVE",
"623 678 OFFCURVE",
"624 689 CURVE",
"627 698 OFFCURVE",
"627 704 OFFCURVE",
"616 707 CURVE SMOOTH",
"605 710 OFFCURVE",
"591 707 OFFCURVE",
"584 710 CURVE",
"577 711 OFFCURVE",
"563 715 OFFCURVE",
"562 702 CURVE SMOOTH",
"562 689 OFFCURVE",
"556 510 OFFCURVE",
"556 476 CURVE SMOOTH",
"556 459 OFFCURVE",
"557 438 OFFCURVE",
"557 421 CURVE SMOOTH",
"557 391 LINE",
"531 390 OFFCURVE",
"506 390 OFFCURVE",
"482 390 CURVE SMOOTH",
"441 389 OFFCURVE",
"392 389 OFFCURVE",
"363 389 CURVE SMOOTH",
"334 389 OFFCURVE",
"294 391 OFFCURVE",
"259 392 CURVE SMOOTH",
"199 394 LINE"
);
},
{
closed = 1;
nodes = (
"444 -41 OFFCURVE",
"407 -22 OFFCURVE",
"374 -22 CURVE SMOOTH",
"342 -22 OFFCURVE",
"317 -52 OFFCURVE",
"317 -81 CURVE SMOOTH",
"317 -118 OFFCURVE",
"350 -142 OFFCURVE",
"378 -142 CURVE SMOOTH",
"404 -142 OFFCURVE",
"444 -120 OFFCURVE",
"444 -76 CURVE SMOOTH"
);
}
);
width = 682;
}
);
unicode = 1E24;
},
{
color = 0;
glyphname = I;
lastChange = "2013-12-03 23:06:54 -0500";
layers = (
{
anchors = (
{
name = ogonek;
position = "{138, 10}";
},
{
name = top;
position = "{77, 710}";
}
);
layerId = UUID0;
name = Regular;
paths = (
{
closed = 1;
nodes = (
"117 685 OFFCURVE",
"123 706 OFFCURVE",
"108 706 CURVE SMOOTH",
"93 706 OFFCURVE",
"78 707 OFFCURVE",
"71 707 CURVE SMOOTH",
"52 707 OFFCURVE",
"55 683 OFFCURVE",
"56 660 CURVE",
"59 636 OFFCURVE",
"49 442 OFFCURVE",
"49 376 CURVE SMOOTH",
"49 310 OFFCURVE",
"45 73 OFFCURVE",
"45 35 CURVE SMOOTH",
"45 -3 OFFCURVE",
"39 -7 OFFCURVE",
"55 -7 CURVE SMOOTH",
"70 -7 OFFCURVE",
"91 -8 OFFCURVE",
"100 -3 CURVE SMOOTH",
"108 1 OFFCURVE",
"113 3 OFFCURVE",
"109 27 CURVE",
"106 52 OFFCURVE",
"103 227 OFFCURVE",
"103 279 CURVE SMOOTH",
"103 330 OFFCURVE",
"111 501 OFFCURVE",
"111 555 CURVE SMOOTH",
"112 610 OFFCURVE",
"113 648 OFFCURVE",
"116 668 CURVE"
);
}
);
width = 153;
}
);
unicode = 0049;
},
{
color = 0;
glyphname = IJ;
lastChange = "2013-12-03 23:06:54 -0500";
layers = (
{
layerId = UUID0;
name = Regular;
paths = (
{
closed = 1;
nodes = (
"117 685 OFFCURVE",
"123 706 OFFCURVE",
"108 706 CURVE SMOOTH",
"93 706 OFFCURVE",
"78 707 OFFCURVE",
"71 707 CURVE SMOOTH",
"52 707 OFFCURVE",
"55 683 OFFCURVE",
"56 660 CURVE",
"59 636 OFFCURVE",
"49 442 OFFCURVE",
"49 376 CURVE SMOOTH",
"49 310 OFFCURVE",
"45 73 OFFCURVE",
"45 35 CURVE SMOOTH",
"45 -3 OFFCURVE",
"39 -7 OFFCURVE",
"55 -7 CURVE SMOOTH",
"70 -7 OFFCURVE",
"91 -8 OFFCURVE",
"100 -3 CURVE SMOOTH",
"108 1 OFFCURVE",
"113 3 OFFCURVE",
"109 27 CURVE",
"106 52 OFFCURVE",
"103 227 OFFCURVE",
"103 279 CURVE SMOOTH",
"103 330 OFFCURVE",
"111 501 OFFCURVE",
"111 555 CURVE SMOOTH",
"112 610 OFFCURVE",
"113 648 OFFCURVE",
"116 668 CURVE"
);
},
{
closed = 1;
nodes = (
"274 366 OFFCURVE",
"289 403 OFFCURVE",
"260 400 CURVE SMOOTH",
"231 396 OFFCURVE",
"210 393 OFFCURVE",
"198 393 CURVE",
"187 394 OFFCURVE",
"183 395 OFFCURVE",
"183 376 CURVE SMOOTH",
"183 357 OFFCURVE",
"181 287 OFFCURVE",
"181 247 CURVE SMOOTH",
"181 205 OFFCURVE",
"199 -7 OFFCURVE",
"420 -7 CURVE SMOOTH",
"643 -7 OFFCURVE",
"605 331 OFFCURVE",
"609 374 CURVE",
"609 418 OFFCURVE",
"611 654 OFFCURVE",
"611 680 CURVE SMOOTH",
"612 707 OFFCURVE",
"610 712 OFFCURVE",
"587 713 CURVE",
"563 716 OFFCURVE",
"543 711 OFFCURVE",
"528 710 CURVE SMOOTH",
"515 710 OFFCURVE",
"500 709 OFFCURVE",
"503 672 CURVE",
"503 632 OFFCURVE",
"501 544 OFFCURVE",
"504 509 CURVE",
"504 474 OFFCURVE",
"501 278 OFFCURVE",
"501 233 CURVE SMOOTH",
"501 188 OFFCURVE",
"475 103 OFFCURVE",
"388 103 CURVE SMOOTH",
"324 103 OFFCURVE",
"274 142 OFFCURVE",
"274 345 CURVE SMOOTH"
);
}
);
width = 682;
}
);
unicode = 0132;
},
{
color = 0;
glyphname = Iacute;
lastChange = "2013-12-03 23:06:54 -0500";
layers = (
{
layerId = UUID0;
name = Regular;
paths = (
{
closed = 1;
nodes = (
"117 685 OFFCURVE",
"123 706 OFFCURVE",
"108 706 CURVE SMOOTH",
"93 706 OFFCURVE",
"78 707 OFFCURVE",
"71 707 CURVE SMOOTH",
"52 707 OFFCURVE",
"55 683 OFFCURVE",
"56 660 CURVE",
"59 636 OFFCURVE",
"49 442 OFFCURVE",
"49 376 CURVE SMOOTH",
"49 310 OFFCURVE",
"45 73 OFFCURVE",
"45 35 CURVE SMOOTH",
"45 -3 OFFCURVE",
"39 -7 OFFCURVE",
"55 -7 CURVE SMOOTH",
"70 -7 OFFCURVE",
"91 -8 OFFCURVE",
"100 -3 CURVE SMOOTH",
"108 1 OFFCURVE",
"113 3 OFFCURVE",
"109 27 CURVE",
"106 52 OFFCURVE",
"103 227 OFFCURVE",
"103 279 CURVE SMOOTH",
"103 330 OFFCURVE",
"111 501 OFFCURVE",
"111 555 CURVE SMOOTH",
"112 610 OFFCURVE",
"113 648 OFFCURVE",
"116 668 CURVE"
);
},
{
closed = 1;
nodes = (
"204 838 OFFCURVE",
"190 837 OFFCURVE",
"162 833 CURVE",
"154 833 OFFCURVE",
"139 830 OFFCURVE",
"127 826 CURVE SMOOTH",
"105 818 LINE",
"64 800 OFFCURVE",
"58 803 OFFCURVE",
"44 795 CURVE",
"34 792 OFFCURVE",
"-4 777 OFFCURVE",
"-6 770 CURVE SMOOTH",
"-13 751 OFFCURVE",
"1 742 OFFCURVE",
"12 738 CURVE",
"32 726 OFFCURVE",
"41 732 OFFCURVE",
"65 740 CURVE",
"99 756 OFFCURVE",
"116 762 OFFCURVE",
"150 773 CURVE SMOOTH",
"161 776 OFFCURVE",
"194 790 OFFCURVE",
"199 807 CURVE"
);
}
);
width = 176;
}
);
unicode = 00CD;
},
{
color = 0;
glyphname = Ibreve;
lastChange = "2013-12-03 23:06:54 -0500";
layers = (
{
layerId = UUID0;
name = Regular;
paths = (
{
closed = 1;
nodes = (
"117 685 OFFCURVE",
"123 706 OFFCURVE",
"108 706 CURVE SMOOTH",
"93 706 OFFCURVE",
"78 707 OFFCURVE",
"71 707 CURVE SMOOTH",
"52 707 OFFCURVE",
"55 683 OFFCURVE",
"56 660 CURVE",
"59 636 OFFCURVE",
"49 442 OFFCURVE",
"49 376 CURVE SMOOTH",
"49 310 OFFCURVE",
"45 73 OFFCURVE",
"45 35 CURVE SMOOTH",
"45 -3 OFFCURVE",
"39 -7 OFFCURVE",
"55 -7 CURVE SMOOTH",
"70 -7 OFFCURVE",
"91 -8 OFFCURVE",
"100 -3 CURVE SMOOTH",
"108 1 OFFCURVE",
"113 3 OFFCURVE",
"109 27 CURVE",
"106 52 OFFCURVE",
"103 227 OFFCURVE",
"103 279 CURVE SMOOTH",
"103 330 OFFCURVE",
"111 501 OFFCURVE",
"111 555 CURVE SMOOTH",
"112 610 OFFCURVE",
"113 648 OFFCURVE",
"116 668 CURVE"
);
},
{
closed = 1;
nodes = (
"234 835 OFFCURVE",
"223 837 OFFCURVE",
"201 838 CURVE",
"185 837 OFFCURVE",
"176 834 OFFCURVE",
"174 831 CURVE",
"173 818 OFFCURVE",
"161 808 OFFCURVE",
"137 801 CURVE SMOOTH",
"114 795 OFFCURVE",
"93 792 OFFCURVE",
"76 792 CURVE",
"40 794 OFFCURVE",
"18 797 OFFCURVE",
"10 802 CURVE SMOOTH",
"3 807 OFFCURVE",
"-3 816 OFFCURVE",
"-6 829 CURVE",
"-6 838 OFFCURVE",
"-6 839 OFFCURVE",
"-34 839 CURVE SMOOTH",
"-63 839 OFFCURVE",
"-64 839 OFFCURVE",
"-64 836 CURVE SMOOTH",
"-63 819 OFFCURVE",
"-58 801 OFFCURVE",
"-49 780 CURVE SMOOTH",
"-44 769 OFFCURVE",
"-34 760 OFFCURVE",
"-21 753 CURVE SMOOTH",
"-8 746 OFFCURVE",
"25 741 OFFCURVE",
"78 738 CURVE",
"125 738 OFFCURVE",
"157 742 OFFCURVE",
"174 751 CURVE SMOOTH",
"191 760 OFFCURVE",
"204 768 OFFCURVE",
"213 775 CURVE SMOOTH",
"233 790 OFFCURVE",
"234 824 OFFCURVE",
"234 832 CURVE SMOOTH"
);
}
);
width = 153;
}
);
unicode = 012C;
},
{
color = 0;
glyphname = Icircumflex;
lastChange = "2013-12-03 23:06:54 -0500";
layers = (
{
layerId = UUID0;
name = Regular;
paths = (
{
closed = 1;
nodes = (
"117 685 OFFCURVE",
"123 706 OFFCURVE",
"108 706 CURVE SMOOTH",
"93 706 OFFCURVE",
"78 707 OFFCURVE",
"71 707 CURVE SMOOTH",
"52 707 OFFCURVE",
"55 683 OFFCURVE",
"56 660 CURVE",
"59 636 OFFCURVE",
"49 442 OFFCURVE",
"49 376 CURVE SMOOTH",
"49 310 OFFCURVE",
"45 73 OFFCURVE",
"45 35 CURVE SMOOTH",
"45 -3 OFFCURVE",
"39 -7 OFFCURVE",
"55 -7 CURVE SMOOTH",
"70 -7 OFFCURVE",
"91 -8 OFFCURVE",
"100 -3 CURVE SMOOTH",
"108 1 OFFCURVE",
"113 3 OFFCURVE",
"109 27 CURVE",
"106 52 OFFCURVE",
"103 227 OFFCURVE",
"103 279 CURVE SMOOTH",
"103 330 OFFCURVE",
"111 501 OFFCURVE",
"111 555 CURVE SMOOTH",
"112 610 OFFCURVE",
"113 648 OFFCURVE",
"116 668 CURVE"
);
},
{
closed = 1;
nodes = (
"230 760 OFFCURVE",
"201 776 OFFCURVE",
"193 781 CURVE SMOOTH",
"166 798 OFFCURVE",
"153 805 OFFCURVE",
"126 824 CURVE",
"106 835 OFFCURVE",
"100 841 OFFCURVE",
"77 838 CURVE SMOOTH",
"72 838 OFFCURVE",
"66 837 OFFCURVE",
"59 834 CURVE",
"48 831 OFFCURVE",
"30 821 OFFCURVE",
"7 808 CURVE",
"-23 785 OFFCURVE",
"-31 784 OFFCURVE",
"-41 779 CURVE",
"-67 762 LINE SMOOTH",
"-82 753 OFFCURVE",
"-76 734 OFFCURVE",
"-51 734 CURVE SMOOTH",
"-38 734 OFFCURVE",
"-26 735 OFFCURVE",
"-13 737 CURVE",
"15 745 OFFCURVE",
"29 750 OFFCURVE",
"44 758 CURVE",
"90 779 LINE",
"122 764 LINE",
"133 757 OFFCURVE",
"144 751 OFFCURVE",
"157 746 CURVE",
"184 739 LINE",
"208 730 OFFCURVE",
"222 726 OFFCURVE",
"227 747 CURVE SMOOTH"
);
}
);
width = 176;
}
);
unicode = 00CE;
},
{
color = 0;
glyphname = Idieresis;
lastChange = "2013-12-03 23:06:54 -0500";
layers = (
{
layerId = UUID0;
name = Regular;
paths = (
{
closed = 1;
nodes = (
"117 685 OFFCURVE",
"123 706 OFFCURVE",
"108 706 CURVE SMOOTH",
"93 706 OFFCURVE",
"78 707 OFFCURVE",
"71 707 CURVE SMOOTH",
"52 707 OFFCURVE",
"55 683 OFFCURVE",
"56 660 CURVE",
"59 636 OFFCURVE",
"49 442 OFFCURVE",
"49 376 CURVE SMOOTH",
"49 310 OFFCURVE",
"45 73 OFFCURVE",
"45 35 CURVE SMOOTH",
"45 -3 OFFCURVE",
"39 -7 OFFCURVE",
"55 -7 CURVE SMOOTH",
"70 -7 OFFCURVE",
"91 -8 OFFCURVE",
"100 -3 CURVE SMOOTH",
"108 1 OFFCURVE",
"113 3 OFFCURVE",
"109 27 CURVE",
"106 52 OFFCURVE",
"103 227 OFFCURVE",
"103 279 CURVE SMOOTH",
"103 330 OFFCURVE",
"111 501 OFFCURVE",
"111 555 CURVE SMOOTH",
"112 610 OFFCURVE",
"113 648 OFFCURVE",
"116 668 CURVE"
);
},
{
closed = 1;
nodes = (
"44 817 OFFCURVE",
"9 833 OFFCURVE",
"-22 833 CURVE SMOOTH",
"-53 833 OFFCURVE",
"-76 805 OFFCURVE",
"-76 778 CURVE SMOOTH",
"-76 742 OFFCURVE",
"-45 720 OFFCURVE",
"-18 720 CURVE SMOOTH",
"6 720 OFFCURVE",
"44 742 OFFCURVE",
"44 782 CURVE SMOOTH"
);
},
{
closed = 1;
nodes = (
"153 754 OFFCURVE",
"164 724 OFFCURVE",
"207 724 CURVE SMOOTH",
"250 724 OFFCURVE",
"270 751 OFFCURVE",
"270 778 CURVE SMOOTH",
"270 809 OFFCURVE",
"254 840 OFFCURVE",
"227 840 CURVE SMOOTH",
"200 840 OFFCURVE",
"153 833 OFFCURVE",
"153 778 CURVE SMOOTH"
);
}
);
width = 176;
}
);
unicode = 00CF;
},
{
color = 0;
glyphname = Idotaccent;
lastChange = "2013-12-03 23:06:54 -0500";
layers = (
{
layerId = UUID0;
name = Regular;
paths = (
{
closed = 1;
nodes = (
"115 662 OFFCURVE",
"121 683 OFFCURVE",
"106 683 CURVE SMOOTH",
"91 683 OFFCURVE",
"76 684 OFFCURVE",
"69 684 CURVE SMOOTH",
"50 684 OFFCURVE",
"53 660 OFFCURVE",
"54 637 CURVE",
"55 631 OFFCURVE",
"55 616 OFFCURVE",
"54 592 CURVE SMOOTH",
"52 522 LINE SMOOTH",
"52 500 OFFCURVE",
"51 474 OFFCURVE",
"50 445 CURVE SMOOTH",
"49 416 OFFCURVE",
"49 393 OFFCURVE",
"49 376 CURVE SMOOTH",
"49 310 OFFCURVE",
"45 73 OFFCURVE",
"45 35 CURVE SMOOTH",
"45 -3 OFFCURVE",
"39 -7 OFFCURVE",
"55 -7 CURVE SMOOTH",
"70 -7 OFFCURVE",
"91 -8 OFFCURVE",
"100 -3 CURVE SMOOTH",
"108 1 OFFCURVE",
"113 3 OFFCURVE",
"109 27 CURVE",
"106 52 OFFCURVE",
"103 227 OFFCURVE",
"103 279 CURVE SMOOTH",
"103 304 OFFCURVE",
"105 360 OFFCURVE",
"106 416 CURVE",
"109 472 OFFCURVE",
"109 504 OFFCURVE",
"109 532 CURVE SMOOTH",
"110 587 OFFCURVE",
"111 625 OFFCURVE",
"114 645 CURVE"
);
},
{
closed = 1;
nodes = (
"154 821 OFFCURVE",
"117 840 OFFCURVE",
"84 840 CURVE SMOOTH",
"52 840 OFFCURVE",
"27 810 OFFCURVE",
"27 781 CURVE SMOOTH",
"27 744 OFFCURVE",
"60 720 OFFCURVE",
"88 720 CURVE SMOOTH",
"114 720 OFFCURVE",
"154 742 OFFCURVE",
"154 786 CURVE SMOOTH"
);
}
);
width = 153;
}
);
unicode = 0130;
},
{
color = 0;
glyphname = Idotbelow;
lastChange = "2013-12-03 23:06:54 -0500";
layers = (
{
layerId = UUID0;
name = Regular;
paths = (
{
closed = 1;
nodes = (
"117 685 OFFCURVE",
"123 706 OFFCURVE",
"108 706 CURVE SMOOTH",
"93 706 OFFCURVE",
"78 707 OFFCURVE",
"71 707 CURVE SMOOTH",
"52 707 OFFCURVE",
"55 683 OFFCURVE",
"56 660 CURVE",
"59 636 OFFCURVE",
"49 442 OFFCURVE",
"49 376 CURVE SMOOTH",
"49 342 OFFCURVE",
"49 267 OFFCURVE",
"47 195 CURVE",
"47 170 OFFCURVE",
"47 152 OFFCURVE",
"46 141 CURVE SMOOTH",
"46 130 OFFCURVE",
"46 116 OFFCURVE",
"45 99 CURVE",
"45 66 LINE SMOOTH",
"45 28 OFFCURVE",
"39 24 OFFCURVE",
"55 24 CURVE SMOOTH",
"70 24 OFFCURVE",
"91 23 OFFCURVE",
"100 28 CURVE SMOOTH",
"108 32 OFFCURVE",
"113 34 OFFCURVE",
"109 58 CURVE SMOOTH",
"108 64 OFFCURVE",
"108 78 OFFCURVE",
"107 100 CURVE SMOOTH",
"105 158 LINE",
"103 221 LINE",
"103 279 LINE SMOOTH",
"103 330 OFFCURVE",
"111 501 OFFCURVE",
"111 555 CURVE SMOOTH",
"112 610 OFFCURVE",
"113 648 OFFCURVE",
"116 668 CURVE"
);
},
{
closed = 1;
nodes = (
"137 -41 OFFCURVE",
"100 -22 OFFCURVE",
"67 -22 CURVE SMOOTH",
"35 -22 OFFCURVE",
"10 -52 OFFCURVE",
"10 -81 CURVE SMOOTH",
"10 -118 OFFCURVE",
"43 -142 OFFCURVE",
"71 -142 CURVE SMOOTH",
"97 -142 OFFCURVE",
"137 -120 OFFCURVE",
"137 -76 CURVE SMOOTH"
);
}
);
width = 153;
}
);
unicode = 1ECA;
},
{
color = 0;
glyphname = Igrave;
lastChange = "2013-12-03 23:06:54 -0500";
layers = (
{
layerId = UUID0;
name = Regular;
paths = (
{
closed = 1;
nodes = (
"117 685 OFFCURVE",
"123 706 OFFCURVE",
"108 706 CURVE SMOOTH",
"93 706 OFFCURVE",
"78 707 OFFCURVE",
"71 707 CURVE SMOOTH",
"52 707 OFFCURVE",
"55 683 OFFCURVE",
"56 660 CURVE",
"59 636 OFFCURVE",
"49 442 OFFCURVE",
"49 376 CURVE SMOOTH",
"49 310 OFFCURVE",
"45 73 OFFCURVE",
"45 35 CURVE SMOOTH",
"45 -3 OFFCURVE",
"39 -7 OFFCURVE",
"55 -7 CURVE SMOOTH",
"70 -7 OFFCURVE",
"91 -8 OFFCURVE",
"100 -3 CURVE SMOOTH",
"108 1 OFFCURVE",
"113 3 OFFCURVE",
"109 27 CURVE",
"106 52 OFFCURVE",
"103 227 OFFCURVE",
"103 279 CURVE SMOOTH",
"103 330 OFFCURVE",
"111 501 OFFCURVE",
"111 555 CURVE SMOOTH",
"112 610 OFFCURVE",
"113 648 OFFCURVE",
"116 668 CURVE"
);
},
{
closed = 1;
nodes = (
"166 787 OFFCURVE",
"132 796 OFFCURVE",
"121 801 CURVE",
"86 809 OFFCURVE",
"70 815 OFFCURVE",
"35 830 CURVE",
"11 838 OFFCURVE",
"1 842 OFFCURVE",
"-18 830 CURVE",
"-29 825 OFFCURVE",
"-43 816 OFFCURVE",
"-34 797 CURVE SMOOTH",
"-31 789 OFFCURVE",
"5 777 OFFCURVE",
"16 774 CURVE",
"29 766 OFFCURVE",
"38 771 OFFCURVE",
"78 753 CURVE",
"100 745 LINE",
"113 742 OFFCURVE",
"127 740 OFFCURVE",
"135 741 CURVE",
"163 738 OFFCURVE",
"178 737 OFFCURVE",
"171 768 CURVE SMOOTH"
);
}
);
width = 176;
}
);
unicode = 00CC;
},
{
color = 0;
glyphname = Imacron;
lastChange = "2013-12-03 23:06:54 -0500";
layers = (
{
layerId = UUID0;
name = Regular;
paths = (
{
closed = 1;
nodes = (
"117 685 OFFCURVE",
"123 706 OFFCURVE",
"108 706 CURVE SMOOTH",
"93 706 OFFCURVE",
"78 707 OFFCURVE",
"71 707 CURVE SMOOTH",
"52 707 OFFCURVE",
"55 683 OFFCURVE",
"56 660 CURVE",
"59 636 OFFCURVE",
"49 442 OFFCURVE",
"49 376 CURVE SMOOTH",
"49 310 OFFCURVE",
"45 73 OFFCURVE",
"45 35 CURVE SMOOTH",
"45 -3 OFFCURVE",
"39 -7 OFFCURVE",
"55 -7 CURVE SMOOTH",
"70 -7 OFFCURVE",
"91 -8 OFFCURVE",
"100 -3 CURVE SMOOTH",
"108 1 OFFCURVE",
"113 3 OFFCURVE",
"109 27 CURVE",
"106 52 OFFCURVE",
"103 227 OFFCURVE",
"103 279 CURVE SMOOTH",
"103 330 OFFCURVE",
"111 501 OFFCURVE",
"111 555 CURVE SMOOTH",
"112 610 OFFCURVE",
"113 648 OFFCURVE",
"116 668 CURVE"
);
},
{
closed = 1;
nodes = (
"102 831 LINE",
"-24 831 LINE",
"-56 831 LINE SMOOTH",
"-65 831 OFFCURVE",
"-67 825 OFFCURVE",
"-67 812 CURVE SMOOTH",
"-67 785 LINE SMOOTH",
"-67 778 OFFCURVE",
"-67 772 OFFCURVE",
"-59 772 CURVE",
"-54 775 OFFCURVE",
"-16 775 OFFCURVE",
"-8 775 CURVE SMOOTH",
"124 775 LINE SMOOTH",
"148 775 OFFCURVE",
"190 772 OFFCURVE",
"208 772 CURVE SMOOTH",
"227 772 OFFCURVE",
"230 776 OFFCURVE",
"230 785 CURVE SMOOTH",
"230 815 LINE SMOOTH",
"230 826 OFFCURVE",
"230 834 OFFCURVE",
"212 831 CURVE"
);
}
);
width = 153;
}
);
unicode = 012A;
},
{
color = 0;
glyphname = Iogonek;
lastChange = "2013-12-03 23:06:54 -0500";
layers = (
{
layerId = UUID0;
name = Regular;
paths = (
{
closed = 1;
nodes = (
"117 685 OFFCURVE",
"123 706 OFFCURVE",
"108 706 CURVE SMOOTH",
"93 706 OFFCURVE",
"78 707 OFFCURVE",
"71 707 CURVE SMOOTH",
"52 707 OFFCURVE",
"55 683 OFFCURVE",
"56 660 CURVE",
"59 636 OFFCURVE",
"49 442 OFFCURVE",
"49 376 CURVE SMOOTH",
"49 310 OFFCURVE",
"45 73 OFFCURVE",
"45 35 CURVE SMOOTH",
"45 -3 OFFCURVE",
"39 -7 OFFCURVE",
"55 -7 CURVE SMOOTH",
"70 -7 OFFCURVE",
"91 -8 OFFCURVE",
"100 -3 CURVE SMOOTH",
"108 1 OFFCURVE",
"113 3 OFFCURVE",
"109 27 CURVE",
"106 52 OFFCURVE",
"103 227 OFFCURVE",
"103 279 CURVE SMOOTH",
"103 330 OFFCURVE",
"111 501 OFFCURVE",
"111 555 CURVE SMOOTH",
"112 610 OFFCURVE",
"113 648 OFFCURVE",
"116 668 CURVE"
);
},
{
closed = 1;
nodes = (
"66 38 LINE",
"51 14 OFFCURVE",
"42 -1 OFFCURVE",
"39 -8 CURVE SMOOTH",
"36 -15 OFFCURVE",
"31 -27 OFFCURVE",
"25 -45 CURVE SMOOTH",
"19 -63 OFFCURVE",
"16 -78 OFFCURVE",
"16 -91 CURVE SMOOTH",
"19 -158 OFFCURVE",
"49 -172 OFFCURVE",
"98 -171 CURVE",
"134 -169 OFFCURVE",
"206 -126 OFFCURVE",
"206 -99 CURVE SMOOTH",
"206 -88 OFFCURVE",
"191 -71 OFFCURVE",
"183 -75 CURVE SMOOTH",
"175 -79 OFFCURVE",
"162 -101 OFFCURVE",
"107 -97 CURVE SMOOTH",
"90 -96 OFFCURVE",
"85 -73 OFFCURVE",
"88 -38 CURVE",
"92 -5 OFFCURVE",
"98 8 OFFCURVE",
"87 24 CURVE"
);
}
);
width = 153;
}
);
unicode = 012E;
},
{
color = 0;
glyphname = Itilde;
lastChange = "2013-12-03 23:06:54 -0500";
layers = (
{
layerId = UUID0;
name = Regular;
paths = (
{
closed = 1;
nodes = (
"117 685 OFFCURVE",
"123 706 OFFCURVE",
"108 706 CURVE SMOOTH",
"93 706 OFFCURVE",
"78 707 OFFCURVE",
"71 707 CURVE SMOOTH",
"52 707 OFFCURVE",
"55 683 OFFCURVE",
"56 660 CURVE",
"59 636 OFFCURVE",
"49 442 OFFCURVE",
"49 376 CURVE SMOOTH",
"49 310 OFFCURVE",
"45 73 OFFCURVE",
"45 35 CURVE SMOOTH",
"45 -3 OFFCURVE",
"39 -7 OFFCURVE",
"55 -7 CURVE SMOOTH",
"70 -7 OFFCURVE",
"91 -8 OFFCURVE",
"100 -3 CURVE SMOOTH",
"108 1 OFFCURVE",
"113 3 OFFCURVE",
"109 27 CURVE",
"106 52 OFFCURVE",
"103 227 OFFCURVE",
"103 279 CURVE SMOOTH",
"103 330 OFFCURVE",
"111 501 OFFCURVE",
"111 555 CURVE SMOOTH",
"112 610 OFFCURVE",
"113 648 OFFCURVE",
"116 668 CURVE"
);
},
{
closed = 1;
nodes = (
"-62 823 OFFCURVE",
"-78 836 OFFCURVE",
"-81 823 CURVE SMOOTH",
"-84 811 OFFCURVE",
"-83 795 OFFCURVE",
"-83 787 CURVE SMOOTH",
"-83 778 OFFCURVE",
"-78 764 OFFCURVE",
"-17 764 CURVE SMOOTH",
"22 764 OFFCURVE",
"38 769 OFFCURVE",
"73 772 CURVE SMOOTH",
"108 775 OFFCURVE",
"131 782 OFFCURVE",
"178 783 CURVE SMOOTH",
"202 783 OFFCURVE",
"225 771 OFFCURVE",
"244 771 CURVE SMOOTH",
"259 771 OFFCURVE",
"267 776 OFFCURVE",
"267 787 CURVE SMOOTH",
"267 802 LINE",
"265 810 OFFCURVE",
"276 825 OFFCURVE",
"238 827 CURVE",
"219 830 OFFCURVE",
"198 831 OFFCURVE",
"174 831 CURVE SMOOTH",
"122 831 OFFCURVE",
"83 828 OFFCURVE",
"55 823 CURVE SMOOTH",
"27 818 OFFCURVE",
"11 814 OFFCURVE",
"-17 814 CURVE"
);
}
);
width = 176;
}
);
unicode = 0128;
},
{
color = 0;
glyphname = J;
lastChange = "2013-12-03 23:06:54 -0500";
layers = (
{
anchors = (
{
name = top;
position = "{246, 710}";
}
);
layerId = UUID0;
name = Regular;
paths = (
{
closed = 1;
nodes = (
"98 366 OFFCURVE",
"113 403 OFFCURVE",
"84 400 CURVE SMOOTH",
"55 396 OFFCURVE",
"34 393 OFFCURVE",
"22 393 CURVE",
"11 394 OFFCURVE",
"7 395 OFFCURVE",
"7 376 CURVE SMOOTH",
"7 357 OFFCURVE",
"5 287 OFFCURVE",
"5 247 CURVE SMOOTH",
"5 205 OFFCURVE",
"23 -7 OFFCURVE",
"244 -7 CURVE SMOOTH",
"467 -7 OFFCURVE",
"429 331 OFFCURVE",
"433 374 CURVE",
"433 418 OFFCURVE",
"435 654 OFFCURVE",
"435 680 CURVE SMOOTH",
"436 707 OFFCURVE",
"434 712 OFFCURVE",
"411 713 CURVE",
"387 716 OFFCURVE",
"367 711 OFFCURVE",
"352 710 CURVE SMOOTH",
"339 710 OFFCURVE",
"324 709 OFFCURVE",
"327 672 CURVE",
"327 632 OFFCURVE",
"325 544 OFFCURVE",
"328 509 CURVE",
"328 474 OFFCURVE",
"325 278 OFFCURVE",
"325 233 CURVE SMOOTH",
"325 188 OFFCURVE",
"299 103 OFFCURVE",
"212 103 CURVE SMOOTH",
"148 103 OFFCURVE",
"98 142 OFFCURVE",
"98 345 CURVE SMOOTH"
);
}
);
width = 491;
}
);
unicode = 004A;
},
{
color = 0;
glyphname = Jcircumflex;
lastChange = "2013-12-03 23:06:54 -0500";
layers = (
{
layerId = UUID0;
name = Regular;
paths = (
{
closed = 1;
nodes = (
"98 366 OFFCURVE",
"113 403 OFFCURVE",
"84 400 CURVE SMOOTH",
"55 396 OFFCURVE",
"34 393 OFFCURVE",
"22 393 CURVE",
"11 394 OFFCURVE",
"7 395 OFFCURVE",
"7 376 CURVE SMOOTH",
"7 357 OFFCURVE",
"5 287 OFFCURVE",
"5 247 CURVE SMOOTH",
"5 205 OFFCURVE",
"23 -7 OFFCURVE",
"244 -7 CURVE SMOOTH",
"467 -7 OFFCURVE",
"429 331 OFFCURVE",
"433 374 CURVE",
"433 418 OFFCURVE",
"435 654 OFFCURVE",
"435 680 CURVE SMOOTH",
"436 707 OFFCURVE",
"434 712 OFFCURVE",
"411 713 CURVE",
"387 716 OFFCURVE",
"367 711 OFFCURVE",
"352 710 CURVE SMOOTH",
"339 710 OFFCURVE",
"324 709 OFFCURVE",
"327 672 CURVE",
"327 632 OFFCURVE",
"325 544 OFFCURVE",
"328 509 CURVE",
"328 474 OFFCURVE",
"325 278 OFFCURVE",
"325 233 CURVE SMOOTH",
"325 188 OFFCURVE",
"299 103 OFFCURVE",
"212 103 CURVE SMOOTH",
"148 103 OFFCURVE",
"98 142 OFFCURVE",
"98 345 CURVE SMOOTH"
);
},
{
closed = 1;
nodes = (
"542 760 OFFCURVE",
"513 776 OFFCURVE",
"505 781 CURVE SMOOTH",
"478 798 OFFCURVE",
"465 805 OFFCURVE",
"438 824 CURVE",
"418 835 OFFCURVE",
"412 841 OFFCURVE",
"389 838 CURVE SMOOTH",
"384 838 OFFCURVE",
"378 837 OFFCURVE",
"371 834 CURVE",
"360 831 OFFCURVE",
"342 821 OFFCURVE",
"319 808 CURVE",
"289 785 OFFCURVE",
"281 784 OFFCURVE",
"271 779 CURVE",
"244 762 LINE SMOOTH",
"231 753 OFFCURVE",
"236 734 OFFCURVE",
"261 734 CURVE SMOOTH",
"274 734 OFFCURVE",
"286 735 OFFCURVE",
"299 737 CURVE",
"327 745 OFFCURVE",
"341 750 OFFCURVE",
"356 758 CURVE",
"402 779 LINE",
"434 764 LINE",
"445 757 OFFCURVE",
"456 751 OFFCURVE",
"469 746 CURVE",
"496 739 LINE",
"520 730 OFFCURVE",
"534 726 OFFCURVE",
"539 747 CURVE SMOOTH"
);
}
);
width = 506;
}
);
unicode = 0134;
},
{
color = 0;
glyphname = K;
lastChange = "2013-12-03 23:06:54 -0500";
layers = (
{
anchors = (
{
name = bottom;
position = "{310, 0}";
},
{
name = top;
position = "{310, 710}";
}
);
layerId = UUID0;
name = Regular;
paths = (
{
closed = 1;
nodes = (
"96 695 OFFCURVE",
"79 705 OFFCURVE",
"76 688 CURVE",
"71 670 OFFCURVE",
"69 574 OFFCURVE",
"72 548 CURVE SMOOTH",
"75 521 OFFCURVE",
"73 428 OFFCURVE",
"70 401 CURVE SMOOTH",
"66 374 OFFCURVE",
"61 111 OFFCURVE",
"61 88 CURVE SMOOTH",
"61 65 OFFCURVE",
"69 34 OFFCURVE",
"66 22 CURVE SMOOTH",
"63 10 OFFCURVE",
"58 2 OFFCURVE",
"69 1 CURVE",
"79 -2 OFFCURVE",
"128 3 OFFCURVE",
"143 3 CURVE SMOOTH",
"183 3 LINE SMOOTH",
"191 3 OFFCURVE",
"200 3 OFFCURVE",
"196 20 CURVE",
"191 36 OFFCURVE",
"194 111 OFFCURVE",
"194 137 CURVE SMOOTH",
"194 150 OFFCURVE",
"195 178 OFFCURVE",
"196 201 CURVE SMOOTH",
"197 214 OFFCURVE",
"197 229 OFFCURVE",
"197 244 CURVE",
"233 203 LINE SMOOTH",
"252 180 OFFCURVE",
"274 155 OFFCURVE",
"286 144 CURVE",
"307 121 OFFCURVE",
"376 25 OFFCURVE",
"389 14 CURVE",
"402 1 OFFCURVE",
"411 -4 OFFCURVE",
"428 -4 CURVE SMOOTH",
"446 -4 OFFCURVE",
"544 -1 OFFCURVE",
"557 -1 CURVE SMOOTH",
"570 -1 OFFCURVE",
"580 4 OFFCURVE",
"571 15 CURVE SMOOTH",
"562 24 OFFCURVE",
"516 85 OFFCURVE",
"497 101 CURVE SMOOTH",
"478 117 OFFCURVE",
"390 228 OFFCURVE",
"366 252 CURVE SMOOTH",
"354 264 OFFCURVE",
"332 288 OFFCURVE",
"313 311 CURVE SMOOTH",
"302 324 OFFCURVE",
"290 337 OFFCURVE",
"278 352 CURVE",
"332 408 LINE SMOOTH",
"360 437 OFFCURVE",
"388 468 OFFCURVE",
"395 476 CURVE",
"405 491 OFFCURVE",
"496 603 OFFCURVE",
"511 616 CURVE SMOOTH",
"527 629 OFFCURVE",
"569 673 OFFCURVE",
"574 678 CURVE SMOOTH",
"578 682 OFFCURVE",
"583 691 OFFCURVE",
"572 694 CURVE",
"563 695 OFFCURVE",
"551 694 OFFCURVE",
"544 694 CURVE SMOOTH",
"537 693 OFFCURVE",
"531 689 OFFCURVE",
"523 677 CURVE SMOOTH",
"516 665 OFFCURVE",
"456 602 OFFCURVE",
"429 572 CURVE",
"401 544 OFFCURVE",
"347 486 OFFCURVE",
"336 470 CURVE",
"322 454 OFFCURVE",
"260 386 OFFCURVE",
"242 370 CURVE SMOOTH",
"233 361 OFFCURVE",
"222 351 OFFCURVE",
"213 340 CURVE SMOOTH",
"197 323 LINE",
"195 357 LINE SMOOTH",
"194 377 OFFCURVE",
"193 402 OFFCURVE",
"196 425 CURVE SMOOTH",
"201 470 OFFCURVE",
"200 589 OFFCURVE",
"200 615 CURVE SMOOTH",
"199 643 OFFCURVE",
"200 662 OFFCURVE",
"200 674 CURVE SMOOTH",
"200 685 OFFCURVE",
"204 697 OFFCURVE",
"181 694 CURVE",
"158 693 OFFCURVE",
"130 695 OFFCURVE",
"107 695 CURVE SMOOTH"
);
}
);
width = 620;
}
);
unicode = 004B;
},
{
color = 0;
glyphname = Kcommaaccent;
lastChange = "2013-12-03 23:06:54 -0500";
layers = (
{
layerId = UUID0;
name = Regular;
paths = (
{
closed = 1;
nodes = (
"96 695 OFFCURVE",
"79 705 OFFCURVE",
"76 688 CURVE",
"71 670 OFFCURVE",
"69 574 OFFCURVE",
"72 548 CURVE SMOOTH",
"75 521 OFFCURVE",
"73 428 OFFCURVE",
"70 401 CURVE SMOOTH",
"66 374 OFFCURVE",
"61 111 OFFCURVE",
"61 88 CURVE SMOOTH",
"61 65 OFFCURVE",
"69 34 OFFCURVE",
"66 22 CURVE SMOOTH",
"63 10 OFFCURVE",
"58 2 OFFCURVE",
"69 1 CURVE",
"79 -2 OFFCURVE",
"128 3 OFFCURVE",
"143 3 CURVE SMOOTH",
"183 3 LINE SMOOTH",
"191 3 OFFCURVE",
"200 3 OFFCURVE",
"196 20 CURVE",
"191 36 OFFCURVE",
"194 111 OFFCURVE",
"194 137 CURVE SMOOTH",
"194 150 OFFCURVE",
"195 178 OFFCURVE",
"196 201 CURVE SMOOTH",
"197 214 OFFCURVE",
"197 229 OFFCURVE",
"197 244 CURVE",
"233 203 LINE SMOOTH",
"252 180 OFFCURVE",
"274 155 OFFCURVE",
"286 144 CURVE",
"307 121 OFFCURVE",
"376 25 OFFCURVE",
"389 14 CURVE",
"402 1 OFFCURVE",
"411 -4 OFFCURVE",
"428 -4 CURVE SMOOTH",
"446 -4 OFFCURVE",
"544 -1 OFFCURVE",
"557 -1 CURVE SMOOTH",
"570 -1 OFFCURVE",
"580 4 OFFCURVE",
"571 15 CURVE SMOOTH",
"562 24 OFFCURVE",
"516 85 OFFCURVE",
"497 101 CURVE SMOOTH",
"478 117 OFFCURVE",
"390 228 OFFCURVE",
"366 252 CURVE SMOOTH",
"354 264 OFFCURVE",
"332 288 OFFCURVE",
"313 311 CURVE SMOOTH",
"302 324 OFFCURVE",
"290 337 OFFCURVE",
"278 352 CURVE",
"332 408 LINE SMOOTH",
"360 437 OFFCURVE",
"388 468 OFFCURVE",
"395 476 CURVE",
"405 491 OFFCURVE",
"496 603 OFFCURVE",
"511 616 CURVE SMOOTH",
"527 629 OFFCURVE",
"569 673 OFFCURVE",
"574 678 CURVE SMOOTH",
"578 682 OFFCURVE",
"583 691 OFFCURVE",
"572 694 CURVE",
"563 695 OFFCURVE",
"551 694 OFFCURVE",
"544 694 CURVE SMOOTH",
"537 693 OFFCURVE",
"531 689 OFFCURVE",
"523 677 CURVE SMOOTH",
"516 665 OFFCURVE",
"456 602 OFFCURVE",
"429 572 CURVE",
"401 544 OFFCURVE",
"347 486 OFFCURVE",
"336 470 CURVE",
"322 454 OFFCURVE",
"260 386 OFFCURVE",
"242 370 CURVE SMOOTH",
"233 361 OFFCURVE",
"222 351 OFFCURVE",
"213 340 CURVE SMOOTH",
"197 323 LINE",
"195 357 LINE SMOOTH",
"194 377 OFFCURVE",
"193 402 OFFCURVE",
"196 425 CURVE SMOOTH",
"201 470 OFFCURVE",
"200 589 OFFCURVE",
"200 615 CURVE SMOOTH",
"199 643 OFFCURVE",
"200 662 OFFCURVE",
"200 674 CURVE SMOOTH",
"200 685 OFFCURVE",
"204 697 OFFCURVE",
"181 694 CURVE",
"158 693 OFFCURVE",
"130 695 OFFCURVE",
"107 695 CURVE SMOOTH"
);
},
{
closed = 1;
nodes = (
"305 -41 LINE",
"265 -41 LINE SMOOTH",
"258 -41 OFFCURVE",
"251 -44 OFFCURVE",
"250 -51 CURVE",
"243 -71 LINE",
"235 -103 LINE",
"204 -201 LINE",
"204 -206 OFFCURVE",
"202 -211 OFFCURVE",
"210 -211 CURVE",
"215 -212 OFFCURVE",
"226 -212 OFFCURVE",
"242 -212 CURVE SMOOTH",
"259 -212 OFFCURVE",
"269 -212 OFFCURVE",
"272 -211 CURVE SMOOTH",
"276 -208 OFFCURVE",
"279 -201 OFFCURVE",
"280 -198 CURVE SMOOTH",
"280 -195 OFFCURVE",
"282 -187 OFFCURVE",
"285 -176 CURVE SMOOTH",
"287 -171 OFFCURVE",
"292 -157 OFFCURVE",
"299 -134 CURVE SMOOTH",
"311 -96 LINE SMOOTH",
"315 -83 OFFCURVE",
"320 -73 OFFCURVE",
"321 -66 CURVE",
"324 -61 OFFCURVE",
"325 -57 OFFCURVE",
"326 -49 CURVE",
"330 -42 OFFCURVE",
"326 -41 OFFCURVE",
"321 -41 CURVE SMOOTH"
);
}
);
width = 620;
}
);
unicode = 0136;
},
{
color = 0;
glyphname = L;
lastChange = "2013-12-03 23:06:54 -0500";
layers = (
{
anchors = (
{
name = bottom;
position = "{262, 0}";
},
{
name = top;
position = "{262, 710}";
}
);
layerId = UUID0;
name = Regular;
paths = (
{
closed = 1;
nodes = (
"254 674 OFFCURVE",
"270 701 OFFCURVE",
"230 696 CURVE SMOOTH",
"190 691 OFFCURVE",
"135 694 OFFCURVE",
"112 697 CURVE",
"89 697 OFFCURVE",
"63 715 OFFCURVE",
"63 686 CURVE SMOOTH",
"63 658 OFFCURVE",
"72 457 OFFCURVE",
"72 425 CURVE SMOOTH",
"72 393 OFFCURVE",
"68 126 OFFCURVE",
"68 90 CURVE SMOOTH",
"68 53 OFFCURVE",
"69 26 OFFCURVE",
"68 15 CURVE SMOOTH",
"67 4 OFFCURVE",
"71 -8 OFFCURVE",
"90 -8 CURVE SMOOTH",
"107 -8 OFFCURVE",
"309 1 OFFCURVE",
"343 1 CURVE SMOOTH",
"378 1 OFFCURVE",
"478 -8 OFFCURVE",
"495 -8 CURVE SMOOTH",
"511 -8 OFFCURVE",
"524 -11 OFFCURVE",
"524 2 CURVE SMOOTH",
"524 14 OFFCURVE",
"521 30 OFFCURVE",
"522 37 CURVE SMOOTH",
"522 44 OFFCURVE",
"526 51 OFFCURVE",
"513 50 CURVE SMOOTH",
"500 50 OFFCURVE",
"423 51 OFFCURVE",
"394 51 CURVE",
"312 54 LINE",
"251 56 LINE",
"249 91 LINE SMOOTH",
"248 110 OFFCURVE",
"248 130 OFFCURVE",
"249 139 CURVE",
"249 156 OFFCURVE",
"251 230 OFFCURVE",
"251 248 CURVE SMOOTH",
"251 267 OFFCURVE",
"248 429 OFFCURVE",
"248 473 CURVE SMOOTH",
"248 517 OFFCURVE",
"254 633 OFFCURVE",
"254 650 CURVE SMOOTH"
);
}
);
width = 524;
}
);
unicode = 004C;
},
{
color = 0;
glyphname = LJ;
lastChange = "2013-12-03 23:06:54 -0500";
layers = (
{
layerId = UUID0;
name = Regular;
paths = (
{
closed = 1;
nodes = (
"254 674 OFFCURVE",
"270 701 OFFCURVE",
"230 696 CURVE SMOOTH",
"190 691 OFFCURVE",
"135 694 OFFCURVE",
"112 697 CURVE",
"89 697 OFFCURVE",
"63 715 OFFCURVE",
"63 686 CURVE SMOOTH",
"63 658 OFFCURVE",
"72 457 OFFCURVE",
"72 425 CURVE SMOOTH",
"72 393 OFFCURVE",
"68 126 OFFCURVE",
"68 90 CURVE SMOOTH",
"68 53 OFFCURVE",
"69 26 OFFCURVE",
"68 15 CURVE SMOOTH",
"67 4 OFFCURVE",
"71 -8 OFFCURVE",
"90 -8 CURVE SMOOTH",
"107 -8 OFFCURVE",
"309 1 OFFCURVE",
"343 1 CURVE SMOOTH",
"378 1 OFFCURVE",
"478 -8 OFFCURVE",
"495 -8 CURVE SMOOTH",
"511 -8 OFFCURVE",
"524 -11 OFFCURVE",
"524 2 CURVE SMOOTH",
"524 14 OFFCURVE",
"521 30 OFFCURVE",
"522 37 CURVE SMOOTH",
"522 44 OFFCURVE",
"526 51 OFFCURVE",
"513 50 CURVE SMOOTH",
"500 50 OFFCURVE",
"423 51 OFFCURVE",
"394 51 CURVE",
"312 54 LINE",
"251 56 LINE",
"249 91 LINE SMOOTH",
"248 110 OFFCURVE",
"248 130 OFFCURVE",
"249 139 CURVE",
"249 156 OFFCURVE",
"251 230 OFFCURVE",
"251 248 CURVE SMOOTH",
"251 267 OFFCURVE",
"248 429 OFFCURVE",
"248 473 CURVE SMOOTH",
"248 517 OFFCURVE",
"254 633 OFFCURVE",
"254 650 CURVE SMOOTH"
);
},
{
closed = 1;
nodes = (
"622 366 OFFCURVE",
"637 403 OFFCURVE",
"608 400 CURVE SMOOTH",
"579 396 OFFCURVE",
"558 393 OFFCURVE",
"546 393 CURVE",
"535 394 OFFCURVE",
"531 395 OFFCURVE",
"531 376 CURVE SMOOTH",
"531 357 OFFCURVE",
"529 287 OFFCURVE",
"529 247 CURVE SMOOTH",
"529 205 OFFCURVE",
"547 -7 OFFCURVE",
"768 -7 CURVE SMOOTH",
"991 -7 OFFCURVE",
"953 331 OFFCURVE",
"957 374 CURVE",
"957 418 OFFCURVE",
"959 654 OFFCURVE",
"959 680 CURVE SMOOTH",
"960 707 OFFCURVE",
"958 712 OFFCURVE",
"935 713 CURVE",
"911 716 OFFCURVE",
"891 711 OFFCURVE",
"876 710 CURVE SMOOTH",
"863 710 OFFCURVE",
"848 709 OFFCURVE",
"851 672 CURVE",
"851 632 OFFCURVE",
"849 544 OFFCURVE",
"852 509 CURVE",
"852 474 OFFCURVE",
"849 278 OFFCURVE",
"849 233 CURVE SMOOTH",
"849 188 OFFCURVE",
"823 103 OFFCURVE",
"736 103 CURVE SMOOTH",
"672 103 OFFCURVE",
"622 142 OFFCURVE",
"622 345 CURVE SMOOTH"
);
}
);
width = 1015;
}
);
unicode = 01C7;
},
{
color = 0;
glyphname = Lacute;
lastChange = "2013-12-03 23:06:54 -0500";
layers = (
{
layerId = UUID0;
name = Regular;
paths = (
{
closed = 1;
nodes = (
"254 674 OFFCURVE",
"270 701 OFFCURVE",
"230 696 CURVE SMOOTH",
"190 691 OFFCURVE",
"135 694 OFFCURVE",
"112 697 CURVE",
"89 697 OFFCURVE",
"63 715 OFFCURVE",
"63 686 CURVE SMOOTH",
"63 658 OFFCURVE",
"72 457 OFFCURVE",
"72 425 CURVE SMOOTH",
"72 393 OFFCURVE",
"68 126 OFFCURVE",
"68 90 CURVE SMOOTH",
"68 53 OFFCURVE",
"69 26 OFFCURVE",
"68 15 CURVE SMOOTH",
"67 4 OFFCURVE",
"71 -8 OFFCURVE",
"90 -8 CURVE SMOOTH",
"107 -8 OFFCURVE",
"309 1 OFFCURVE",
"343 1 CURVE SMOOTH",
"378 1 OFFCURVE",
"478 -8 OFFCURVE",
"495 -8 CURVE SMOOTH",
"511 -8 OFFCURVE",
"524 -11 OFFCURVE",
"524 2 CURVE SMOOTH",
"524 14 OFFCURVE",
"521 30 OFFCURVE",
"522 37 CURVE SMOOTH",
"522 44 OFFCURVE",
"526 51 OFFCURVE",
"513 50 CURVE SMOOTH",
"500 50 OFFCURVE",
"423 51 OFFCURVE",
"394 51 CURVE",
"312 54 LINE",
"251 56 LINE",
"249 91 LINE SMOOTH",
"248 110 OFFCURVE",
"248 130 OFFCURVE",
"249 139 CURVE",
"249 156 OFFCURVE",
"251 230 OFFCURVE",
"251 248 CURVE SMOOTH",
"251 267 OFFCURVE",
"248 429 OFFCURVE",
"248 473 CURVE SMOOTH",
"248 517 OFFCURVE",
"254 633 OFFCURVE",
"254 650 CURVE SMOOTH"
);
},
{
closed = 1;
nodes = (
"299 842 OFFCURVE",
"285 841 OFFCURVE",
"257 837 CURVE",
"249 837 OFFCURVE",
"234 834 OFFCURVE",
"222 830 CURVE SMOOTH",
"200 822 LINE",
"159 804 OFFCURVE",
"153 807 OFFCURVE",
"139 799 CURVE",
"129 796 OFFCURVE",
"91 781 OFFCURVE",
"89 774 CURVE SMOOTH",
"82 755 OFFCURVE",
"96 746 OFFCURVE",
"107 742 CURVE",
"127 730 OFFCURVE",
"136 736 OFFCURVE",
"160 744 CURVE",
"194 760 OFFCURVE",
"211 766 OFFCURVE",
"245 777 CURVE SMOOTH",
"256 780 OFFCURVE",
"289 794 OFFCURVE",
"294 811 CURVE"
);
}
);
width = 524;
}
);
unicode = 0139;
},
{
color = 0;
glyphname = Lcaron;
lastChange = "2013-12-03 23:06:54 -0500";
layers = (
{
layerId = UUID0;
name = Regular;
paths = (
{
closed = 1;
nodes = (
"254 674 OFFCURVE",
"270 701 OFFCURVE",
"230 696 CURVE SMOOTH",
"190 691 OFFCURVE",
"135 694 OFFCURVE",
"112 697 CURVE",
"89 697 OFFCURVE",
"63 715 OFFCURVE",
"63 686 CURVE SMOOTH",
"63 658 OFFCURVE",
"72 457 OFFCURVE",
"72 425 CURVE SMOOTH",
"72 393 OFFCURVE",
"68 126 OFFCURVE",
"68 90 CURVE SMOOTH",
"68 53 OFFCURVE",
"69 26 OFFCURVE",
"68 15 CURVE SMOOTH",
"67 4 OFFCURVE",
"71 -8 OFFCURVE",
"90 -8 CURVE SMOOTH",
"107 -8 OFFCURVE",
"309 1 OFFCURVE",
"343 1 CURVE SMOOTH",
"378 1 OFFCURVE",
"478 -8 OFFCURVE",
"495 -8 CURVE SMOOTH",
"511 -8 OFFCURVE",
"524 -11 OFFCURVE",
"524 2 CURVE SMOOTH",
"524 14 OFFCURVE",
"521 30 OFFCURVE",
"522 37 CURVE SMOOTH",
"522 44 OFFCURVE",
"526 51 OFFCURVE",
"513 50 CURVE SMOOTH",
"500 50 OFFCURVE",
"423 51 OFFCURVE",
"394 51 CURVE",
"312 54 LINE",
"251 56 LINE",
"249 91 LINE SMOOTH",
"248 110 OFFCURVE",
"248 130 OFFCURVE",
"249 139 CURVE",
"249 156 OFFCURVE",
"251 230 OFFCURVE",
"251 248 CURVE SMOOTH",
"251 267 OFFCURVE",
"248 429 OFFCURVE",
"248 473 CURVE SMOOTH",
"248 517 OFFCURVE",
"254 633 OFFCURVE",
"254 650 CURVE SMOOTH"
);
},
{
closed = 1;
nodes = (
"410 804 LINE",
"392 804 LINE SMOOTH",
"377 804 OFFCURVE",
"365 799 OFFCURVE",
"364 788 CURVE",
"351 756 LINE",
"333 706 LINE",
"310 632 LINE",
"310 624 OFFCURVE",
"306 616 OFFCURVE",
"322 616 CURVE",
"341 613 OFFCURVE",
"369 613 OFFCURVE",
"382 616 CURVE",
"390 620 OFFCURVE",
"395 632 OFFCURVE",
"398 637 CURVE",
"398 642 OFFCURVE",
"415 699 OFFCURVE",
"423 717 CURVE",
"430 738 OFFCURVE",
"439 752 OFFCURVE",
"442 764 CURVE",
"446 773 OFFCURVE",
"448 781 OFFCURVE",
"451 790 CURVE",
"458 802 OFFCURVE",
"451 804 OFFCURVE",
"442 804 CURVE SMOOTH"
);
}
);
width = 524;
}
);
unicode = 013D;
},
{
color = 0;
glyphname = Lcommaaccent;
lastChange = "2013-12-03 23:06:54 -0500";
layers = (
{
layerId = UUID0;
name = Regular;
paths = (
{
closed = 1;
nodes = (
"254 674 OFFCURVE",
"270 701 OFFCURVE",
"230 696 CURVE SMOOTH",
"190 691 OFFCURVE",
"135 694 OFFCURVE",
"112 697 CURVE",
"89 697 OFFCURVE",
"63 715 OFFCURVE",
"63 686 CURVE SMOOTH",
"63 658 OFFCURVE",
"72 457 OFFCURVE",
"72 425 CURVE SMOOTH",
"72 393 OFFCURVE",
"68 126 OFFCURVE",
"68 90 CURVE SMOOTH",
"68 53 OFFCURVE",
"69 26 OFFCURVE",
"68 15 CURVE SMOOTH",
"67 4 OFFCURVE",
"71 -8 OFFCURVE",
"90 -8 CURVE SMOOTH",
"107 -8 OFFCURVE",
"309 1 OFFCURVE",
"343 1 CURVE SMOOTH",
"378 1 OFFCURVE",
"478 -8 OFFCURVE",
"495 -8 CURVE SMOOTH",
"511 -8 OFFCURVE",
"524 -11 OFFCURVE",
"524 2 CURVE SMOOTH",
"524 14 OFFCURVE",
"521 30 OFFCURVE",
"522 37 CURVE SMOOTH",
"522 44 OFFCURVE",
"526 51 OFFCURVE",
"513 50 CURVE SMOOTH",
"500 50 OFFCURVE",
"423 51 OFFCURVE",
"394 51 CURVE",
"312 54 LINE",
"251 56 LINE",
"249 91 LINE SMOOTH",
"248 110 OFFCURVE",
"248 130 OFFCURVE",
"249 139 CURVE",
"249 156 OFFCURVE",
"251 230 OFFCURVE",
"251 248 CURVE SMOOTH",
"251 267 OFFCURVE",
"248 429 OFFCURVE",
"248 473 CURVE SMOOTH",
"248 517 OFFCURVE",
"254 633 OFFCURVE",
"254 650 CURVE SMOOTH"
);
},
{
closed = 1;
nodes = (
"309 -41 LINE",
"269 -41 LINE SMOOTH",
"262 -41 OFFCURVE",
"255 -44 OFFCURVE",
"254 -51 CURVE",
"247 -71 LINE",
"239 -103 LINE",
"208 -201 LINE",
"208 -206 OFFCURVE",
"206 -211 OFFCURVE",
"214 -211 CURVE",
"219 -212 OFFCURVE",
"230 -212 OFFCURVE",
"246 -212 CURVE SMOOTH",
"263 -212 OFFCURVE",
"273 -212 OFFCURVE",
"276 -211 CURVE SMOOTH",
"280 -208 OFFCURVE",
"283 -201 OFFCURVE",
"284 -198 CURVE SMOOTH",
"284 -195 OFFCURVE",
"286 -187 OFFCURVE",
"289 -176 CURVE SMOOTH",
"291 -171 OFFCURVE",
"296 -157 OFFCURVE",
"303 -134 CURVE SMOOTH",
"315 -96 LINE SMOOTH",
"319 -83 OFFCURVE",
"324 -73 OFFCURVE",
"325 -66 CURVE",
"328 -61 OFFCURVE",
"329 -57 OFFCURVE",
"330 -49 CURVE",
"334 -42 OFFCURVE",
"330 -41 OFFCURVE",
"325 -41 CURVE SMOOTH"
);
}
);
width = 524;
}
);
unicode = 013B;
},
{
color = 0;
glyphname = Ldot;
lastChange = "2013-12-03 23:06:54 -0500";
layers = (
{
layerId = UUID0;
name = Regular;
paths = (
{
closed = 1;
nodes = (
"254 674 OFFCURVE",
"270 701 OFFCURVE",
"230 696 CURVE SMOOTH",
"190 691 OFFCURVE",
"135 694 OFFCURVE",
"112 697 CURVE",
"89 697 OFFCURVE",
"63 715 OFFCURVE",
"63 686 CURVE SMOOTH",
"63 658 OFFCURVE",
"72 457 OFFCURVE",
"72 425 CURVE SMOOTH",
"72 393 OFFCURVE",
"68 126 OFFCURVE",
"68 90 CURVE SMOOTH",
"68 53 OFFCURVE",
"69 26 OFFCURVE",
"68 15 CURVE SMOOTH",
"67 4 OFFCURVE",
"71 -8 OFFCURVE",
"90 -8 CURVE SMOOTH",
"107 -8 OFFCURVE",
"309 1 OFFCURVE",
"343 1 CURVE SMOOTH",
"378 1 OFFCURVE",
"478 -8 OFFCURVE",
"495 -8 CURVE SMOOTH",
"511 -8 OFFCURVE",
"524 -11 OFFCURVE",
"524 2 CURVE SMOOTH",
"524 14 OFFCURVE",
"521 30 OFFCURVE",
"522 37 CURVE SMOOTH",
"522 44 OFFCURVE",
"526 51 OFFCURVE",
"513 50 CURVE SMOOTH",
"500 50 OFFCURVE",
"423 51 OFFCURVE",
"394 51 CURVE",
"312 54 LINE",
"251 56 LINE",
"249 91 LINE SMOOTH",
"248 110 OFFCURVE",
"248 130 OFFCURVE",
"249 139 CURVE",
"249 156 OFFCURVE",
"251 230 OFFCURVE",
"251 248 CURVE SMOOTH",
"251 267 OFFCURVE",
"248 429 OFFCURVE",
"248 473 CURVE SMOOTH",
"248 517 OFFCURVE",
"254 633 OFFCURVE",
"254 650 CURVE SMOOTH"
);
},
{
closed = 1;
nodes = (
"352 454 OFFCURVE",
"313 445 OFFCURVE",
"313 386 CURVE SMOOTH",
"313 331 OFFCURVE",
"349 306 OFFCURVE",
"385 306 CURVE SMOOTH",
"422 306 OFFCURVE",
"461 332 OFFCURVE",
"461 365 CURVE SMOOTH",
"461 397 OFFCURVE",
"455 454 OFFCURVE",
"385 454 CURVE SMOOTH"
);
}
);
width = 524;
}
);
unicode = 013F;
},
{
color = 0;
glyphname = Lslash;
lastChange = "2013-12-03 23:06:54 -0500";
layers = (
{
layerId = UUID0;
name = Regular;
paths = (
{
closed = 1;
nodes = (
"195 313 LINE",
"333 375 LINE",
"388 399 LINE SMOOTH",
"405 407 OFFCURVE",
"406 416 OFFCURVE",
"402 432 CURVE SMOOTH",
"388 483 LINE",
"384 492 OFFCURVE",
"378 495 OFFCURVE",
"370 494 CURVE SMOOTH",
"361 493 OFFCURVE",
"346 478 OFFCURVE",
"327 470 CURVE SMOOTH",
"308 462 OFFCURVE",
"287 452 OFFCURVE",
"280 448 CURVE",
"209 417 LINE SMOOTH",
"175 402 OFFCURVE",
"151 392 OFFCURVE",
"138 387 CURVE SMOOTH",
"98 372 LINE SMOOTH",
"85 367 OFFCURVE",
"75 362 OFFCURVE",
"67 358 CURVE SMOOTH",
"34 345 OFFCURVE",
"28 334 OFFCURVE",
"31 325 CURVE",
"59 273 LINE",
"70 256 OFFCURVE",
"81 259 OFFCURVE",
"97 267 CURVE SMOOTH"
);
},
{
closed = 1;
nodes = (
"308 674 OFFCURVE",
"324 701 OFFCURVE",
"284 696 CURVE SMOOTH",
"244 691 OFFCURVE",
"189 694 OFFCURVE",
"166 697 CURVE",
"143 697 OFFCURVE",
"117 715 OFFCURVE",
"117 686 CURVE SMOOTH",
"117 658 OFFCURVE",
"126 457 OFFCURVE",
"126 425 CURVE SMOOTH",
"126 393 OFFCURVE",
"122 126 OFFCURVE",
"122 90 CURVE SMOOTH",
"122 53 OFFCURVE",
"123 26 OFFCURVE",
"122 15 CURVE SMOOTH",
"121 4 OFFCURVE",
"125 -8 OFFCURVE",
"144 -8 CURVE SMOOTH",
"161 -8 OFFCURVE",
"363 1 OFFCURVE",
"397 1 CURVE SMOOTH",
"432 1 OFFCURVE",
"532 -8 OFFCURVE",
"549 -8 CURVE SMOOTH",
"565 -8 OFFCURVE",
"578 -11 OFFCURVE",
"578 2 CURVE SMOOTH",
"578 14 OFFCURVE",
"575 30 OFFCURVE",
"576 37 CURVE SMOOTH",
"576 44 OFFCURVE",
"580 51 OFFCURVE",
"567 50 CURVE SMOOTH",
"554 50 OFFCURVE",
"477 51 OFFCURVE",
"448 51 CURVE",
"366 54 LINE",
"305 56 LINE",
"303 91 LINE SMOOTH",
"302 110 OFFCURVE",
"302 130 OFFCURVE",
"303 139 CURVE",
"303 156 OFFCURVE",
"305 230 OFFCURVE",
"305 248 CURVE SMOOTH",
"305 267 OFFCURVE",
"302 429 OFFCURVE",
"302 473 CURVE SMOOTH",
"302 517 OFFCURVE",
"308 633 OFFCURVE",
"308 650 CURVE SMOOTH"
);
}
);
width = 580;
}
);
unicode = 0141;
},
{
color = 0;
glyphname = M;
lastChange = "2013-12-03 23:06:54 -0500";
layers = (
{
layerId = UUID0;
name = Regular;
paths = (
{
closed = 1;
nodes = (
"181 677 OFFCURVE",
"179 709 OFFCURVE",
"162 715 CURVE",
"146 718 OFFCURVE",
"128 718 OFFCURVE",
"109 716 CURVE SMOOTH",
"90 713 OFFCURVE",
"87 725 OFFCURVE",
"78 716 CURVE SMOOTH",
"70 708 OFFCURVE",
"74 649 OFFCURVE",
"74 622 CURVE SMOOTH",
"74 593 OFFCURVE",
"72 470 OFFCURVE",
"72 434 CURVE SMOOTH",
"72 398 OFFCURVE",
"62 261 OFFCURVE",
"62 220 CURVE SMOOTH",
"62 179 OFFCURVE",
"65 53 OFFCURVE",
"65 34 CURVE SMOOTH",
"64 14 OFFCURVE",
"63 4 OFFCURVE",
"74 1 CURVE SMOOTH",
"84 -2 OFFCURVE",
"117 3 OFFCURVE",
"132 3 CURVE SMOOTH",
"147 3 OFFCURVE",
"160 -1 OFFCURVE",
"160 15 CURVE SMOOTH",
"160 30 OFFCURVE",
"161 136 OFFCURVE",
"161 171 CURVE SMOOTH",
"161 206 OFFCURVE",
"163 337 OFFCURVE",
"163 368 CURVE SMOOTH",
"163 383 OFFCURVE",
"164 412 OFFCURVE",
"165 436 CURVE SMOOTH",
"167 480 LINE",
"172 465 OFFCURVE",
"178 450 OFFCURVE",
"184 436 CURVE SMOOTH",
"193 412 OFFCURVE",
"204 384 OFFCURVE",
"211 369 CURVE SMOOTH",
"224 339 OFFCURVE",
"290 225 OFFCURVE",
"300 196 CURVE SMOOTH",
"310 167 OFFCURVE",
"335 103 OFFCURVE",
"346 87 CURVE SMOOTH",
"355 72 OFFCURVE",
"359 64 OFFCURVE",
"363 64 CURVE SMOOTH",
"367 64 OFFCURVE",
"385 106 OFFCURVE",
"393 125 CURVE SMOOTH",
"401 144 OFFCURVE",
"468 283 OFFCURVE",
"481 307 CURVE SMOOTH",
"494 331 OFFCURVE",
"557 458 OFFCURVE",
"568 480 CURVE SMOOTH",
"573 491 OFFCURVE",
"580 505 OFFCURVE",
"587 517 CURVE SMOOTH",
"590 524 OFFCURVE",
"594 531 OFFCURVE",
"599 538 CURVE",
"597 466 LINE SMOOTH",
"596 427 OFFCURVE",
"594 389 OFFCURVE",
"595 374 CURVE",
"595 345 OFFCURVE",
"591 234 OFFCURVE",
"588 204 CURVE SMOOTH",
"585 175 OFFCURVE",
"586 55 OFFCURVE",
"586 35 CURVE SMOOTH",
"586 16 OFFCURVE",
"585 7 OFFCURVE",
"593 6 CURVE",
"602 6 OFFCURVE",
"616 9 OFFCURVE",
"620 8 CURVE SMOOTH",
"624 7 OFFCURVE",
"627 8 OFFCURVE",
"626 23 CURVE SMOOTH",
"626 37 OFFCURVE",
"624 166 OFFCURVE",
"627 197 CURVE SMOOTH",
"630 228 OFFCURVE",
"634 354 OFFCURVE",
"634 400 CURVE SMOOTH",
"634 443 OFFCURVE",
"634 613 OFFCURVE",
"638 640 CURVE",
"641 668 OFFCURVE",
"655 710 OFFCURVE",
"639 710 CURVE SMOOTH",
"625 710 OFFCURVE",
"588 642 OFFCURVE",
"569 604 CURVE",
"548 566 OFFCURVE",
"509 483 OFFCURVE",
"477 421 CURVE SMOOTH",
"412 291 LINE SMOOTH",
"399 264 OFFCURVE",
"385 237 OFFCURVE",
"370 208 CURVE",
"349 255 LINE SMOOTH",
"338 282 OFFCURVE",
"324 312 OFFCURVE",
"317 331 CURVE SMOOTH",
"304 371 OFFCURVE",
"265 461 OFFCURVE",
"246 493 CURVE",
"230 528 OFFCURVE",
"195 611 OFFCURVE",
"187 652 CURVE"
);
}
);
width = 704;
}
);
unicode = 004D;
},
{
color = 0;
glyphname = N;
lastChange = "2013-12-03 23:06:54 -0500";
layers = (
{
anchors = (
{
name = bottom;
position = "{338, 0}";
},
{
name = top;
position = "{338, 710}";
}
);
layerId = UUID0;
name = Regular;
paths = (
{
closed = 1;
nodes = (
"126 723 OFFCURVE",
"90 737 OFFCURVE",
"87 698 CURVE SMOOTH",
"84 659 OFFCURVE",
"84 620 OFFCURVE",
"84 580 CURVE SMOOTH",
"84 540 OFFCURVE",
"70 370 OFFCURVE",
"67 322 CURVE",
"62 277 OFFCURVE",
"60 158 OFFCURVE",
"60 101 CURVE",
"57 43 OFFCURVE",
"60 29 OFFCURVE",
"63 16 CURVE SMOOTH",
"66 3 OFFCURVE",
"64 -12 OFFCURVE",
"91 -12 CURVE SMOOTH",
"118 -12 OFFCURVE",
"164 -10 OFFCURVE",
"188 -10 CURVE SMOOTH",
"212 -10 OFFCURVE",
"244 -6 OFFCURVE",
"255 -6 CURVE SMOOTH",
"266 -6 OFFCURVE",
"275 -4 OFFCURVE",
"274 12 CURVE SMOOTH",
"274 28 OFFCURVE",
"270 79 OFFCURVE",
"270 108 CURVE SMOOTH",
"270 138 OFFCURVE",
"266 282 OFFCURVE",
"266 351 CURVE SMOOTH",
"266 386 OFFCURVE",
"264 445 OFFCURVE",
"263 497 CURVE SMOOTH",
"260 592 LINE",
"289 540 LINE SMOOTH",
"305 511 OFFCURVE",
"323 476 OFFCURVE",
"334 453 CURVE SMOOTH",
"355 406 OFFCURVE",
"424 252 OFFCURVE",
"445 212 CURVE",
"464 172 OFFCURVE",
"519 34 OFFCURVE",
"527 16 CURVE",
"538 -3 OFFCURVE",
"539 -3 OFFCURVE",
"550 -4 CURVE SMOOTH",
"561 -5 OFFCURVE",
"585 -1 OFFCURVE",
"596 -4 CURVE",
"605 -5 OFFCURVE",
"616 -4 OFFCURVE",
"615 16 CURVE SMOOTH",
"615 35 OFFCURVE",
"610 147 OFFCURVE",
"610 191 CURVE SMOOTH",
"610 236 OFFCURVE",
"602 346 OFFCURVE",
"605 400 CURVE",
"605 452 OFFCURVE",
"608 669 OFFCURVE",
"608 688 CURVE SMOOTH",
"609 707 OFFCURVE",
"616 717 OFFCURVE",
"597 717 CURVE SMOOTH",
"578 717 OFFCURVE",
"574 716 OFFCURVE",
"562 719 CURVE SMOOTH",
"551 721 OFFCURVE",
"527 730 OFFCURVE",
"527 707 CURVE",
"523 611 LINE",
"523 574 OFFCURVE",
"525 500 OFFCURVE",
"525 467 CURVE SMOOTH",
"524 432 OFFCURVE",
"522 379 OFFCURVE",
"523 326 CURVE",
"527 228 LINE",
"529 170 LINE",
"498 231 LINE SMOOTH",
"481 266 OFFCURVE",
"460 304 OFFCURVE",
"448 329 CURVE SMOOTH",
"424 377 OFFCURVE",
"361 520 OFFCURVE",
"337 570 CURVE SMOOTH",
"313 621 OFFCURVE",
"283 688 OFFCURVE",
"275 704 CURVE SMOOTH",
"267 719 OFFCURVE",
"255 724 OFFCURVE",
"226 724 CURVE SMOOTH",
"198 724 OFFCURVE",
"157 723 OFFCURVE",
"141 723 CURVE SMOOTH"
);
}
);
width = 676;
}
);
unicode = 004E;
},
{
color = 0;
glyphname = NJ;
lastChange = "2013-12-03 23:06:54 -0500";
layers = (
{
hints = (
{
place = "{60.000000, 206.000000}";
},
{
place = "{84.000000, 177.000000}";
},
{
place = "{523.000000, 82.000000}";
},
{
place = "{681.000000, 93.000000}";
},
{
place = "{1001.000000, 108.000000}";
},
{
horizontal = 1;
place = "{-7.000000, 110.000000}";
},
{
horizontal = 1;
place = "{11.000000, -21.000000}";
},
{
horizontal = 1;
place = "{17.000000, -21.000000}";
},
{
horizontal = 1;
place = "{710.000000, -20.000000}";
},
{
horizontal = 1;
place = "{713.000000, -20.000000}";
},
{
horizontal = 1;
place = "{719.000000, -20.000000}";
}
);
layerId = UUID0;
name = Regular;
paths = (
{
closed = 1;
nodes = (
"126 723 OFFCURVE",
"90 737 OFFCURVE",
"87 698 CURVE SMOOTH",
"84 659 OFFCURVE",
"84 620 OFFCURVE",
"84 580 CURVE SMOOTH",
"84 540 OFFCURVE",
"70 370 OFFCURVE",
"67 322 CURVE",
"62 277 OFFCURVE",
"60 158 OFFCURVE",
"60 101 CURVE",
"57 43 OFFCURVE",
"60 29 OFFCURVE",
"63 16 CURVE SMOOTH",
"66 3 OFFCURVE",
"64 -12 OFFCURVE",
"91 -12 CURVE SMOOTH",
"118 -12 OFFCURVE",
"164 -10 OFFCURVE",
"188 -10 CURVE SMOOTH",
"212 -10 OFFCURVE",
"244 -6 OFFCURVE",
"255 -6 CURVE SMOOTH",
"266 -6 OFFCURVE",
"275 -4 OFFCURVE",
"274 12 CURVE SMOOTH",
"274 28 OFFCURVE",
"270 79 OFFCURVE",
"270 108 CURVE SMOOTH",
"270 138 OFFCURVE",
"266 282 OFFCURVE",
"266 351 CURVE SMOOTH",
"266 386 OFFCURVE",
"264 445 OFFCURVE",
"263 497 CURVE SMOOTH",
"260 592 LINE",
"289 540 LINE SMOOTH",
"305 511 OFFCURVE",
"323 476 OFFCURVE",
"334 453 CURVE SMOOTH",
"355 406 OFFCURVE",
"424 252 OFFCURVE",
"445 212 CURVE",
"464 172 OFFCURVE",
"519 34 OFFCURVE",
"527 16 CURVE",
"538 -3 OFFCURVE",
"539 -3 OFFCURVE",
"550 -4 CURVE SMOOTH",
"561 -5 OFFCURVE",
"585 -1 OFFCURVE",
"596 -4 CURVE",
"605 -5 OFFCURVE",
"616 -4 OFFCURVE",
"615 16 CURVE SMOOTH",
"615 35 OFFCURVE",
"610 147 OFFCURVE",
"610 191 CURVE SMOOTH",
"610 236 OFFCURVE",
"602 346 OFFCURVE",
"605 400 CURVE",
"605 452 OFFCURVE",
"608 669 OFFCURVE",
"608 688 CURVE SMOOTH",
"609 707 OFFCURVE",
"616 717 OFFCURVE",
"597 717 CURVE SMOOTH",
"578 717 OFFCURVE",
"574 716 OFFCURVE",
"562 719 CURVE SMOOTH",
"551 721 OFFCURVE",
"527 730 OFFCURVE",
"527 707 CURVE",
"523 611 LINE",
"523 574 OFFCURVE",
"525 500 OFFCURVE",
"525 467 CURVE SMOOTH",
"524 432 OFFCURVE",
"522 379 OFFCURVE",
"523 326 CURVE",
"527 228 LINE",
"529 170 LINE",
"498 231 LINE SMOOTH",
"481 266 OFFCURVE",
"460 304 OFFCURVE",
"448 329 CURVE SMOOTH",
"424 377 OFFCURVE",
"361 520 OFFCURVE",
"337 570 CURVE SMOOTH",
"313 621 OFFCURVE",
"283 688 OFFCURVE",
"275 704 CURVE SMOOTH",
"267 719 OFFCURVE",
"255 724 OFFCURVE",
"226 724 CURVE SMOOTH",
"198 724 OFFCURVE",
"157 723 OFFCURVE",
"141 723 CURVE SMOOTH"
);
},
{
closed = 1;
nodes = (
"774 366 OFFCURVE",
"789 403 OFFCURVE",
"760 400 CURVE SMOOTH",
"731 396 OFFCURVE",
"710 393 OFFCURVE",
"698 393 CURVE",
"687 394 OFFCURVE",
"683 395 OFFCURVE",
"683 376 CURVE SMOOTH",
"683 357 OFFCURVE",
"681 287 OFFCURVE",
"681 247 CURVE SMOOTH",
"681 205 OFFCURVE",
"699 -7 OFFCURVE",
"920 -7 CURVE SMOOTH",
"1143 -7 OFFCURVE",
"1105 331 OFFCURVE",
"1109 374 CURVE",
"1109 418 OFFCURVE",
"1111 654 OFFCURVE",
"1111 680 CURVE SMOOTH",
"1112 707 OFFCURVE",
"1110 712 OFFCURVE",
"1087 713 CURVE",
"1063 716 OFFCURVE",
"1043 711 OFFCURVE",
"1028 710 CURVE SMOOTH",
"1015 710 OFFCURVE",
"1000 709 OFFCURVE",
"1003 672 CURVE",
"1003 632 OFFCURVE",
"1001 544 OFFCURVE",
"1004 509 CURVE",
"1004 474 OFFCURVE",
"1001 278 OFFCURVE",
"1001 233 CURVE SMOOTH",
"1001 188 OFFCURVE",
"975 103 OFFCURVE",
"888 103 CURVE SMOOTH",
"824 103 OFFCURVE",
"774 142 OFFCURVE",
"774 345 CURVE SMOOTH"
);
}
);
width = 1167;
}
);
unicode = 01CA;
},
{
color = 0;
glyphname = Nacute;
lastChange = "2013-12-03 23:06:54 -0500";
layers = (
{
layerId = UUID0;
name = Regular;
paths = (
{
closed = 1;
nodes = (
"126 723 OFFCURVE",
"90 737 OFFCURVE",
"87 698 CURVE SMOOTH",
"84 659 OFFCURVE",
"84 620 OFFCURVE",
"84 580 CURVE SMOOTH",
"84 540 OFFCURVE",
"70 370 OFFCURVE",
"67 322 CURVE",
"62 277 OFFCURVE",
"60 158 OFFCURVE",
"60 101 CURVE",
"57 43 OFFCURVE",
"60 29 OFFCURVE",
"63 16 CURVE SMOOTH",
"66 3 OFFCURVE",
"64 -12 OFFCURVE",
"91 -12 CURVE SMOOTH",
"118 -12 OFFCURVE",
"164 -10 OFFCURVE",
"188 -10 CURVE SMOOTH",
"212 -10 OFFCURVE",
"244 -6 OFFCURVE",
"255 -6 CURVE SMOOTH",
"266 -6 OFFCURVE",
"275 -4 OFFCURVE",
"274 12 CURVE SMOOTH",
"274 28 OFFCURVE",
"270 79 OFFCURVE",
"270 108 CURVE SMOOTH",
"270 138 OFFCURVE",
"266 282 OFFCURVE",
"266 351 CURVE SMOOTH",
"266 386 OFFCURVE",
"264 445 OFFCURVE",
"263 497 CURVE SMOOTH",
"260 592 LINE",
"289 540 LINE SMOOTH",
"305 511 OFFCURVE",
"323 476 OFFCURVE",
"334 453 CURVE SMOOTH",
"355 406 OFFCURVE",
"424 252 OFFCURVE",
"445 212 CURVE",
"464 172 OFFCURVE",
"519 34 OFFCURVE",
"527 16 CURVE",
"538 -3 OFFCURVE",
"539 -3 OFFCURVE",
"550 -4 CURVE SMOOTH",
"561 -5 OFFCURVE",
"585 -1 OFFCURVE",
"596 -4 CURVE",
"605 -5 OFFCURVE",
"616 -4 OFFCURVE",
"615 16 CURVE SMOOTH",
"615 35 OFFCURVE",
"610 147 OFFCURVE",
"610 191 CURVE SMOOTH",
"610 236 OFFCURVE",
"602 346 OFFCURVE",
"605 400 CURVE",
"605 452 OFFCURVE",
"608 669 OFFCURVE",
"608 688 CURVE SMOOTH",
"609 707 OFFCURVE",
"616 717 OFFCURVE",
"597 717 CURVE SMOOTH",
"578 717 OFFCURVE",
"574 716 OFFCURVE",
"562 719 CURVE SMOOTH",
"551 721 OFFCURVE",
"527 730 OFFCURVE",
"527 707 CURVE",
"523 611 LINE",
"523 574 OFFCURVE",
"525 500 OFFCURVE",
"525 467 CURVE SMOOTH",
"524 432 OFFCURVE",
"522 379 OFFCURVE",
"523 326 CURVE",
"527 228 LINE",
"529 170 LINE",
"498 231 LINE SMOOTH",
"481 266 OFFCURVE",
"460 304 OFFCURVE",
"448 329 CURVE SMOOTH",
"424 377 OFFCURVE",
"361 520 OFFCURVE",
"337 570 CURVE SMOOTH",
"313 621 OFFCURVE",
"283 688 OFFCURVE",
"275 704 CURVE SMOOTH",
"267 719 OFFCURVE",
"255 724 OFFCURVE",
"226 724 CURVE SMOOTH",
"198 724 OFFCURVE",
"157 723 OFFCURVE",
"141 723 CURVE SMOOTH"
);
},
{
closed = 1;
nodes = (
"478 838 OFFCURVE",
"464 837 OFFCURVE",
"436 833 CURVE",
"428 833 OFFCURVE",
"413 830 OFFCURVE",
"401 826 CURVE SMOOTH",
"379 818 LINE",
"338 800 OFFCURVE",
"332 803 OFFCURVE",
"318 795 CURVE",
"308 792 OFFCURVE",
"270 777 OFFCURVE",
"268 770 CURVE SMOOTH",
"261 751 OFFCURVE",
"275 742 OFFCURVE",
"286 738 CURVE",
"306 726 OFFCURVE",
"315 732 OFFCURVE",
"339 740 CURVE",
"373 756 OFFCURVE",
"390 762 OFFCURVE",
"424 773 CURVE SMOOTH",
"435 776 OFFCURVE",
"468 790 OFFCURVE",
"473 807 CURVE"
);
}
);
width = 657;
}
);
unicode = 0143;
},
{
color = 0;
glyphname = Ncaron;
lastChange = "2013-12-03 23:06:54 -0500";
layers = (
{
layerId = UUID0;
name = Regular;
paths = (
{
closed = 1;
nodes = (
"126 723 OFFCURVE",
"90 737 OFFCURVE",
"87 698 CURVE SMOOTH",
"84 659 OFFCURVE",
"84 620 OFFCURVE",
"84 580 CURVE SMOOTH",
"84 540 OFFCURVE",
"70 370 OFFCURVE",
"67 322 CURVE",
"62 277 OFFCURVE",
"60 158 OFFCURVE",
"60 101 CURVE",
"57 43 OFFCURVE",
"60 29 OFFCURVE",
"63 16 CURVE SMOOTH",
"66 3 OFFCURVE",
"64 -12 OFFCURVE",
"91 -12 CURVE SMOOTH",
"118 -12 OFFCURVE",
"164 -10 OFFCURVE",
"188 -10 CURVE SMOOTH",
"212 -10 OFFCURVE",
"244 -6 OFFCURVE",
"255 -6 CURVE SMOOTH",
"266 -6 OFFCURVE",
"275 -4 OFFCURVE",
"274 12 CURVE SMOOTH",
"274 28 OFFCURVE",
"270 79 OFFCURVE",
"270 108 CURVE SMOOTH",
"270 138 OFFCURVE",
"266 282 OFFCURVE",
"266 351 CURVE SMOOTH",
"266 386 OFFCURVE",
"264 445 OFFCURVE",
"263 497 CURVE SMOOTH",
"260 592 LINE",
"289 540 LINE SMOOTH",
"305 511 OFFCURVE",
"323 476 OFFCURVE",
"334 453 CURVE SMOOTH",
"355 406 OFFCURVE",
"424 252 OFFCURVE",
"445 212 CURVE",
"464 172 OFFCURVE",
"519 34 OFFCURVE",
"527 16 CURVE",
"538 -3 OFFCURVE",
"539 -3 OFFCURVE",
"550 -4 CURVE SMOOTH",
"561 -5 OFFCURVE",
"585 -1 OFFCURVE",
"596 -4 CURVE",
"605 -5 OFFCURVE",
"616 -4 OFFCURVE",
"615 16 CURVE SMOOTH",
"615 35 OFFCURVE",
"610 147 OFFCURVE",
"610 191 CURVE SMOOTH",
"610 236 OFFCURVE",
"602 346 OFFCURVE",
"605 400 CURVE",
"605 452 OFFCURVE",
"608 669 OFFCURVE",
"608 688 CURVE SMOOTH",
"609 707 OFFCURVE",
"616 717 OFFCURVE",
"597 717 CURVE SMOOTH",
"578 717 OFFCURVE",
"574 716 OFFCURVE",
"562 719 CURVE SMOOTH",
"551 721 OFFCURVE",
"527 730 OFFCURVE",
"527 707 CURVE",
"523 611 LINE",
"523 574 OFFCURVE",
"525 500 OFFCURVE",
"525 467 CURVE SMOOTH",
"524 432 OFFCURVE",
"522 379 OFFCURVE",
"523 326 CURVE",
"527 228 LINE",
"529 170 LINE",
"498 231 LINE SMOOTH",
"481 266 OFFCURVE",
"460 304 OFFCURVE",
"448 329 CURVE SMOOTH",
"424 377 OFFCURVE",
"361 520 OFFCURVE",
"337 570 CURVE SMOOTH",
"313 621 OFFCURVE",
"283 688 OFFCURVE",
"275 704 CURVE SMOOTH",
"267 719 OFFCURVE",
"255 724 OFFCURVE",
"226 724 CURVE SMOOTH",
"198 724 OFFCURVE",
"157 723 OFFCURVE",
"141 723 CURVE SMOOTH"
);
},
{
closed = 1;
nodes = (
"244 810 OFFCURVE",
"273 794 OFFCURVE",
"281 789 CURVE SMOOTH",
"308 772 OFFCURVE",
"321 765 OFFCURVE",
"348 746 CURVE",
"368 735 OFFCURVE",
"374 729 OFFCURVE",
"397 732 CURVE SMOOTH",
"402 732 OFFCURVE",
"408 733 OFFCURVE",
"415 736 CURVE",
"426 739 OFFCURVE",
"444 749 OFFCURVE",
"467 762 CURVE",
"497 785 OFFCURVE",
"505 786 OFFCURVE",
"515 791 CURVE",
"541 808 LINE SMOOTH",
"556 817 OFFCURVE",
"550 836 OFFCURVE",
"525 836 CURVE SMOOTH",
"512 836 OFFCURVE",
"500 835 OFFCURVE",
"487 833 CURVE",
"459 825 OFFCURVE",
"445 820 OFFCURVE",
"429 812 CURVE SMOOTH",
"422 808 OFFCURVE",
"407 801 OFFCURVE",
"384 791 CURVE",
"352 806 LINE",
"341 813 OFFCURVE",
"330 819 OFFCURVE",
"317 824 CURVE",
"290 831 LINE",
"266 840 OFFCURVE",
"252 844 OFFCURVE",
"247 823 CURVE SMOOTH"
);
}
);
width = 676;
}
);
unicode = 0147;
},
